RobotoDelta-opszmax-wghtmin-wdthmin.ufo
<glyph name="exclam" format="1">
  <advance width="395"/>
  <unicode hex="0021"/>
  <outline>
    <contour>
      <point x="144" y="57" type="qcurve" smooth="yes"/>
      <point x="144" y="24"/>
      <point x="173" y="-22"/>
      <point x="198" y="-22" type="qcurve" smooth="yes"/>
      <point x="224" y="-22"/>
      <point x="251" y="24"/>
      <point x="251" y="57" type="qcurve" smooth="yes"/>
      <point x="251" y="89"/>
      <point x="224" y="135"/>
      <point x="198" y="135" type="qcurve" smooth="yes"/>
      <point x="173" y="135"/>
      <point x="144" y="89"/>
    </contour>
    <contour>
      <point x="172" y="380" type="line"/>
      <point x="224" y="380" type="line"/>
      <point x="229" y="1456" type="line"/>
      <point x="167" y="1456" type="line"/>
    </contour>
  </outline>
</glyph>
<glyph name="quotedbl" format="1">
  <advance width="464"/>
  <unicode hex="0022"/>
  <outline>
    <contour>
      <point x="77" y="1139" type="line"/>
      <point x="141" y="1139" type="line"/>
      <point x="146" y="1368" type="line"/>
      <point x="146" y="1456" type="line"/>
      <point x="70" y="1456" type="line"/>
      <point x="70" y="1368" type="line"/>
    </contour>
    <contour>
      <point x="325" y="1139" type="line"/>
      <point x="388" y="1139" type="line"/>
      <point x="394" y="1368" type="line"/>
      <point x="394" y="1456" type="line"/>
      <point x="318" y="1456" type="line"/>
      <point x="318" y="1368" type="line"/>
    </contour>
  </outline>
</glyph>
<glyph name="numbersign" format="1">
  <advance width="1193"/>
  <unicode hex="0023"/>
  <outline>
    <contour>
      <point x="160" y="-20" type="line"/>
      <point x="216" y="-20" type="line"/>
      <point x="635" y="1476" type="line"/>
      <point x="578" y="1476" type="line"/>
    </contour>
    <contour>
      <point x="558" y="-20" type="line"/>
      <point x="615" y="-20" type="line"/>
      <point x="1033" y="1476" type="line"/>
      <point x="977" y="1476" type="line"/>
    </contour>
    <contour>
      <point x="23" y="452" type="line"/>
      <point x="1103" y="452" type="line"/>
      <point x="1103" y="515" type="line"/>
      <point x="23" y="515" type="line"/>
    </contour>
    <contour>
      <point x="92" y="941" type="line"/>
      <point x="1170" y="941" type="line"/>
      <point x="1170" y="1004" type="line"/>
      <point x="92" y="1004" type="line"/>
    </contour>
  </outline>
</glyph>
<glyph name="dollar" format="1">
  <advance width="800"/>
  <unicode hex="0024"/>
  <outline>
    <contour>
      <point x="43" y="407" type="line" smooth="yes"/>
      <point x="43" y="216"/>
      <point x="244" y="0"/>
      <point x="408" y="0" type="qcurve" smooth="yes"/>
      <point x="573" y="0"/>
      <point x="764" y="202"/>
      <point x="764" y="366" type="qcurve" smooth="yes"/>
      <point x="764" y="522"/>
      <point x="624" y="703"/>
      <point x="443" y="772" type="qcurve" smooth="yes"/>
      <point x="258" y="842"/>
      <point x="130" y="991"/>
      <point x="130" y="1101" type="qcurve" smooth="yes"/>
      <point x="130" y="1236"/>
      <point x="261" y="1390"/>
      <point x="399" y="1390" type="qcurve" smooth="yes"/>
      <point x="537" y="1390"/>
      <point x="677" y="1204"/>
      <point x="677" y="1055" type="qcurve" smooth="yes"/>
      <point x="677" y="1043" type="line"/>
      <point x="739" y="1043" type="line"/>
      <point x="739" y="1055" type="line" smooth="yes"/>
      <point x="739" y="1225"/>
      <point x="555" y="1456"/>
      <point x="399" y="1456" type="qcurve" smooth="yes"/>
      <point x="241" y="1456"/>
      <point x="69" y="1258"/>
      <point x="69" y="1104" type="qcurve" smooth="yes"/>
      <point x="69" y="955"/>
      <point x="222" y="781"/>
      <point x="405" y="710" type="qcurve" smooth="yes"/>
      <point x="590" y="640"/>
      <point x="703" y="487"/>
      <point x="703" y="368" type="qcurve" smooth="yes"/>
      <point x="703" y="234"/>
      <point x="550" y="66"/>
      <point x="408" y="66" type="qcurve" smooth="yes"/>
      <point x="264" y="66"/>
      <point x="105" y="238"/>
      <point x="105" y="407" type="qcurve" smooth="yes"/>
      <point x="105" y="419" type="line"/>
      <point x="43" y="419" type="line"/>
    </contour>
    <contour>
      <point x="377" y="-150" type="line"/>
      <point x="431" y="-150" type="line"/>
      <point x="431" y="90" type="line"/>
      <point x="430" y="100" type="line"/>
      <point x="430" y="728" type="line"/>
      <point x="377" y="728" type="line"/>
    </contour>
    <contour>
      <point x="380" y="728" type="line"/>
      <point x="432" y="728" type="line"/>
      <point x="432" y="1606" type="line"/>
      <point x="377" y="1606" type="line"/>
      <point x="377" y="1366" type="line"/>
      <point x="380" y="1356" type="line"/>
    </contour>
  </outline>
</glyph>
<glyph name="percent" format="1">
  <advance width="1262"/>
  <unicode hex="0025"/>
  <outline>
    <contour>
      <point x="45" y="1022" type="line" smooth="yes"/>
      <point x="45" y="860"/>
      <point x="148" y="660"/>
      <point x="256" y="660" type="qcurve" smooth="yes"/>
      <point x="365" y="660"/>
      <point x="469" y="860"/>
      <point x="469" y="1022" type="qcurve" smooth="yes"/>
      <point x="469" y="1114" type="line" smooth="yes"/>
      <point x="469" y="1276"/>
      <point x="365" y="1476"/>
      <point x="256" y="1476" type="qcurve" smooth="yes"/>
      <point x="148" y="1476"/>
      <point x="45" y="1276"/>
      <point x="45" y="1114" type="qcurve" smooth="yes"/>
    </contour>
    <contour>
      <point x="104" y="1023" type="qcurve" smooth="yes"/>
      <point x="104" y="1113" type="line" smooth="yes"/>
      <point x="104" y="1244"/>
      <point x="171" y="1411"/>
      <point x="256" y="1411" type="qcurve" smooth="yes"/>
      <point x="343" y="1411"/>
      <point x="409" y="1244"/>
      <point x="409" y="1113" type="qcurve" smooth="yes"/>
      <point x="409" y="1023" type="line" smooth="yes"/>
      <point x="409" y="892"/>
      <point x="343" y="725"/>
      <point x="256" y="725" type="qcurve" smooth="yes"/>
      <point x="171" y="725"/>
      <point x="104" y="892"/>
    </contour>
    <contour>
      <point x="206" y="31" type="line"/>
      <point x="255" y="-7" type="line"/>
      <point x="1056" y="1422" type="line"/>
      <point x="1007" y="1463" type="line"/>
    </contour>
    <contour>
      <point x="795" y="343" type="line" smooth="yes"/>
      <point x="795" y="176"/>
      <point x="896" y="-19"/>
      <point x="1005" y="-19" type="qcurve" smooth="yes"/>
      <point x="1116" y="-19"/>
      <point x="1217" y="184"/>
      <point x="1217" y="347" type="qcurve" smooth="yes"/>
      <point x="1217" y="434" type="line" smooth="yes"/>
      <point x="1217" y="595"/>
      <point x="1116" y="797"/>
      <point x="1005" y="797" type="qcurve" smooth="yes"/>
      <point x="896" y="797"/>
      <point x="795" y="595"/>
      <point x="795" y="434" type="qcurve" smooth="yes"/>
    </contour>
    <contour>
      <point x="853" y="344" type="qcurve" smooth="yes"/>
      <point x="853" y="434" type="line" smooth="yes"/>
      <point x="853" y="563"/>
      <point x="919" y="731"/>
      <point x="1005" y="731" type="qcurve" smooth="yes"/>
      <point x="1092" y="731"/>
      <point x="1158" y="562"/>
      <point x="1158" y="431" type="qcurve" smooth="yes"/>
      <point x="1158" y="344" type="line" smooth="yes"/>
      <point x="1158" y="214"/>
      <point x="1092" y="46"/>
      <point x="1005" y="46" type="qcurve" smooth="yes"/>
      <point x="919" y="46"/>
      <point x="853" y="207"/>
    </contour>
  </outline>
</glyph>
<glyph name="ampersand" format="1">
  <advance width="910"/>
  <unicode hex="0026"/>
  <outline>
    <contour>
      <point x="53" y="380" type="qcurve" smooth="yes"/>
      <point x="53" y="213"/>
      <point x="229" y="-20"/>
      <point x="384" y="-20" type="qcurve" smooth="yes"/>
      <point x="580" y="-20"/>
      <point x="847" y="380"/>
      <point x="847" y="674" type="qcurve"/>
      <point x="787" y="674" type="line"/>
      <point x="787" y="387"/>
      <point x="549" y="49"/>
      <point x="384" y="49" type="qcurve" smooth="yes"/>
      <point x="261" y="49"/>
      <point x="115" y="236"/>
      <point x="115" y="378" type="qcurve" smooth="yes"/>
      <point x="115" y="496"/>
      <point x="234" y="678"/>
      <point x="357" y="774" type="qcurve" smooth="yes"/>
      <point x="469" y="863" type="line" smooth="yes"/>
      <point x="541" y="920"/>
      <point x="629" y="1079"/>
      <point x="629" y="1184" type="qcurve" smooth="yes"/>
      <point x="629" y="1314"/>
      <point x="506" y="1486"/>
      <point x="405" y="1486" type="qcurve" smooth="yes"/>
      <point x="303" y="1486"/>
      <point x="170" y="1303"/>
      <point x="170" y="1164" type="qcurve" smooth="yes"/>
      <point x="170" y="1072"/>
      <point x="230" y="912"/>
      <point x="320" y="775" type="qcurve" smooth="yes"/>
      <point x="825" y="0" type="line"/>
      <point x="905" y="0" type="line"/>
      <point x="372" y="811" type="line" smooth="yes"/>
      <point x="287" y="938"/>
      <point x="230" y="1085"/>
      <point x="230" y="1164" type="qcurve" smooth="yes"/>
      <point x="230" y="1265"/>
      <point x="324" y="1417"/>
      <point x="405" y="1417" type="qcurve" smooth="yes"/>
      <point x="484" y="1417"/>
      <point x="569" y="1275"/>
      <point x="569" y="1182" type="qcurve" smooth="yes"/>
      <point x="569" y="1098"/>
      <point x="498" y="966"/>
      <point x="432" y="915" type="qcurve" smooth="yes"/>
      <point x="322" y="829" type="line" smooth="yes"/>
      <point x="197" y="732"/>
      <point x="53" y="524"/>
    </contour>
  </outline>
</glyph>
<glyph name="quotesingle" format="1">
  <advance width="226"/>
  <unicode hex="0027"/>
  <outline>
    <contour>
      <point x="81" y="1139" type="line"/>
      <point x="144" y="1139" type="line"/>
      <point x="155" y="1368" type="line"/>
      <point x="155" y="1456" type="line"/>
      <point x="70" y="1456" type="line"/>
      <point x="70" y="1368" type="line"/>
    </contour>
  </outline>
</glyph>
<glyph name="parenleft" format="1">
  <advance width="469"/>
  <unicode hex="0028"/>
  <outline>
    <contour>
      <point x="478" y="-436" type="qcurve"/>
      <point x="478" y="-367" type="line"/>
      <point x="353" y="-293"/>
      <point x="156" y="125"/>
      <point x="156" y="508" type="qcurve" smooth="yes"/>
      <point x="156" y="532" type="line" smooth="yes"/>
      <point x="156" y="915"/>
      <point x="353" y="1333"/>
      <point x="478" y="1407" type="qcurve"/>
      <point x="478" y="1476" type="line"/>
      <point x="322" y="1401"/>
      <point x="91" y="922"/>
      <point x="91" y="525" type="qcurve" smooth="yes"/>
      <point x="91" y="515" type="line" smooth="yes"/>
      <point x="91" y="118"/>
      <point x="322" y="-361"/>
    </contour>
  </outline>
</glyph>
<glyph name="parenright" format="1">
  <advance width="469"/>
  <unicode hex="0029"/>
  <outline>
    <contour>
      <point x="-9" y="-436" type="line"/>
      <point x="147" y="-362"/>
      <point x="377" y="118"/>
      <point x="377" y="515" type="qcurve" smooth="yes"/>
      <point x="377" y="525" type="line" smooth="yes"/>
      <point x="377" y="922"/>
      <point x="147" y="1402"/>
      <point x="-9" y="1476" type="qcurve"/>
      <point x="-9" y="1412" type="line"/>
      <point x="116" y="1338"/>
      <point x="312" y="918"/>
      <point x="312" y="532" type="qcurve" smooth="yes"/>
      <point x="312" y="508" type="line" smooth="yes"/>
      <point x="312" y="122"/>
      <point x="116" y="-298"/>
      <point x="-9" y="-372" type="qcurve"/>
    </contour>
  </outline>
</glyph>
<glyph name="plus" format="1">
  <advance width="976"/>
  <unicode hex="002B"/>
  <outline>
    <contour>
      <point x="82" y="642" type="line"/>
      <point x="894" y="642" type="line"/>
      <point x="894" y="706" type="line"/>
      <point x="82" y="706" type="line"/>
    </contour>
    <contour>
      <point x="457" y="186" type="line"/>
      <point x="518" y="186" type="line"/>
      <point x="518" y="1162" type="line"/>
      <point x="457" y="1162" type="line"/>
    </contour>
  </outline>
</glyph>
<glyph name="comma" format="1">
  <advance width="388"/>
  <unicode hex="002C"/>
  <outline>
    <contour>
      <point x="118" y="-148" type="qcurve"/>
      <point x="168" y="-181" type="line"/>
      <point x="203" y="-137"/>
      <point x="240" y="-27"/>
      <point x="240" y="45" type="qcurve" smooth="yes"/>
      <point x="240" y="139" type="line"/>
      <point x="165" y="139" type="line"/>
      <point x="165" y="45" type="line" smooth="yes"/>
      <point x="165" y="-16"/>
      <point x="142" y="-105"/>
    </contour>
  </outline>
</glyph>
<glyph name="hyphen" format="1">
  <advance width="477"/>
  <unicode hex="002D"/>
  <outline>
    <contour>
      <point x="20" y="601" type="line"/>
      <point x="457" y="601" type="line"/>
      <point x="457" y="675" type="line"/>
      <point x="20" y="675" type="line"/>
    </contour>
  </outline>
</glyph>
<glyph name="period" format="1">
  <advance width="353"/>
  <unicode hex="002E"/>
  <outline>
    <contour>
      <point x="121" y="56" type="qcurve" smooth="yes"/>
      <point x="121" y="23"/>
      <point x="149" y="-22"/>
      <point x="176" y="-22" type="qcurve" smooth="yes"/>
      <point x="203" y="-22"/>
      <point x="231" y="23"/>
      <point x="231" y="56" type="qcurve" smooth="yes"/>
      <point x="231" y="89"/>
      <point x="203" y="134"/>
      <point x="176" y="134" type="qcurve" smooth="yes"/>
      <point x="149" y="134"/>
      <point x="121" y="89"/>
    </contour>
  </outline>
</glyph>
<glyph name="zero" format="1">
  <advance width="1195"/>
  <unicode hex="0030"/>
  <outline>
    <contour>
      <point x="282" y="480" type="line" smooth="yes"/>
      <point x="282" y="246"/>
      <point x="447" y="-30"/>
      <point x="597" y="-30" type="qcurve" smooth="yes"/>
      <point x="747" y="-30"/>
      <point x="912" y="246"/>
      <point x="912" y="480" type="qcurve" smooth="yes"/>
      <point x="912" y="976" type="line" smooth="yes"/>
      <point x="912" y="1210"/>
      <point x="747" y="1486"/>
      <point x="597" y="1486" type="qcurve" smooth="yes"/>
      <point x="447" y="1486"/>
      <point x="282" y="1210"/>
      <point x="282" y="976" type="qcurve" smooth="yes"/>
    </contour>
    <contour>
      <point x="336" y="470" type="qcurve" smooth="yes"/>
      <point x="336" y="986" type="line" smooth="yes"/>
      <point x="336" y="1179"/>
      <point x="465" y="1430"/>
      <point x="597" y="1430" type="qcurve" smooth="yes"/>
      <point x="729" y="1430"/>
      <point x="858" y="1179"/>
      <point x="858" y="986" type="qcurve" smooth="yes"/>
      <point x="858" y="470" type="line" smooth="yes"/>
      <point x="858" y="275"/>
      <point x="729" y="26"/>
      <point x="597" y="26" type="qcurve" smooth="yes"/>
      <point x="465" y="26"/>
      <point x="336" y="275"/>
    </contour>
  </outline>
</glyph>
<glyph name="one" format="1">
  <advance width="1126"/>
  <unicode hex="0031"/>
  <outline>
    <contour>
      <point x="585" y="0" type="line"/>
      <point x="639" y="0" type="line"/>
      <point x="639" y="1476" type="line"/>
      <point x="625" y="1476" type="line"/>
      <point x="241" y="1314" type="line"/>
      <point x="241" y="1260" type="line"/>
      <point x="585" y="1408" type="line"/>
    </contour>
  </outline>
</glyph>
<glyph name="two" format="1">
  <advance width="1390"/>
  <unicode hex="0032"/>
  <outline>
    <contour>
      <point x="372" y="0" type="line"/>
      <point x="1025" y="0" type="line"/>
      <point x="1025" y="56" type="line"/>
      <point x="441" y="56" type="line"/>
      <point x="791" y="582" type="line" smooth="yes"/>
      <point x="880" y="715"/>
      <point x="997" y="950"/>
      <point x="997" y="1091" type="qcurve" smooth="yes"/>
      <point x="997" y="1248"/>
      <point x="838" y="1486"/>
      <point x="701" y="1486" type="qcurve" smooth="yes"/>
      <point x="560" y="1486"/>
      <point x="378" y="1227"/>
      <point x="378" y="1034" type="qcurve" smooth="yes"/>
      <point x="378" y="1024" type="line"/>
      <point x="432" y="1024" type="line"/>
      <point x="432" y="1034" type="line" smooth="yes"/>
      <point x="432" y="1215"/>
      <point x="585" y="1430"/>
      <point x="701" y="1430" type="qcurve" smooth="yes"/>
      <point x="815" y="1430"/>
      <point x="943" y="1225"/>
      <point x="943" y="1081" type="qcurve" smooth="yes"/>
      <point x="943" y="968"/>
      <point x="841" y="752"/>
      <point x="758" y="629" type="qcurve" smooth="yes"/>
      <point x="372" y="51" type="line"/>
    </contour>
  </outline>
</glyph>
<glyph name="three" format="1">
  <advance width="1390"/>
  <unicode hex="0033"/>
  <outline>
    <contour>
      <point x="350" y="376" type="line" smooth="yes"/>
      <point x="350" y="197"/>
      <point x="534" y="-30"/>
      <point x="678" y="-30" type="qcurve" smooth="yes"/>
      <point x="823" y="-30"/>
      <point x="1008" y="199"/>
      <point x="1008" y="397" type="qcurve" smooth="yes"/>
      <point x="1008" y="538"/>
      <point x="878" y="729"/>
      <point x="774" y="758" type="qcurve"/>
      <point x="774" y="762" type="line"/>
      <point x="874" y="814"/>
      <point x="961" y="993"/>
      <point x="961" y="1103" type="qcurve" smooth="yes"/>
      <point x="961" y="1271"/>
      <point x="805" y="1486"/>
      <point x="678" y="1486" type="qcurve" smooth="yes"/>
      <point x="551" y="1486"/>
      <point x="386" y="1271"/>
      <point x="386" y="1104" type="qcurve" smooth="yes"/>
      <point x="386" y="1094" type="line"/>
      <point x="439" y="1094" type="line"/>
      <point x="439" y="1104" type="line" smooth="yes"/>
      <point x="439" y="1260"/>
      <point x="575" y="1430"/>
      <point x="678" y="1430" type="qcurve" smooth="yes"/>
      <point x="781" y="1430"/>
      <point x="906" y="1259"/>
      <point x="906" y="1102" type="qcurve" smooth="yes"/>
      <point x="906" y="960"/>
      <point x="766" y="787"/>
      <point x="634" y="787" type="qcurve" smooth="yes"/>
      <point x="546" y="787" type="line"/>
      <point x="546" y="732" type="line"/>
      <point x="643" y="732" type="line" smooth="yes"/>
      <point x="777" y="732"/>
      <point x="952" y="559"/>
      <point x="952" y="396" type="qcurve" smooth="yes"/>
      <point x="952" y="209"/>
      <point x="803" y="26"/>
      <point x="678" y="26" type="qcurve" smooth="yes"/>
      <point x="553" y="26"/>
      <point x="402" y="210"/>
      <point x="402" y="376" type="qcurve" smooth="yes"/>
      <point x="402" y="386" type="line"/>
      <point x="350" y="386" type="line"/>
    </contour>
  </outline>
</glyph>
<glyph name="four" format="1">
  <advance width="1126"/>
  <unicode hex="0034"/>
  <outline>
    <contour>
      <point x="748" y="0" type="line"/>
      <point x="800" y="0" type="line"/>
      <point x="800" y="1456" type="line"/>
      <point x="741" y="1456" type="line"/>
      <point x="159" y="423" type="line"/>
      <point x="159" y="369" type="line"/>
      <point x="983" y="369" type="line"/>
      <point x="983" y="419" type="line"/>
      <point x="789" y="419" type="line"/>
      <point x="763" y="419" type="line"/>
      <point x="217" y="419" type="line"/>
      <point x="742" y="1367" type="line"/>
      <point x="748" y="1367" type="line"/>
      <point x="748" y="407" type="line"/>
      <point x="748" y="392" type="line"/>
    </contour>
  </outline>
</glyph>
<glyph name="five" format="1">
  <advance width="1126"/>
  <unicode hex="0035"/>
  <outline>
    <contour>
      <point x="233" y="360" type="line" smooth="yes"/>
      <point x="233" y="192"/>
      <point x="412" y="-30"/>
      <point x="556" y="-30" type="qcurve" smooth="yes"/>
      <point x="700" y="-30"/>
      <point x="889" y="235"/>
      <point x="889" y="465" type="qcurve" smooth="yes"/>
      <point x="889" y="676"/>
      <point x="699" y="910"/>
      <point x="565" y="910" type="qcurve" smooth="yes"/>
      <point x="493" y="910"/>
      <point x="373" y="836"/>
      <point x="334" y="782" type="qcurve"/>
      <point x="388" y="1404" type="line"/>
      <point x="831" y="1404" type="line"/>
      <point x="831" y="1456" type="line"/>
      <point x="342" y="1456" type="line"/>
      <point x="277" y="725" type="line"/>
      <point x="325" y="708" type="line"/>
      <point x="369" y="774"/>
      <point x="484" y="860"/>
      <point x="556" y="860" type="qcurve" smooth="yes"/>
      <point x="678" y="860"/>
      <point x="835" y="657"/>
      <point x="835" y="465" type="qcurve" smooth="yes"/>
      <point x="835" y="254"/>
      <point x="678" y="20"/>
      <point x="556" y="20" type="qcurve" smooth="yes"/>
      <point x="433" y="20"/>
      <point x="286" y="203"/>
      <point x="286" y="360" type="qcurve" smooth="yes"/>
      <point x="286" y="370" type="line"/>
      <point x="233" y="370" type="line"/>
    </contour>
  </outline>
</glyph>
<glyph name="six" format="1">
  <advance width="1126"/>
  <unicode hex="0036"/>
  <outline>
    <contour>
      <point x="222" y="614" type="line" smooth="yes"/>
      <point x="222" y="274"/>
      <point x="433" y="-30"/>
      <point x="581" y="-30" type="qcurve" smooth="yes"/>
      <point x="728" y="-30"/>
      <point x="913" y="243"/>
      <point x="913" y="463" type="qcurve" smooth="yes"/>
      <point x="913" y="667"/>
      <point x="740" y="919"/>
      <point x="595" y="919" type="qcurve" smooth="yes"/>
      <point x="445" y="919"/>
      <point x="244" y="662"/>
      <point x="244" y="463" type="qcurve"/>
      <point x="271" y="463" type="line"/>
      <point x="271" y="634"/>
      <point x="459" y="869"/>
      <point x="581" y="869" type="qcurve" smooth="yes"/>
      <point x="713" y="869"/>
      <point x="859" y="657"/>
      <point x="859" y="463" type="qcurve" smooth="yes"/>
      <point x="859" y="252"/>
      <point x="713" y="21"/>
      <point x="581" y="21" type="qcurve" smooth="yes"/>
      <point x="449" y="21"/>
      <point x="277" y="285"/>
      <point x="277" y="604" type="qcurve" smooth="yes"/>
      <point x="277" y="654" type="line" smooth="yes"/>
      <point x="277" y="1026"/>
      <point x="536" y="1436"/>
      <point x="755" y="1436" type="qcurve" smooth="yes"/>
      <point x="773" y="1436" type="line"/>
      <point x="773" y="1486" type="line"/>
      <point x="755" y="1486" type="line" smooth="yes"/>
      <point x="505" y="1486"/>
      <point x="222" y="1029"/>
      <point x="222" y="644" type="qcurve" smooth="yes"/>
    </contour>
  </outline>
</glyph>
<glyph name="seven" format="1">
  <advance width="1126"/>
  <unicode hex="0037"/>
  <outline>
    <contour>
      <point x="336" y="0" type="line"/>
      <point x="395" y="0" type="line"/>
      <point x="934" y="1415" type="line"/>
      <point x="934" y="1456" type="line"/>
      <point x="187" y="1456" type="line"/>
      <point x="187" y="1406" type="line"/>
      <point x="874" y="1406" type="line"/>
    </contour>
  </outline>
</glyph>
<glyph name="eight" format="1">
  <advance width="1390"/>
  <unicode hex="0038"/>
  <outline>
    <contour>
      <point x="371" y="377" type="qcurve" smooth="yes"/>
      <point x="371" y="183"/>
      <point x="560" y="-30"/>
      <point x="695" y="-30" type="qcurve" smooth="yes"/>
      <point x="829" y="-30"/>
      <point x="1020" y="183"/>
      <point x="1020" y="377" type="qcurve" smooth="yes"/>
      <point x="1020" y="511"/>
      <point x="906" y="703"/>
      <point x="815" y="743" type="qcurve"/>
      <point x="815" y="747" type="line"/>
      <point x="887" y="786"/>
      <point x="980" y="972"/>
      <point x="980" y="1096" type="qcurve" smooth="yes"/>
      <point x="980" y="1272"/>
      <point x="812" y="1486"/>
      <point x="695" y="1486" type="qcurve" smooth="yes"/>
      <point x="577" y="1486"/>
      <point x="409" y="1272"/>
      <point x="409" y="1096" type="qcurve" smooth="yes"/>
      <point x="409" y="972"/>
      <point x="503" y="786"/>
      <point x="574" y="747" type="qcurve"/>
      <point x="574" y="743" type="line"/>
      <point x="484" y="703"/>
      <point x="371" y="511"/>
    </contour>
    <contour>
      <point x="425" y="377" type="qcurve" smooth="yes"/>
      <point x="425" y="527"/>
      <point x="574" y="717"/>
      <point x="695" y="717" type="qcurve" smooth="yes"/>
      <point x="816" y="717"/>
      <point x="965" y="527"/>
      <point x="965" y="377" type="qcurve" smooth="yes"/>
      <point x="965" y="220"/>
      <point x="816" y="25"/>
      <point x="695" y="25" type="qcurve" smooth="yes"/>
      <point x="574" y="25"/>
      <point x="425" y="220"/>
    </contour>
    <contour>
      <point x="463" y="1096" type="qcurve" smooth="yes"/>
      <point x="463" y="1243"/>
      <point x="592" y="1431"/>
      <point x="695" y="1431" type="qcurve" smooth="yes"/>
      <point x="797" y="1431"/>
      <point x="926" y="1243"/>
      <point x="926" y="1096" type="qcurve" smooth="yes"/>
      <point x="926" y="956"/>
      <point x="797" y="773"/>
      <point x="695" y="773" type="qcurve" smooth="yes"/>
      <point x="592" y="773"/>
      <point x="463" y="956"/>
    </contour>
  </outline>
</glyph>
<glyph name="nine" format="1">
  <advance width="1156"/>
  <unicode hex="0039"/>
  <outline>
    <contour>
      <point x="227" y="1002" type="qcurve" smooth="yes"/>
      <point x="227" y="799"/>
      <point x="403" y="549"/>
      <point x="549" y="549" type="qcurve" smooth="yes"/>
      <point x="691" y="549"/>
      <point x="887" y="804"/>
      <point x="887" y="1002" type="qcurve"/>
      <point x="848" y="1002" type="line"/>
      <point x="848" y="841"/>
      <point x="674" y="619"/>
      <point x="561" y="619" type="qcurve" smooth="yes"/>
      <point x="441" y="619"/>
      <point x="299" y="823"/>
      <point x="299" y="1002" type="qcurve" smooth="yes"/>
      <point x="299" y="1194"/>
      <point x="441" y="1416"/>
      <point x="561" y="1416" type="qcurve" smooth="yes"/>
      <point x="682" y="1416"/>
      <point x="852" y="1155"/>
      <point x="852" y="852" type="qcurve" smooth="yes"/>
      <point x="852" y="802" type="line" smooth="yes"/>
      <point x="852" y="441"/>
      <point x="594" y="40"/>
      <point x="385" y="40" type="qcurve" smooth="yes"/>
      <point x="367" y="40" type="line"/>
      <point x="367" y="-30" type="line"/>
      <point x="385" y="-30" type="line" smooth="yes"/>
      <point x="637" y="-30"/>
      <point x="923" y="428"/>
      <point x="923" y="812" type="qcurve" smooth="yes"/>
      <point x="923" y="842" type="line" smooth="yes"/>
      <point x="923" y="1182"/>
      <point x="710" y="1486"/>
      <point x="561" y="1486" type="qcurve" smooth="yes"/>
      <point x="414" y="1486"/>
      <point x="227" y="1218"/>
    </contour>
  </outline>
</glyph>
<glyph name="colon" format="1">
  <advance width="378"/>
  <unicode hex="003A"/>
  <outline>
    <contour>
      <point x="136" y="55" type="qcurve" smooth="yes"/>
      <point x="136" y="23"/>
      <point x="164" y="-22"/>
      <point x="189" y="-22" type="qcurve" smooth="yes"/>
      <point x="215" y="-22"/>
      <point x="242" y="23"/>
      <point x="242" y="55" type="qcurve" smooth="yes"/>
      <point x="242" y="87"/>
      <point x="215" y="132"/>
      <point x="189" y="132" type="qcurve" smooth="yes"/>
      <point x="164" y="132"/>
      <point x="136" y="87"/>
    </contour>
    <contour>
      <point x="136" y="1007" type="qcurve" smooth="yes"/>
      <point x="136" y="975"/>
      <point x="164" y="930"/>
      <point x="189" y="930" type="qcurve" smooth="yes"/>
      <point x="215" y="930"/>
      <point x="242" y="975"/>
      <point x="242" y="1007" type="qcurve" smooth="yes"/>
      <point x="242" y="1039"/>
      <point x="215" y="1084"/>
      <point x="189" y="1084" type="qcurve" smooth="yes"/>
      <point x="164" y="1084"/>
      <point x="136" y="1039"/>
    </contour>
  </outline>
</glyph>
<glyph name="semicolon" format="1">
  <advance width="378"/>
  <unicode hex="003B"/>
  <outline>
    <contour>
      <point x="119" y="-151" type="qcurve"/>
      <point x="168" y="-186" type="line"/>
      <point x="203" y="-140"/>
      <point x="242" y="-27"/>
      <point x="242" y="47" type="qcurve" smooth="yes"/>
      <point x="242" y="145" type="line"/>
      <point x="166" y="145" type="line"/>
      <point x="166" y="47" type="line" smooth="yes"/>
      <point x="166" y="-16"/>
      <point x="142" y="-107"/>
    </contour>
    <contour>
      <point x="135" y="1000" type="qcurve" smooth="yes"/>
      <point x="135" y="967"/>
      <point x="164" y="920"/>
      <point x="189" y="920" type="qcurve" smooth="yes"/>
      <point x="215" y="920"/>
      <point x="243" y="967"/>
      <point x="243" y="1000" type="qcurve" smooth="yes"/>
      <point x="243" y="1033"/>
      <point x="215" y="1080"/>
      <point x="189" y="1080" type="qcurve" smooth="yes"/>
      <point x="164" y="1080"/>
      <point x="135" y="1033"/>
    </contour>
  </outline>
</glyph>
<glyph name="equal" format="1">
  <advance width="1015"/>
  <unicode hex="003D"/>
  <outline>
    <contour>
      <point x="158" y="446" type="line"/>
      <point x="856" y="446" type="line"/>
      <point x="856" y="512" type="line"/>
      <point x="158" y="512" type="line"/>
    </contour>
    <contour>
      <point x="158" y="836" type="line"/>
      <point x="856" y="836" type="line"/>
      <point x="856" y="902" type="line"/>
      <point x="158" y="902" type="line"/>
    </contour>
  </outline>
</glyph>
<glyph name="question" format="1">
  <advance width="608.0"/>
  <unicode hex="003F"/>
  <outline>
    <contour>
      <point x="208" y="57" type="qcurve" smooth="yes"/>
      <point x="208" y="24"/>
      <point x="236" y="-22"/>
      <point x="262" y="-22" type="qcurve" smooth="yes"/>
      <point x="287" y="-22"/>
      <point x="316" y="24"/>
      <point x="316" y="57" type="qcurve" smooth="yes"/>
      <point x="316" y="89"/>
      <point x="287" y="135"/>
      <point x="262" y="135" type="qcurve" smooth="yes"/>
      <point x="236" y="135"/>
      <point x="208" y="89"/>
    </contour>
    <contour>
      <point x="19" y="1101" type="line"/>
      <point x="80" y="1101" type="line"/>
      <point x="80" y="1119" type="line" smooth="yes"/>
      <point x="80" y="1256"/>
      <point x="189" y="1410"/>
      <point x="293" y="1410" type="qcurve" smooth="yes"/>
      <point x="397" y="1410"/>
      <point x="499" y="1258"/>
      <point x="499" y="1143" type="qcurve" smooth="yes"/>
      <point x="499" y="1027"/>
      <point x="429" y="870"/>
      <point x="362" y="778" type="qcurve" smooth="yes"/>
      <point x="294" y="687"/>
      <point x="227" y="531"/>
      <point x="227" y="417" type="qcurve" smooth="yes"/>
      <point x="227" y="407" type="line"/>
      <point x="289" y="407" type="line"/>
      <point x="289" y="417" type="line" smooth="yes"/>
      <point x="289" y="496"/>
      <point x="336" y="640"/>
      <point x="410" y="741" type="qcurve" smooth="yes"/>
      <point x="479" y="834"/>
      <point x="561" y="1006"/>
      <point x="561" y="1143" type="qcurve" smooth="yes"/>
      <point x="561" y="1284"/>
      <point x="419" y="1476"/>
      <point x="293" y="1476" type="qcurve" smooth="yes"/>
      <point x="166" y="1476"/>
      <point x="19" y="1279"/>
      <point x="19" y="1119" type="qcurve" smooth="yes"/>
    </contour>
  </outline>
</glyph>
<glyph name="at" format="1">
  <advance width="1664"/>
  <unicode hex="0040"/>
  <outline>
    <contour>
      <point x="532" y="400" type="qcurve" smooth="yes"/>
      <point x="532" y="220"/>
      <point x="642" y="0"/>
      <point x="737" y="0" type="qcurve" smooth="yes"/>
      <point x="803" y="0"/>
      <point x="914" y="101"/>
      <point x="944" y="188" type="qcurve"/>
      <point x="973" y="101"/>
      <point x="1109" y="0"/>
      <point x="1207" y="0" type="qcurve" smooth="yes"/>
      <point x="1365" y="0"/>
      <point x="1581" y="360"/>
      <point x="1581" y="650" type="qcurve" smooth="yes"/>
      <point x="1581" y="1000"/>
      <point x="1196" y="1486"/>
      <point x="873" y="1486" type="qcurve" smooth="yes"/>
      <point x="545" y="1486"/>
      <point x="82" y="880"/>
      <point x="82" y="460" type="qcurve" smooth="yes"/>
      <point x="82" y="40"/>
      <point x="491" y="-446"/>
      <point x="782" y="-446" type="qcurve" smooth="yes"/>
      <point x="908" y="-446"/>
      <point x="1080" y="-400"/>
      <point x="1144" y="-356" type="qcurve"/>
      <point x="1144" y="-290" type="line"/>
      <point x="1084" y="-326"/>
      <point x="908" y="-380"/>
      <point x="782" y="-380" type="qcurve" smooth="yes"/>
      <point x="510" y="-380"/>
      <point x="144" y="56"/>
      <point x="144" y="460" type="qcurve" smooth="yes"/>
      <point x="144" y="857"/>
      <point x="563" y="1420"/>
      <point x="873" y="1420" type="qcurve" smooth="yes"/>
      <point x="1181" y="1420"/>
      <point x="1523" y="956"/>
      <point x="1523" y="650" type="qcurve" smooth="yes"/>
      <point x="1523" y="388"/>
      <point x="1344" y="64"/>
      <point x="1201" y="64" type="qcurve" smooth="yes"/>
      <point x="1101" y="64"/>
      <point x="982" y="188"/>
      <point x="1011" y="350" type="qcurve" smooth="yes"/>
      <point x="1119" y="946" type="line"/>
      <point x="1105" y="946" type="line"/>
      <point x="1076" y="979"/>
      <point x="963" y="1052"/>
      <point x="899" y="1052" type="qcurve" smooth="yes"/>
      <point x="749" y="1052"/>
      <point x="532" y="680"/>
    </contour>
    <contour>
      <point x="597" y="400" type="qcurve" smooth="yes"/>
      <point x="597" y="654"/>
      <point x="776" y="989"/>
      <point x="913" y="989" type="qcurve" smooth="yes"/>
      <point x="951" y="989"/>
      <point x="1028" y="956"/>
      <point x="1054" y="932" type="qcurve"/>
      <point x="951" y="386" type="line" smooth="yes"/>
      <point x="919" y="211"/>
      <point x="821" y="68"/>
      <point x="755" y="68" type="qcurve" smooth="yes"/>
      <point x="679" y="68"/>
      <point x="597" y="237"/>
    </contour>
  </outline>
</glyph>
<glyph name="A" format="1">
  <advance width="954"/>
  <unicode hex="0041"/>
  <outline>
    <contour>
      <point x="-13" y="0" type="line"/>
      <point x="44" y="0" type="line"/>
      <point x="429" y="1270" type="line" smooth="yes"/>
      <point x="440" y="1307"/>
      <point x="463" y="1376"/>
      <point x="472" y="1413" type="qcurve"/>
      <point x="482" y="1413" type="line"/>
      <point x="490" y="1376"/>
      <point x="510" y="1307"/>
      <point x="521" y="1270" type="qcurve" smooth="yes"/>
      <point x="907" y="0" type="line"/>
      <point x="967" y="0" type="line"/>
      <point x="509" y="1467" type="line"/>
      <point x="445" y="1467" type="line"/>
    </contour>
    <contour>
      <point x="155" y="435" type="line"/>
      <point x="807" y="435" type="line"/>
      <point x="785" y="485" type="line"/>
      <point x="178" y="485" type="line"/>
    </contour>
  </outline>
</glyph>
<glyph name="B" format="1">
  <advance width="889"/>
  <unicode hex="0042"/>
  <outline>
    <contour>
      <point x="128" y="0" type="line"/>
      <point x="493" y="0" type="line" smooth="yes"/>
      <point x="643" y="0"/>
      <point x="819" y="208"/>
      <point x="819" y="398" type="qcurve" smooth="yes"/>
      <point x="819" y="546"/>
      <point x="704" y="732"/>
      <point x="613" y="761" type="qcurve"/>
      <point x="613" y="765" type="line"/>
      <point x="686" y="794"/>
      <point x="784" y="960"/>
      <point x="784" y="1089" type="qcurve" smooth="yes"/>
      <point x="784" y="1278"/>
      <point x="616" y="1456"/>
      <point x="467" y="1456" type="qcurve" smooth="yes"/>
      <point x="128" y="1456" type="line"/>
    </contour>
    <contour>
      <point x="182" y="50" type="line"/>
      <point x="182" y="734" type="line"/>
      <point x="493" y="734" type="line" smooth="yes"/>
      <point x="633" y="734"/>
      <point x="764" y="550"/>
      <point x="764" y="396" type="qcurve" smooth="yes"/>
      <point x="764" y="237"/>
      <point x="633" y="50"/>
      <point x="493" y="50" type="qcurve" smooth="yes"/>
    </contour>
    <contour>
      <point x="182" y="783" type="line"/>
      <point x="182" y="1406" type="line"/>
      <point x="467" y="1406" type="line" smooth="yes"/>
      <point x="607" y="1406"/>
      <point x="729" y="1242"/>
      <point x="729" y="1091" type="qcurve" smooth="yes"/>
      <point x="729" y="947"/>
      <point x="607" y="783"/>
      <point x="467" y="783" type="qcurve" smooth="yes"/>
    </contour>
  </outline>
</glyph>
<glyph name="C" format="1">
  <advance width="948"/>
  <unicode hex="0043"/>
  <outline>
    <contour>
      <point x="83" y="688" type="line" smooth="yes"/>
      <point x="83" y="351"/>
      <point x="335" y="-30"/>
      <point x="525" y="-30" type="qcurve" smooth="yes"/>
      <point x="711" y="-30"/>
      <point x="902" y="255"/>
      <point x="922" y="452" type="qcurve" smooth="yes"/>
      <point x="922" y="462" type="line"/>
      <point x="869" y="462" type="line"/>
      <point x="868" y="452" type="line" smooth="yes"/>
      <point x="853" y="294"/>
      <point x="695" y="21"/>
      <point x="524" y="21" type="qcurve" smooth="yes"/>
      <point x="355" y="21"/>
      <point x="138" y="377"/>
      <point x="138" y="688" type="qcurve" smooth="yes"/>
      <point x="138" y="768" type="line" smooth="yes"/>
      <point x="138" y="1079"/>
      <point x="355" y="1435"/>
      <point x="524" y="1435" type="qcurve" smooth="yes"/>
      <point x="695" y="1435"/>
      <point x="853" y="1162"/>
      <point x="868" y="1004" type="qcurve" smooth="yes"/>
      <point x="869" y="994" type="line"/>
      <point x="922" y="994" type="line"/>
      <point x="922" y="1004" type="line" smooth="yes"/>
      <point x="902" y="1201"/>
      <point x="711" y="1486"/>
      <point x="525" y="1486" type="qcurve" smooth="yes"/>
      <point x="335" y="1486"/>
      <point x="83" y="1105"/>
      <point x="83" y="768" type="qcurve" smooth="yes"/>
    </contour>
  </outline>
</glyph>
<glyph name="D" format="1">
  <advance width="984"/>
  <unicode hex="0044"/>
  <outline>
    <contour>
      <point x="131" y="0" type="line"/>
      <point x="422" y="0" type="line" smooth="yes"/>
      <point x="634" y="0"/>
      <point x="901" y="370"/>
      <point x="901" y="688" type="qcurve" smooth="yes"/>
      <point x="901" y="768" type="line" smooth="yes"/>
      <point x="901" y="1086"/>
      <point x="634" y="1456"/>
      <point x="422" y="1456" type="qcurve" smooth="yes"/>
      <point x="131" y="1456" type="line"/>
    </contour>
    <contour>
      <point x="185" y="56" type="line"/>
      <point x="185" y="1400" type="line"/>
      <point x="422" y="1400" type="line" smooth="yes"/>
      <point x="616" y="1400"/>
      <point x="846" y="1065"/>
      <point x="846" y="768" type="qcurve" smooth="yes"/>
      <point x="846" y="688" type="line" smooth="yes"/>
      <point x="846" y="391"/>
      <point x="616" y="56"/>
      <point x="422" y="56" type="qcurve" smooth="yes"/>
    </contour>
  </outline>
</glyph>
<glyph name="E" format="1">
  <advance width="821"/>
  <unicode hex="0045"/>
  <outline>
    <contour>
      <point x="131" y="0" type="line"/>
      <point x="778" y="0" type="line"/>
      <point x="778" y="50" type="line"/>
      <point x="185" y="50" type="line"/>
      <point x="185" y="732" type="line"/>
      <point x="687" y="732" type="line"/>
      <point x="687" y="782" type="line"/>
      <point x="185" y="782" type="line"/>
      <point x="185" y="1406" type="line"/>
      <point x="769" y="1406" type="line"/>
      <point x="769" y="1456" type="line"/>
      <point x="131" y="1456" type="line"/>
    </contour>
  </outline>
</glyph>
<glyph name="G" format="1">
  <advance width="986"/>
  <unicode hex="0047"/>
  <outline>
    <contour>
      <point x="83" y="688" type="line" smooth="yes"/>
      <point x="83" y="349"/>
      <point x="340" y="-30"/>
      <point x="557" y="-30" type="qcurve" smooth="yes"/>
      <point x="689" y="-30"/>
      <point x="870" y="74"/>
      <point x="925" y="142" type="qcurve"/>
      <point x="925" y="677" type="line"/>
      <point x="540" y="677" type="line"/>
      <point x="540" y="627" type="line"/>
      <point x="876" y="627" type="line"/>
      <point x="876" y="156" type="line"/>
      <point x="809" y="88"/>
      <point x="659" y="21"/>
      <point x="557" y="21" type="qcurve" smooth="yes"/>
      <point x="358" y="21"/>
      <point x="138" y="376"/>
      <point x="138" y="688" type="qcurve" smooth="yes"/>
      <point x="138" y="768" type="line" smooth="yes"/>
      <point x="138" y="1080"/>
      <point x="357" y="1435"/>
      <point x="530" y="1435" type="qcurve" smooth="yes"/>
      <point x="698" y="1435"/>
      <point x="859" y="1181"/>
      <point x="871" y="1042" type="qcurve" smooth="yes"/>
      <point x="872" y="1032" type="line"/>
      <point x="925" y="1032" type="line"/>
      <point x="925" y="1042" type="line" smooth="yes"/>
      <point x="908" y="1221"/>
      <point x="714" y="1486"/>
      <point x="530" y="1486" type="qcurve" smooth="yes"/>
      <point x="338" y="1486"/>
      <point x="83" y="1107"/>
      <point x="83" y="768" type="qcurve" smooth="yes"/>
    </contour>
  </outline>
</glyph>
<glyph name="H" format="1">
  <advance width="1063"/>
  <unicode hex="0048"/>
  <outline>
    <contour>
      <point x="131" y="0" type="line"/>
      <point x="185" y="0" type="line"/>
      <point x="185" y="732" type="line"/>
      <point x="879" y="732" type="line"/>
      <point x="879" y="0" type="line"/>
      <point x="933" y="0" type="line"/>
      <point x="933" y="1456" type="line"/>
      <point x="879" y="1456" type="line"/>
      <point x="879" y="782" type="line"/>
      <point x="185" y="782" type="line"/>
      <point x="185" y="1456" type="line"/>
      <point x="131" y="1456" type="line"/>
    </contour>
  </outline>
</glyph>
<glyph name="I" format="1">
  <advance width="325"/>
  <unicode hex="0049"/>
  <outline>
    <contour>
      <point x="135" y="0" type="line"/>
      <point x="189" y="0" type="line"/>
      <point x="189" y="1456" type="line"/>
      <point x="135" y="1456" type="line"/>
    </contour>
  </outline>
</glyph>
<glyph name="J" format="1">
  <advance width="745"/>
  <unicode hex="004A"/>
  <outline>
    <contour>
      <point x="5" y="401" type="line" smooth="yes"/>
      <point x="5" y="200"/>
      <point x="177" y="-30"/>
      <point x="316" y="-30" type="qcurve" smooth="yes"/>
      <point x="454" y="-30"/>
      <point x="626" y="215"/>
      <point x="626" y="426" type="qcurve" smooth="yes"/>
      <point x="626" y="1456" type="line"/>
      <point x="572" y="1456" type="line"/>
      <point x="572" y="426" type="line" smooth="yes"/>
      <point x="572" y="231"/>
      <point x="435" y="21"/>
      <point x="316" y="21" type="qcurve" smooth="yes"/>
      <point x="197" y="21"/>
      <point x="60" y="215"/>
      <point x="60" y="401" type="qcurve" smooth="yes"/>
      <point x="60" y="411" type="line"/>
      <point x="5" y="411" type="line"/>
    </contour>
  </outline>
</glyph>
<glyph name="K" format="1">
  <advance width="924"/>
  <unicode hex="004B"/>
  <outline>
    <contour>
      <point x="150" y="0" type="line"/>
      <point x="222" y="0" type="line"/>
      <point x="222" y="593" type="line"/>
      <point x="934" y="1456" type="line"/>
      <point x="849" y="1456" type="line"/>
      <point x="222" y="690" type="line"/>
      <point x="222" y="1456" type="line"/>
      <point x="150" y="1456" type="line"/>
    </contour>
    <contour>
      <point x="880" y="0" type="line"/>
      <point x="963" y="0" type="line"/>
      <point x="380" y="842" type="line"/>
      <point x="347" y="770" type="line"/>
    </contour>
  </outline>
</glyph>
<glyph name="M" format="1">
  <advance width="1365"/>
  <unicode hex="004D"/>
  <outline>
    <contour>
      <point x="131" y="0" type="line"/>
      <point x="181" y="0" type="line"/>
      <point x="181" y="1223" type="line" smooth="yes"/>
      <point x="181" y="1252"/>
      <point x="176" y="1325"/>
      <point x="173" y="1355" type="qcurve"/>
      <point x="183" y="1355" type="line"/>
      <point x="188" y="1325"/>
      <point x="211" y="1252"/>
      <point x="221" y="1223" type="qcurve" smooth="yes"/>
      <point x="654" y="0" type="line"/>
      <point x="708" y="0" type="line"/>
      <point x="1142" y="1223" type="line" smooth="yes"/>
      <point x="1152" y="1252"/>
      <point x="1175" y="1325"/>
      <point x="1181" y="1355" type="qcurve"/>
      <point x="1190" y="1355" type="line"/>
      <point x="1187" y="1325"/>
      <point x="1182" y="1252"/>
      <point x="1182" y="1223" type="qcurve" smooth="yes"/>
      <point x="1182" y="0" type="line"/>
      <point x="1235" y="0" type="line"/>
      <point x="1235" y="1456" type="line"/>
      <point x="1176" y="1456" type="line"/>
      <point x="725" y="187" type="line" smooth="yes"/>
      <point x="714" y="156"/>
      <point x="696" y="93"/>
      <point x="688" y="65" type="qcurve"/>
      <point x="681" y="65" type="line"/>
      <point x="674" y="93"/>
      <point x="650" y="156"/>
      <point x="639" y="187" type="qcurve" smooth="yes"/>
      <point x="190" y="1456" type="line"/>
      <point x="131" y="1456" type="line"/>
    </contour>
  </outline>
</glyph>
<glyph name="N" format="1">
  <advance width="1049"/>
  <unicode hex="004E"/>
  <outline>
    <contour>
      <point x="131" y="0" type="line"/>
      <point x="183" y="0" type="line"/>
      <point x="183" y="1198" type="line" smooth="yes"/>
      <point x="183" y="1232"/>
      <point x="181" y="1309"/>
      <point x="176" y="1355" type="qcurve"/>
      <point x="189" y="1355" type="line"/>
      <point x="204" y="1326"/>
      <point x="239" y="1256"/>
      <point x="257" y="1218" type="qcurve" smooth="yes"/>
      <point x="854" y="0" type="line"/>
      <point x="919" y="0" type="line"/>
      <point x="919" y="1456" type="line"/>
      <point x="867" y="1456" type="line"/>
      <point x="867" y="258" type="line" smooth="yes"/>
      <point x="867" y="229"/>
      <point x="868" y="130"/>
      <point x="872" y="101" type="qcurve"/>
      <point x="858" y="101" type="line"/>
      <point x="846" y="125"/>
      <point x="808" y="205"/>
      <point x="792" y="238" type="qcurve" smooth="yes"/>
      <point x="196" y="1456" type="line"/>
      <point x="131" y="1456" type="line"/>
    </contour>
  </outline>
</glyph>
<glyph name="O" format="1">
  <advance width="1060"/>
  <unicode hex="004F"/>
  <outline>
    <contour>
      <point x="82" y="688" type="line" smooth="yes"/>
      <point x="82" y="349"/>
      <point x="333" y="-30"/>
      <point x="529" y="-30" type="qcurve" smooth="yes"/>
      <point x="726" y="-30"/>
      <point x="977" y="349"/>
      <point x="977" y="688" type="qcurve" smooth="yes"/>
      <point x="977" y="768" type="line" smooth="yes"/>
      <point x="977" y="1107"/>
      <point x="726" y="1486"/>
      <point x="529" y="1486" type="qcurve" smooth="yes"/>
      <point x="333" y="1486"/>
      <point x="82" y="1107"/>
      <point x="82" y="768" type="qcurve" smooth="yes"/>
    </contour>
    <contour>
      <point x="137" y="688" type="qcurve" smooth="yes"/>
      <point x="137" y="768" type="line" smooth="yes"/>
      <point x="137" y="1085"/>
      <point x="353" y="1435"/>
      <point x="529" y="1435" type="qcurve" smooth="yes"/>
      <point x="705" y="1435"/>
      <point x="922" y="1085"/>
      <point x="922" y="768" type="qcurve" smooth="yes"/>
      <point x="922" y="688" type="line" smooth="yes"/>
      <point x="922" y="371"/>
      <point x="705" y="21"/>
      <point x="529" y="21" type="qcurve" smooth="yes"/>
      <point x="353" y="21"/>
      <point x="137" y="371"/>
    </contour>
  </outline>
</glyph>
<glyph name="P" format="1">
  <advance width="870"/>
  <unicode hex="0050"/>
  <outline>
    <contour>
      <point x="150" y="0" type="line"/>
      <point x="222" y="0" type="line"/>
      <point x="222" y="606" type="line"/>
      <point x="471" y="606" type="line" smooth="yes"/>
      <point x="646" y="606"/>
      <point x="814" y="845"/>
      <point x="814" y="1032" type="qcurve" smooth="yes"/>
      <point x="814" y="1218"/>
      <point x="646" y="1456"/>
      <point x="471" y="1456" type="qcurve" smooth="yes"/>
      <point x="150" y="1456" type="line"/>
    </contour>
    <contour>
      <point x="222" y="677" type="line"/>
      <point x="222" y="1386" type="line"/>
      <point x="471" y="1386" type="line" smooth="yes"/>
      <point x="621" y="1386"/>
      <point x="741" y="1184"/>
      <point x="741" y="1032" type="qcurve" smooth="yes"/>
      <point x="741" y="881"/>
      <point x="621" y="677"/>
      <point x="471" y="677" type="qcurve" smooth="yes"/>
    </contour>
  </outline>
</glyph>
<glyph name="Q" format="1">
  <advance width="1069"/>
  <unicode hex="0051"/>
  <outline>
    <contour>
      <point x="83" y="688" type="line" smooth="yes"/>
      <point x="83" y="349"/>
      <point x="335" y="-30"/>
      <point x="535" y="-30" type="qcurve" smooth="yes"/>
      <point x="732" y="-30"/>
      <point x="985" y="349"/>
      <point x="985" y="688" type="qcurve" smooth="yes"/>
      <point x="985" y="768" type="line" smooth="yes"/>
      <point x="985" y="1107"/>
      <point x="732" y="1486"/>
      <point x="535" y="1486" type="qcurve" smooth="yes"/>
      <point x="335" y="1486"/>
      <point x="83" y="1107"/>
      <point x="83" y="768" type="qcurve" smooth="yes"/>
    </contour>
    <contour>
      <point x="138" y="688" type="qcurve" smooth="yes"/>
      <point x="138" y="768" type="line" smooth="yes"/>
      <point x="138" y="1085"/>
      <point x="357" y="1435"/>
      <point x="535" y="1435" type="qcurve" smooth="yes"/>
      <point x="711" y="1435"/>
      <point x="931" y="1085"/>
      <point x="931" y="768" type="qcurve" smooth="yes"/>
      <point x="931" y="688" type="line" smooth="yes"/>
      <point x="931" y="371"/>
      <point x="711" y="21"/>
      <point x="535" y="21" type="qcurve" smooth="yes"/>
      <point x="357" y="21"/>
      <point x="138" y="371"/>
    </contour>
    <contour>
      <point x="987" y="-212" type="line"/>
      <point x="1024" y="-173" type="line"/>
      <point x="580" y="287" type="line"/>
      <point x="543" y="249" type="line"/>
    </contour>
  </outline>
</glyph>
<glyph name="R" format="1">
  <advance width="870"/>
  <unicode hex="0052"/>
  <outline>
    <contour>
      <point x="131" y="0" type="line"/>
      <point x="185" y="0" type="line"/>
      <point x="185" y="646" type="line"/>
      <point x="460" y="646" type="line" smooth="yes"/>
      <point x="626" y="646"/>
      <point x="792" y="872"/>
      <point x="792" y="1052" type="qcurve" smooth="yes"/>
      <point x="792" y="1232"/>
      <point x="626" y="1456"/>
      <point x="460" y="1456" type="qcurve" smooth="yes"/>
      <point x="131" y="1456" type="line"/>
    </contour>
    <contour>
      <point x="185" y="696" type="line"/>
      <point x="185" y="1406" type="line"/>
      <point x="460" y="1406" type="line" smooth="yes"/>
      <point x="617" y="1406"/>
      <point x="738" y="1203"/>
      <point x="738" y="1052" type="qcurve" smooth="yes"/>
      <point x="738" y="901"/>
      <point x="617" y="696"/>
      <point x="460" y="696" type="qcurve" smooth="yes"/>
    </contour>
    <contour>
      <point x="790" y="0" type="line"/>
      <point x="855" y="0" type="line"/>
      <point x="527" y="672" type="line"/>
      <point x="468" y="672" type="line"/>
    </contour>
  </outline>
</glyph>
<glyph name="S" format="1">
  <advance width="856"/>
  <unicode hex="0053"/>
  <outline>
    <contour>
      <point x="62" y="388" type="line" smooth="yes"/>
      <point x="62" y="195"/>
      <point x="266" y="-30"/>
      <point x="436" y="-30" type="qcurve" smooth="yes"/>
      <point x="606" y="-30"/>
      <point x="804" y="188"/>
      <point x="804" y="358" type="qcurve" smooth="yes"/>
      <point x="804" y="514"/>
      <point x="655" y="697"/>
      <point x="467" y="766" type="qcurve" smooth="yes"/>
      <point x="278" y="835"/>
      <point x="141" y="992"/>
      <point x="141" y="1107" type="qcurve" smooth="yes"/>
      <point x="141" y="1249"/>
      <point x="282" y="1435"/>
      <point x="428" y="1435" type="qcurve" smooth="yes"/>
      <point x="574" y="1435"/>
      <point x="723" y="1227"/>
      <point x="723" y="1074" type="qcurve" smooth="yes"/>
      <point x="723" y="1064" type="line"/>
      <point x="777" y="1064" type="line"/>
      <point x="777" y="1074" type="line" smooth="yes"/>
      <point x="777" y="1246"/>
      <point x="588" y="1486"/>
      <point x="428" y="1486" type="qcurve" smooth="yes"/>
      <point x="268" y="1486"/>
      <point x="87" y="1272"/>
      <point x="87" y="1112" type="qcurve" smooth="yes"/>
      <point x="87" y="963"/>
      <point x="245" y="786"/>
      <point x="433" y="718" type="qcurve" smooth="yes"/>
      <point x="624" y="647"/>
      <point x="750" y="486"/>
      <point x="750" y="363" type="qcurve" smooth="yes"/>
      <point x="750" y="219"/>
      <point x="588" y="21"/>
      <point x="436" y="21" type="qcurve" smooth="yes"/>
      <point x="284" y="21"/>
      <point x="116" y="213"/>
      <point x="116" y="388" type="qcurve" smooth="yes"/>
      <point x="116" y="398" type="line"/>
      <point x="62" y="398" type="line"/>
    </contour>
  </outline>
</glyph>
<glyph name="T" format="1">
  <advance width="841"/>
  <unicode hex="0054"/>
  <outline>
    <contour>
      <point x="4" y="1386" type="line"/>
      <point x="385" y="1386" type="line"/>
      <point x="385" y="0" type="line"/>
      <point x="455" y="0" type="line"/>
      <point x="455" y="1386" type="line"/>
      <point x="837" y="1386" type="line"/>
      <point x="837" y="1456" type="line"/>
      <point x="4" y="1456" type="line"/>
    </contour>
  </outline>
</glyph>
<glyph name="U" format="1">
  <advance width="979"/>
  <unicode hex="0055"/>
  <outline>
    <contour>
      <point x="118" y="470" type="line" smooth="yes"/>
      <point x="118" y="220"/>
      <point x="332" y="-30"/>
      <point x="490" y="-30" type="qcurve" smooth="yes"/>
      <point x="647" y="-30"/>
      <point x="862" y="220"/>
      <point x="862" y="470" type="qcurve" smooth="yes"/>
      <point x="862" y="1456" type="line"/>
      <point x="808" y="1456" type="line"/>
      <point x="808" y="470" type="line" smooth="yes"/>
      <point x="808" y="242"/>
      <point x="628" y="21"/>
      <point x="490" y="21" type="qcurve" smooth="yes"/>
      <point x="352" y="21"/>
      <point x="172" y="243"/>
      <point x="172" y="470" type="qcurve" smooth="yes"/>
      <point x="172" y="1456" type="line"/>
      <point x="118" y="1456" type="line"/>
    </contour>
  </outline>
</glyph>
<glyph name="V" format="1">
  <advance width="924"/>
  <unicode hex="0056"/>
  <outline>
    <contour>
      <point x="-18" y="1456" type="line"/>
      <point x="431" y="-11" type="line"/>
      <point x="489" y="-11" type="line"/>
      <point x="942" y="1456" type="line"/>
      <point x="887" y="1456" type="line"/>
      <point x="511" y="204" type="line" smooth="yes"/>
      <point x="500" y="167"/>
      <point x="477" y="97"/>
      <point x="469" y="61" type="qcurve"/>
      <point x="455" y="61" type="line"/>
      <point x="448" y="97"/>
      <point x="425" y="166"/>
      <point x="414" y="204" type="qcurve" smooth="yes"/>
      <point x="41" y="1456" type="line"/>
    </contour>
  </outline>
</glyph>
<glyph name="W" format="1">
  <advance width="1428"/>
  <unicode hex="0057"/>
  <outline>
    <contour>
      <point x="349" y="-11" type="line"/>
      <point x="395" y="-11" type="line"/>
      <point x="692" y="1249" type="line" smooth="yes"/>
      <point x="700" y="1283"/>
      <point x="713" y="1342"/>
      <point x="716" y="1374" type="qcurve"/>
      <point x="720" y="1374" type="line"/>
      <point x="722" y="1342"/>
      <point x="732" y="1282"/>
      <point x="740" y="1249" type="qcurve" smooth="yes"/>
      <point x="1035" y="-11" type="line"/>
      <point x="1081" y="-11" type="line"/>
      <point x="1398" y="1456" type="line"/>
      <point x="1348" y="1456" type="line"/>
      <point x="1082" y="203" type="line" smooth="yes"/>
      <point x="1074" y="169"/>
      <point x="1065" y="111"/>
      <point x="1062" y="78" type="qcurve"/>
      <point x="1057" y="78" type="line"/>
      <point x="1055" y="112"/>
      <point x="1042" y="168"/>
      <point x="1034" y="203" type="qcurve" smooth="yes"/>
      <point x="745" y="1456" type="line"/>
      <point x="691" y="1456" type="line"/>
      <point x="401" y="203" type="line" smooth="yes"/>
      <point x="393" y="169"/>
      <point x="383" y="111"/>
      <point x="380" y="78" type="qcurve"/>
      <point x="375" y="78" type="line"/>
      <point x="371" y="112"/>
      <point x="360" y="168"/>
      <point x="352" y="203" type="qcurve" smooth="yes"/>
      <point x="87" y="1456" type="line"/>
      <point x="31" y="1456" type="line"/>
    </contour>
  </outline>
</glyph>
<glyph name="X" format="1">
  <advance width="962"/>
  <unicode hex="0058"/>
  <outline>
    <contour>
      <point x="6" y="0" type="line"/>
      <point x="68" y="0" type="line"/>
      <point x="491" y="714" type="line"/>
      <point x="493" y="714" type="line"/>
      <point x="934" y="1456" type="line"/>
      <point x="872" y="1456" type="line"/>
      <point x="464" y="762" type="line"/>
      <point x="462" y="762" type="line"/>
    </contour>
    <contour>
      <point x="29" y="1456" type="line"/>
      <point x="463" y="705" type="line"/>
      <point x="466" y="705" type="line"/>
      <point x="889" y="0" type="line"/>
      <point x="957" y="0" type="line"/>
      <point x="491" y="771" type="line"/>
      <point x="487" y="771" type="line"/>
      <point x="94" y="1456" type="line"/>
    </contour>
  </outline>
</glyph>
<glyph name="Y" format="1">
  <advance width="904"/>
  <unicode hex="0059"/>
  <outline>
    <contour>
      <point x="426" y="0" type="line"/>
      <point x="478" y="0" type="line"/>
      <point x="478" y="593" type="line"/>
      <point x="906" y="1456" type="line"/>
      <point x="848" y="1456" type="line"/>
      <point x="513" y="757" type="line" smooth="yes"/>
      <point x="498" y="727"/>
      <point x="471" y="665"/>
      <point x="457" y="635" type="qcurve"/>
      <point x="452" y="635" type="line"/>
      <point x="436" y="666"/>
      <point x="410" y="726"/>
      <point x="395" y="757" type="qcurve" smooth="yes"/>
      <point x="58" y="1456" type="line"/>
      <point x="-3" y="1456" type="line"/>
      <point x="426" y="593" type="line"/>
    </contour>
  </outline>
</glyph>
<glyph name="Z" format="1">
  <advance width="887"/>
  <unicode hex="005A"/>
  <outline>
    <contour>
      <point x="13" y="0" type="line"/>
      <point x="873" y="0" type="line"/>
      <point x="873" y="50" type="line"/>
      <point x="87" y="50" type="line"/>
      <point x="845" y="1421" type="line"/>
      <point x="845" y="1456" type="line"/>
      <point x="24" y="1456" type="line"/>
      <point x="24" y="1406" type="line"/>
      <point x="772" y="1406" type="line"/>
      <point x="13" y="35" type="line"/>
    </contour>
  </outline>
</glyph>
<glyph name="bracketright" format="1">
  <advance width="506"/>
  <unicode hex="005D"/>
  <outline>
    <contour>
      <point x="382" y="-310" type="line"/>
      <point x="382" y="1456" type="line"/>
      <point x="51" y="1456" type="line"/>
      <point x="51" y="1386" type="line"/>
      <point x="311" y="1386" type="line"/>
      <point x="311" y="-240" type="line"/>
      <point x="51" y="-240" type="line"/>
      <point x="51" y="-310" type="line"/>
    </contour>
  </outline>
</glyph>
<glyph name="asciicircum" format="1">
  <advance width="928"/>
  <unicode hex="005E"/>
  <outline>
    <contour>
      <point x="6" y="720" type="line"/>
      <point x="80" y="720" type="line"/>
      <point x="464" y="1384" type="line"/>
      <point x="848" y="720" type="line"/>
      <point x="922" y="720" type="line"/>
      <point x="487" y="1456" type="line"/>
      <point x="440" y="1456" type="line"/>
    </contour>
  </outline>
</glyph>
<glyph name="a" format="1">
  <advance width="656"/>
  <unicode hex="0061"/>
  <outline>
    <contour>
      <point x="51" y="242" type="qcurve" smooth="yes"/>
      <point x="51" y="113"/>
      <point x="172" y="-17"/>
      <point x="269" y="-17" type="qcurve" smooth="yes"/>
      <point x="364" y="-17"/>
      <point x="490" y="90"/>
      <point x="517" y="145" type="qcurve"/>
      <point x="520" y="105"/>
      <point x="537" y="24"/>
      <point x="550" y="0" type="qcurve"/>
      <point x="596" y="0" type="line"/>
      <point x="596" y="14" type="line"/>
      <point x="582" y="51"/>
      <point x="567" y="149"/>
      <point x="567" y="203" type="qcurve" smooth="yes"/>
      <point x="567" y="606" type="line" smooth="yes"/>
      <point x="567" y="759"/>
      <point x="447" y="913"/>
      <point x="338" y="913" type="qcurve" smooth="yes"/>
      <point x="224" y="913"/>
      <point x="101" y="761"/>
      <point x="101" y="655" type="qcurve" smooth="yes"/>
      <point x="101" y="651" type="line"/>
      <point x="149" y="651" type="line"/>
      <point x="149" y="655" type="line" smooth="yes"/>
      <point x="149" y="736"/>
      <point x="235" y="863"/>
      <point x="334" y="863" type="qcurve" smooth="yes"/>
      <point x="434" y="863"/>
      <point x="516" y="721"/>
      <point x="516" y="606" type="qcurve" smooth="yes"/>
      <point x="516" y="511" type="line"/>
      <point x="319" y="511" type="line" smooth="yes"/>
      <point x="202" y="511"/>
      <point x="51" y="365"/>
    </contour>
    <contour>
      <point x="102" y="243" type="qcurve" smooth="yes"/>
      <point x="102" y="342"/>
      <point x="220" y="461"/>
      <point x="334" y="461" type="qcurve" smooth="yes"/>
      <point x="516" y="461" type="line"/>
      <point x="516" y="284" type="line"/>
      <point x="516" y="192"/>
      <point x="370" y="33"/>
      <point x="281" y="33" type="qcurve" smooth="yes"/>
      <point x="188" y="33"/>
      <point x="102" y="143"/>
    </contour>
  </outline>
</glyph>
<glyph name="c" format="1">
  <advance width="599"/>
  <unicode hex="0063"/>
  <outline>
    <contour>
      <point x="45" y="432" type="line" smooth="yes"/>
      <point x="45" y="229"/>
      <point x="203" y="-26"/>
      <point x="341" y="-26" type="qcurve" smooth="yes"/>
      <point x="466" y="-26"/>
      <point x="593" y="163"/>
      <point x="593" y="282" type="qcurve" smooth="yes"/>
      <point x="593" y="288" type="line"/>
      <point x="545" y="288" type="line"/>
      <point x="545" y="282" type="line" smooth="yes"/>
      <point x="545" y="183"/>
      <point x="448" y="29"/>
      <point x="341" y="29" type="qcurve" smooth="yes"/>
      <point x="216" y="29"/>
      <point x="96" y="262"/>
      <point x="96" y="432" type="qcurve" smooth="yes"/>
      <point x="96" y="459" type="line" smooth="yes"/>
      <point x="96" y="627"/>
      <point x="216" y="860"/>
      <point x="341" y="860" type="qcurve" smooth="yes"/>
      <point x="448" y="860"/>
      <point x="545" y="706"/>
      <point x="545" y="606" type="qcurve" smooth="yes"/>
      <point x="545" y="603" type="line"/>
      <point x="593" y="603" type="line"/>
      <point x="593" y="606" type="line" smooth="yes"/>
      <point x="593" y="727"/>
      <point x="466" y="915"/>
      <point x="341" y="915" type="qcurve" smooth="yes"/>
      <point x="203" y="915"/>
      <point x="45" y="659"/>
      <point x="45" y="459" type="qcurve" smooth="yes"/>
    </contour>
  </outline>
</glyph>
<glyph name="d" format="1">
  <advance width="702"/>
  <unicode hex="0064"/>
  <outline>
    <contour>
      <point x="45" y="431" type="line" smooth="yes"/>
      <point x="45" y="236"/>
      <point x="192" y="-17"/>
      <point x="323" y="-17" type="qcurve" smooth="yes"/>
      <point x="404" y="-17"/>
      <point x="529" y="67"/>
      <point x="560" y="123" type="qcurve"/>
      <point x="561" y="123" type="line"/>
      <point x="564" y="0" type="line"/>
      <point x="608" y="0" type="line"/>
      <point x="608" y="1458" type="line"/>
      <point x="558" y="1458" type="line"/>
      <point x="558" y="776" type="line"/>
      <point x="520" y="832"/>
      <point x="404" y="904"/>
      <point x="323" y="904" type="qcurve" smooth="yes"/>
      <point x="192" y="904"/>
      <point x="45" y="651"/>
      <point x="45" y="458" type="qcurve" smooth="yes"/>
    </contour>
    <contour>
      <point x="96" y="431" type="qcurve" smooth="yes"/>
      <point x="96" y="458" type="line" smooth="yes"/>
      <point x="96" y="626"/>
      <point x="211" y="855"/>
      <point x="335" y="855" type="qcurve" smooth="yes"/>
      <point x="417" y="855"/>
      <point x="532" y="755"/>
      <point x="558" y="691" type="qcurve"/>
      <point x="558" y="196" type="line"/>
      <point x="532" y="133"/>
      <point x="417" y="32"/>
      <point x="335" y="32" type="qcurve" smooth="yes"/>
      <point x="211" y="32"/>
      <point x="96" y="262"/>
    </contour>
  </outline>
</glyph>
<glyph name="e" format="1">
  <advance width="616"/>
  <unicode hex="0065"/>
  <outline>
    <contour>
      <point x="45" y="431" type="line" smooth="yes"/>
      <point x="45" y="229"/>
      <point x="205" y="-26"/>
      <point x="357" y="-26" type="qcurve" smooth="yes"/>
      <point x="443" y="-26"/>
      <point x="559" y="59"/>
      <point x="593" y="111" type="qcurve"/>
      <point x="555" y="145" type="line"/>
      <point x="520" y="88"/>
      <point x="424" y="23"/>
      <point x="356" y="23" type="qcurve" smooth="yes"/>
      <point x="223" y="23"/>
      <point x="97" y="258"/>
      <point x="97" y="431" type="qcurve" smooth="yes"/>
      <point x="97" y="458" type="line" smooth="yes"/>
      <point x="97" y="629"/>
      <point x="217" y="863"/>
      <point x="332" y="863" type="qcurve" smooth="yes"/>
      <point x="448" y="863"/>
      <point x="545" y="653"/>
      <point x="545" y="512" type="qcurve"/>
      <point x="545" y="498" type="line"/>
      <point x="69" y="498" type="line"/>
      <point x="69" y="446" type="line"/>
      <point x="596" y="446" type="line"/>
      <point x="596" y="472" type="line" smooth="yes"/>
      <point x="596" y="675"/>
      <point x="459" y="913"/>
      <point x="332" y="913" type="qcurve" smooth="yes"/>
      <point x="203" y="913"/>
      <point x="45" y="658"/>
      <point x="45" y="458" type="qcurve" smooth="yes"/>
    </contour>
  </outline>
</glyph>
<glyph name="g" format="1">
  <advance width="702"/>
  <unicode hex="0067"/>
  <outline>
    <contour>
      <point x="73" y="-274" type="line"/>
      <point x="118" y="-317"/>
      <point x="246" y="-370"/>
      <point x="323" y="-370" type="qcurve" smooth="yes"/>
      <point x="450" y="-370"/>
      <point x="608" y="-172"/>
      <point x="608" y="11" type="qcurve" smooth="yes"/>
      <point x="608" y="887" type="line"/>
      <point x="563" y="887" type="line"/>
      <point x="561" y="765" type="line"/>
      <point x="559" y="765" type="line"/>
      <point x="528" y="820"/>
      <point x="404" y="904"/>
      <point x="323" y="904" type="qcurve" smooth="yes"/>
      <point x="192" y="904"/>
      <point x="45" y="651"/>
      <point x="45" y="458" type="qcurve" smooth="yes"/>
      <point x="45" y="431" type="line" smooth="yes"/>
      <point x="45" y="236"/>
      <point x="192" y="-17"/>
      <point x="323" y="-17" type="qcurve" smooth="yes"/>
      <point x="404" y="-17"/>
      <point x="520" y="56"/>
      <point x="558" y="111" type="qcurve"/>
      <point x="558" y="11" type="line" smooth="yes"/>
      <point x="558" y="-145"/>
      <point x="430" y="-317"/>
      <point x="319" y="-317" type="qcurve" smooth="yes"/>
      <point x="254" y="-317"/>
      <point x="140" y="-266"/>
      <point x="109" y="-229" type="qcurve"/>
    </contour>
    <contour>
      <point x="97" y="431" type="qcurve" smooth="yes"/>
      <point x="97" y="458" type="line" smooth="yes"/>
      <point x="97" y="626"/>
      <point x="212" y="855"/>
      <point x="335" y="855" type="qcurve" smooth="yes"/>
      <point x="417" y="855"/>
      <point x="532" y="755"/>
      <point x="558" y="691" type="qcurve"/>
      <point x="558" y="196" type="line"/>
      <point x="532" y="133"/>
      <point x="417" y="32"/>
      <point x="335" y="32" type="qcurve" smooth="yes"/>
      <point x="212" y="32"/>
      <point x="97" y="262"/>
    </contour>
  </outline>
</glyph>
<glyph name="h" format="1">
  <advance width="677"/>
  <unicode hex="0068"/>
  <outline>
    <contour>
      <point x="94" y="0" type="line"/>
      <point x="144" y="0" type="line"/>
      <point x="144" y="691" type="line"/>
      <point x="177" y="762"/>
      <point x="287" y="854"/>
      <point x="360" y="854" type="qcurve" smooth="yes"/>
      <point x="447" y="854"/>
      <point x="542" y="750"/>
      <point x="542" y="630" type="qcurve" smooth="yes"/>
      <point x="542" y="0" type="line"/>
      <point x="592" y="0" type="line"/>
      <point x="592" y="628" type="line" smooth="yes"/>
      <point x="592" y="777"/>
      <point x="474" y="904"/>
      <point x="375" y="904" type="qcurve" smooth="yes"/>
      <point x="300" y="904"/>
      <point x="184" y="828"/>
      <point x="144" y="766" type="qcurve"/>
      <point x="144" y="1458" type="line"/>
      <point x="94" y="1458" type="line"/>
    </contour>
  </outline>
</glyph>
<glyph name="i" format="1">
  <advance width="251"/>
  <unicode hex="0069"/>
  <outline>
    <contour>
      <point x="100" y="0" type="line"/>
      <point x="150" y="0" type="line"/>
      <point x="150" y="887" type="line"/>
      <point x="100" y="887" type="line"/>
    </contour>
    <contour>
      <point x="87" y="1264" type="qcurve" smooth="yes"/>
      <point x="87" y="1242"/>
      <point x="107" y="1212"/>
      <point x="125" y="1212" type="qcurve" smooth="yes"/>
      <point x="143" y="1212"/>
      <point x="163" y="1242"/>
      <point x="163" y="1264" type="qcurve" smooth="yes"/>
      <point x="163" y="1287"/>
      <point x="143" y="1317"/>
      <point x="125" y="1317" type="qcurve" smooth="yes"/>
      <point x="107" y="1317"/>
      <point x="87" y="1287"/>
    </contour>
  </outline>
</glyph>
<glyph name="j" format="1">
  <advance width="251"/>
  <unicode hex="006A"/>
  <outline>
    <contour>
      <point x="-102" y="-351" type="line"/>
      <point x="-88" y="-357"/>
      <point x="-36" y="-370"/>
      <point x="-13" y="-370" type="qcurve" smooth="yes"/>
      <point x="68" y="-370"/>
      <point x="150" y="-245"/>
      <point x="150" y="-107" type="qcurve" smooth="yes"/>
      <point x="150" y="887" type="line"/>
      <point x="100" y="887" type="line"/>
      <point x="100" y="-118" type="line" smooth="yes"/>
      <point x="100" y="-225"/>
      <point x="36" y="-320"/>
      <point x="-23" y="-320" type="qcurve" smooth="yes"/>
      <point x="-43" y="-320"/>
      <point x="-88" y="-307"/>
      <point x="-102" y="-302" type="qcurve"/>
    </contour>
    <contour>
      <point x="87" y="1253" type="qcurve" smooth="yes"/>
      <point x="87" y="1230"/>
      <point x="107" y="1200"/>
      <point x="125" y="1200" type="qcurve" smooth="yes"/>
      <point x="143" y="1200"/>
      <point x="163" y="1230"/>
      <point x="163" y="1253" type="qcurve" smooth="yes"/>
      <point x="163" y="1275"/>
      <point x="143" y="1306"/>
      <point x="125" y="1306" type="qcurve" smooth="yes"/>
      <point x="107" y="1306"/>
      <point x="87" y="1275"/>
    </contour>
  </outline>
</glyph>
<glyph name="l" format="1">
  <advance width="249"/>
  <unicode hex="006C"/>
  <outline>
    <contour>
      <point x="99" y="0" type="line"/>
      <point x="150" y="0" type="line"/>
      <point x="150" y="1458" type="line"/>
      <point x="99" y="1458" type="line"/>
    </contour>
  </outline>
</glyph>
<glyph name="m" format="1">
  <advance width="1096"/>
  <unicode hex="006D"/>
  <outline>
    <contour>
      <point x="94" y="0" type="line"/>
      <point x="144" y="0" type="line"/>
      <point x="144" y="690" type="line"/>
      <point x="177" y="760"/>
      <point x="282" y="854"/>
      <point x="353" y="854" type="qcurve" smooth="yes"/>
      <point x="436" y="854"/>
      <point x="527" y="750"/>
      <point x="527" y="630" type="qcurve" smooth="yes"/>
      <point x="527" y="0" type="line"/>
      <point x="578" y="0" type="line"/>
      <point x="578" y="690" type="line"/>
      <point x="610" y="760"/>
      <point x="715" y="854"/>
      <point x="787" y="854" type="qcurve" smooth="yes"/>
      <point x="869" y="854"/>
      <point x="961" y="750"/>
      <point x="961" y="630" type="qcurve" smooth="yes"/>
      <point x="961" y="0" type="line"/>
      <point x="1011" y="0" type="line"/>
      <point x="1011" y="628" type="line" smooth="yes"/>
      <point x="1011" y="778"/>
      <point x="896" y="904"/>
      <point x="797" y="904" type="qcurve" smooth="yes"/>
      <point x="724" y="904"/>
      <point x="608" y="830"/>
      <point x="565" y="755" type="qcurve"/>
      <point x="563" y="755" type="line"/>
      <point x="542" y="830"/>
      <point x="440" y="904"/>
      <point x="368" y="904" type="qcurve" smooth="yes"/>
      <point x="294" y="904"/>
      <point x="181" y="826"/>
      <point x="141" y="761" type="qcurve"/>
      <point x="139" y="761" type="line"/>
      <point x="138" y="887" type="line"/>
      <point x="94" y="887" type="line"/>
    </contour>
  </outline>
</glyph>
<glyph name="n" format="1">
  <advance width="677"/>
  <unicode hex="006E"/>
  <outline>
    <contour>
      <point x="94" y="0" type="line"/>
      <point x="144" y="0" type="line"/>
      <point x="144" y="688" type="line"/>
      <point x="177" y="758"/>
      <point x="287" y="850"/>
      <point x="360" y="850" type="qcurve" smooth="yes"/>
      <point x="447" y="850"/>
      <point x="542" y="747"/>
      <point x="542" y="628" type="qcurve" smooth="yes"/>
      <point x="542" y="0" type="line"/>
      <point x="592" y="0" type="line"/>
      <point x="592" y="626" type="line" smooth="yes"/>
      <point x="592" y="777"/>
      <point x="475" y="906"/>
      <point x="375" y="906" type="qcurve" smooth="yes"/>
      <point x="300" y="906"/>
      <point x="181" y="829"/>
      <point x="141" y="764" type="qcurve"/>
      <point x="139" y="764" type="line"/>
      <point x="138" y="889" type="line"/>
      <point x="94" y="889" type="line"/>
    </contour>
  </outline>
</glyph>
<glyph name="o" format="1">
  <advance width="694"/>
  <unicode hex="006F"/>
  <outline>
    <contour>
      <point x="46" y="431" type="line" smooth="yes"/>
      <point x="46" y="229"/>
      <point x="211" y="-26"/>
      <point x="347" y="-26" type="qcurve" smooth="yes"/>
      <point x="484" y="-26"/>
      <point x="648" y="229"/>
      <point x="648" y="431" type="qcurve" smooth="yes"/>
      <point x="648" y="458" type="line" smooth="yes"/>
      <point x="648" y="658"/>
      <point x="484" y="913"/>
      <point x="347" y="913" type="qcurve" smooth="yes"/>
      <point x="211" y="913"/>
      <point x="46" y="658"/>
      <point x="46" y="458" type="qcurve" smooth="yes"/>
    </contour>
    <contour>
      <point x="97" y="458" type="line" smooth="yes"/>
      <point x="97" y="628"/>
      <point x="224" y="863"/>
      <point x="347" y="863" type="qcurve" smooth="yes"/>
      <point x="470" y="863"/>
      <point x="597" y="628"/>
      <point x="597" y="458" type="qcurve" smooth="yes"/>
      <point x="597" y="431" type="line" smooth="yes"/>
      <point x="597" y="259"/>
      <point x="470" y="24"/>
      <point x="347" y="24" type="qcurve" smooth="yes"/>
      <point x="224" y="24"/>
      <point x="97" y="259"/>
      <point x="97" y="431" type="qcurve" smooth="yes"/>
    </contour>
  </outline>
</glyph>
<glyph name="q" format="1">
  <advance width="702"/>
  <unicode hex="0071"/>
  <outline>
    <contour>
      <point x="45" y="431" type="line" smooth="yes"/>
      <point x="45" y="236"/>
      <point x="192" y="-17"/>
      <point x="323" y="-17" type="qcurve" smooth="yes"/>
      <point x="404" y="-17"/>
      <point x="520" y="56"/>
      <point x="558" y="111" type="qcurve"/>
      <point x="558" y="-416" type="line"/>
      <point x="608" y="-416" type="line"/>
      <point x="608" y="887" type="line"/>
      <point x="564" y="887" type="line"/>
      <point x="561" y="765" type="line"/>
      <point x="560" y="765" type="line"/>
      <point x="529" y="820"/>
      <point x="404" y="904"/>
      <point x="323" y="904" type="qcurve" smooth="yes"/>
      <point x="192" y="904"/>
      <point x="45" y="651"/>
      <point x="45" y="458" type="qcurve" smooth="yes"/>
    </contour>
    <contour>
      <point x="96" y="431" type="qcurve" smooth="yes"/>
      <point x="96" y="458" type="line" smooth="yes"/>
      <point x="96" y="626"/>
      <point x="211" y="855"/>
      <point x="335" y="855" type="qcurve" smooth="yes"/>
      <point x="417" y="855"/>
      <point x="532" y="755"/>
      <point x="558" y="691" type="qcurve"/>
      <point x="558" y="196" type="line"/>
      <point x="532" y="133"/>
      <point x="417" y="32"/>
      <point x="335" y="32" type="qcurve" smooth="yes"/>
      <point x="211" y="32"/>
      <point x="96" y="262"/>
    </contour>
  </outline>
</glyph>
<glyph name="r" format="1">
  <advance width="422"/>
  <unicode hex="0072"/>
  <outline>
    <contour>
      <point x="94" y="0" type="line"/>
      <point x="144" y="0" type="line"/>
      <point x="144" y="689" type="line"/>
      <point x="172" y="760"/>
      <point x="278" y="858"/>
      <point x="346" y="858" type="qcurve" smooth="yes"/>
      <point x="367" y="858"/>
      <point x="401" y="853"/>
      <point x="416" y="849" type="qcurve"/>
      <point x="416" y="901" type="line"/>
      <point x="409" y="904"/>
      <point x="372" y="913"/>
      <point x="355" y="913" type="qcurve" smooth="yes"/>
      <point x="280" y="913"/>
      <point x="174" y="820"/>
      <point x="141" y="764" type="qcurve"/>
      <point x="139" y="764" type="line"/>
      <point x="138" y="887" type="line"/>
      <point x="94" y="887" type="line"/>
    </contour>
  </outline>
</glyph>
<glyph name="s" format="1">
  <advance width="584"/>
  <unicode hex="0073"/>
  <outline>
    <contour>
      <point x="43" y="260" type="line"/>
      <point x="43" y="255" type="line" smooth="yes"/>
      <point x="43" y="126"/>
      <point x="173" y="-26"/>
      <point x="296" y="-26" type="qcurve" smooth="yes"/>
      <point x="419" y="-26"/>
      <point x="541" y="117"/>
      <point x="541" y="226" type="qcurve" smooth="yes"/>
      <point x="541" y="334"/>
      <point x="424" y="448"/>
      <point x="314" y="483" type="qcurve" smooth="yes"/>
      <point x="204" y="519"/>
      <point x="124" y="605"/>
      <point x="124" y="681" type="qcurve" smooth="yes"/>
      <point x="124" y="759"/>
      <point x="210" y="863"/>
      <point x="296" y="863" type="qcurve" smooth="yes"/>
      <point x="382" y="863"/>
      <point x="474" y="747"/>
      <point x="474" y="643" type="qcurve" smooth="yes"/>
      <point x="474" y="639" type="line"/>
      <point x="527" y="639" type="line"/>
      <point x="527" y="643" type="line" smooth="yes"/>
      <point x="527" y="767"/>
      <point x="400" y="913"/>
      <point x="296" y="913" type="qcurve" smooth="yes"/>
      <point x="192" y="913"/>
      <point x="71" y="777"/>
      <point x="71" y="677" type="qcurve" smooth="yes"/>
      <point x="71" y="581"/>
      <point x="185" y="471"/>
      <point x="295" y="437" type="qcurve" smooth="yes"/>
      <point x="404" y="402"/>
      <point x="489" y="310"/>
      <point x="489" y="220" type="qcurve" smooth="yes"/>
      <point x="489" y="134"/>
      <point x="387" y="24"/>
      <point x="296" y="24" type="qcurve" smooth="yes"/>
      <point x="205" y="24"/>
      <point x="95" y="139"/>
      <point x="95" y="255" type="qcurve" smooth="yes"/>
      <point x="95" y="260" type="line"/>
    </contour>
  </outline>
</glyph>
<glyph name="t" format="1">
  <advance width="385"/>
  <unicode hex="0074"/>
  <outline>
    <contour>
      <point x="-20" y="840" type="line"/>
      <point x="367" y="840" type="line"/>
      <point x="367" y="887" type="line"/>
      <point x="-20" y="887" type="line"/>
    </contour>
    <contour>
      <point x="132" y="213" type="line" smooth="yes"/>
      <point x="132" y="90"/>
      <point x="208" y="-26"/>
      <point x="273" y="-26" type="qcurve" smooth="yes"/>
      <point x="302" y="-26"/>
      <point x="348" y="-15"/>
      <point x="363" y="-7" type="qcurve"/>
      <point x="363" y="43" type="line"/>
      <point x="343" y="35"/>
      <point x="307" y="27"/>
      <point x="288" y="27" type="qcurve" smooth="yes"/>
      <point x="234" y="27"/>
      <point x="183" y="112"/>
      <point x="183" y="213" type="qcurve" smooth="yes"/>
      <point x="183" y="1272" type="line"/>
      <point x="132" y="1272" type="line"/>
      <point x="132" y="867" type="line"/>
      <point x="132" y="855" type="line"/>
    </contour>
  </outline>
</glyph>
<glyph name="u" format="1">
  <advance width="677"/>
  <unicode hex="0075"/>
  <outline>
    <contour>
      <point x="85" y="259" type="line" smooth="yes"/>
      <point x="85" y="111"/>
      <point x="203" y="-17"/>
      <point x="303" y="-17" type="qcurve" smooth="yes"/>
      <point x="378" y="-17"/>
      <point x="497" y="60"/>
      <point x="537" y="126" type="qcurve"/>
      <point x="538" y="126" type="line"/>
      <point x="539" y="0" type="line"/>
      <point x="584" y="0" type="line"/>
      <point x="584" y="887" type="line"/>
      <point x="533" y="887" type="line"/>
      <point x="533" y="197" type="line"/>
      <point x="500" y="126"/>
      <point x="390" y="33"/>
      <point x="317" y="33" type="qcurve" smooth="yes"/>
      <point x="230" y="33"/>
      <point x="136" y="137"/>
      <point x="136" y="257" type="qcurve" smooth="yes"/>
      <point x="136" y="887" type="line"/>
      <point x="85" y="887" type="line"/>
    </contour>
  </outline>
</glyph>
<glyph name="v" format="1">
  <advance width="608"/>
  <unicode hex="0076"/>
  <outline>
    <contour>
      <point x="-18" y="887" type="line"/>
      <point x="284" y="0" type="line"/>
      <point x="324" y="0" type="line"/>
      <point x="626" y="887" type="line"/>
      <point x="575" y="887" type="line"/>
      <point x="349" y="197" type="line" smooth="yes"/>
      <point x="337" y="162"/>
      <point x="316" y="92"/>
      <point x="310" y="57" type="qcurve"/>
      <point x="302" y="57" type="line"/>
      <point x="296" y="92"/>
      <point x="275" y="162"/>
      <point x="264" y="197" type="qcurve" smooth="yes"/>
      <point x="37" y="887" type="line"/>
    </contour>
  </outline>
</glyph>
<glyph name="w" format="1">
  <advance width="1005"/>
  <unicode hex="0077"/>
  <outline>
    <contour>
      <point x="0" y="889" type="line"/>
      <point x="225" y="0" type="line"/>
      <point x="273" y="0" type="line"/>
      <point x="465" y="681" type="line" smooth="yes"/>
      <point x="475" y="717"/>
      <point x="492" y="792"/>
      <point x="498" y="825" type="qcurve"/>
      <point x="507" y="825" type="line"/>
      <point x="513" y="792"/>
      <point x="530" y="717"/>
      <point x="540" y="681" type="qcurve" smooth="yes"/>
      <point x="731" y="0" type="line"/>
      <point x="780" y="0" type="line"/>
      <point x="1004" y="889" type="line"/>
      <point x="955" y="889" type="line"/>
      <point x="786" y="202" type="line" smooth="yes"/>
      <point x="778" y="167"/>
      <point x="764" y="98"/>
      <point x="759" y="63" type="qcurve"/>
      <point x="754" y="63" type="line"/>
      <point x="748" y="98"/>
      <point x="731" y="168"/>
      <point x="721" y="202" type="qcurve" smooth="yes"/>
      <point x="529" y="889" type="line"/>
      <point x="478" y="889" type="line"/>
      <point x="287" y="202" type="line" smooth="yes"/>
      <point x="278" y="167"/>
      <point x="260" y="98"/>
      <point x="255" y="63" type="qcurve"/>
      <point x="250" y="63" type="line"/>
      <point x="245" y="98"/>
      <point x="230" y="167"/>
      <point x="222" y="202" type="qcurve" smooth="yes"/>
      <point x="53" y="889" type="line"/>
    </contour>
  </outline>
</glyph>
<glyph name="x" format="1">
  <advance width="625"/>
  <unicode hex="0078"/>
  <outline>
    <contour>
      <point x="-2" y="0" type="line"/>
      <point x="60" y="0" type="line"/>
      <point x="325" y="429" type="line"/>
      <point x="329" y="429" type="line"/>
      <point x="612" y="887" type="line"/>
      <point x="550" y="887" type="line"/>
      <point x="298" y="471" type="line"/>
      <point x="294" y="471" type="line"/>
    </contour>
    <contour>
      <point x="13" y="887" type="line"/>
      <point x="296" y="429" type="line"/>
      <point x="301" y="429" type="line"/>
      <point x="564" y="0" type="line"/>
      <point x="627" y="0" type="line"/>
      <point x="331" y="471" type="line"/>
      <point x="325" y="471" type="line"/>
      <point x="77" y="887" type="line"/>
    </contour>
  </outline>
</glyph>
<glyph name="y" format="1">
  <advance width="688"/>
  <unicode hex="0079"/>
  <outline>
    <contour>
      <point x="92" y="-354" type="line"/>
      <point x="111" y="-362"/>
      <point x="150" y="-371"/>
      <point x="178" y="-371" type="qcurve" smooth="yes"/>
      <point x="256" y="-371"/>
      <point x="336" y="-234"/>
      <point x="374" y="-119" type="qcurve"/>
      <point x="704" y="894" type="line"/>
      <point x="633" y="894" type="line"/>
      <point x="422" y="226" type="line" smooth="yes"/>
      <point x="407" y="178"/>
      <point x="394" y="130"/>
      <point x="387" y="82" type="qcurve"/>
      <point x="381" y="82" type="line"/>
      <point x="374" y="130"/>
      <point x="364" y="178"/>
      <point x="349" y="226" type="qcurve" smooth="yes"/>
      <point x="144" y="894" type="line"/>
      <point x="71" y="894" type="line"/>
      <point x="353" y="4" type="line"/>
      <point x="326" y="-83" type="line" smooth="yes"/>
      <point x="288" y="-204"/>
      <point x="231" y="-303"/>
      <point x="176" y="-303" type="qcurve" smooth="yes"/>
      <point x="157" y="-303"/>
      <point x="111" y="-294"/>
      <point x="92" y="-287" type="qcurve"/>
    </contour>
  </outline>
</glyph>
<glyph name="z" format="1">
  <advance width="647"/>
  <unicode hex="007A"/>
  <outline>
    <contour>
      <point x="36" y="0" type="line"/>
      <point x="616" y="0" type="line"/>
      <point x="616" y="49" type="line"/>
      <point x="94" y="49" type="line"/>
      <point x="593" y="832" type="line"/>
      <point x="593" y="887" type="line"/>
      <point x="42" y="887" type="line"/>
      <point x="42" y="838" type="line"/>
      <point x="532" y="838" type="line"/>
      <point x="36" y="56" type="line"/>
    </contour>
  </outline>
</glyph>
<glyph name="braceleft" format="1">
  <advance width="477"/>
  <unicode hex="007B"/>
  <outline>
    <contour>
      <point x="484" y="-312" type="qcurve"/>
      <point x="484" y="-249" type="line"/>
      <point x="339" y="-249"/>
      <point x="208" y="-27"/>
      <point x="243" y="130" type="qcurve" smooth="yes"/>
      <point x="287" y="334" type="line" smooth="yes"/>
      <point x="306" y="418"/>
      <point x="244" y="551"/>
      <point x="160" y="574" type="qcurve"/>
      <point x="244" y="597"/>
      <point x="306" y="730"/>
      <point x="287" y="814" type="qcurve" smooth="yes"/>
      <point x="243" y="1018" type="line" smooth="yes"/>
      <point x="208" y="1175"/>
      <point x="339" y="1397"/>
      <point x="484" y="1397" type="qcurve"/>
      <point x="484" y="1460" type="line"/>
      <point x="324" y="1460"/>
      <point x="141" y="1189"/>
      <point x="179" y="1015" type="qcurve" smooth="yes"/>
      <point x="224" y="811" type="line" smooth="yes"/>
      <point x="250" y="685"/>
      <point x="132" y="606"/>
      <point x="30" y="606" type="qcurve"/>
      <point x="30" y="542" type="line"/>
      <point x="132" y="542"/>
      <point x="250" y="463"/>
      <point x="224" y="337" type="qcurve" smooth="yes"/>
      <point x="179" y="133" type="line" smooth="yes"/>
      <point x="141" y="-41"/>
      <point x="324" y="-312"/>
    </contour>
  </outline>
</glyph>
<glyph name="bar" format="1">
  <advance width="391"/>
  <unicode hex="007C"/>
  <outline>
    <contour>
      <point x="165" y="-416" type="line"/>
      <point x="225" y="-416" type="line"/>
      <point x="225" y="1456" type="line"/>
      <point x="165" y="1456" type="line"/>
    </contour>
  </outline>
</glyph>
<glyph name="braceright" format="1">
  <advance width="477"/>
  <unicode hex="007D"/>
  <outline>
    <contour>
      <point x="-7" y="-312" type="line"/>
      <point x="152" y="-312"/>
      <point x="336" y="-41"/>
      <point x="298" y="133" type="qcurve" smooth="yes"/>
      <point x="254" y="337" type="line" smooth="yes"/>
      <point x="226" y="463"/>
      <point x="345" y="542"/>
      <point x="446" y="542" type="qcurve"/>
      <point x="446" y="606" type="line"/>
      <point x="345" y="606"/>
      <point x="226" y="685"/>
      <point x="254" y="811" type="qcurve" smooth="yes"/>
      <point x="298" y="1015" type="line" smooth="yes"/>
      <point x="336" y="1189"/>
      <point x="152" y="1460"/>
      <point x="-7" y="1460" type="qcurve"/>
      <point x="-7" y="1397" type="line"/>
      <point x="137" y="1397"/>
      <point x="269" y="1175"/>
      <point x="234" y="1018" type="qcurve" smooth="yes"/>
      <point x="189" y="814" type="line" smooth="yes"/>
      <point x="171" y="730"/>
      <point x="233" y="597"/>
      <point x="317" y="574" type="qcurve"/>
      <point x="233" y="551"/>
      <point x="171" y="418"/>
      <point x="189" y="334" type="qcurve" smooth="yes"/>
      <point x="234" y="130" type="line" smooth="yes"/>
      <point x="269" y="-27"/>
      <point x="137" y="-249"/>
      <point x="-7" y="-249" type="qcurve"/>
    </contour>
  </outline>
</glyph>
<glyph name="asciitilde" format="1">
  <advance width="1006"/>
  <unicode hex="007E"/>
  <outline>
    <contour>
      <point x="106" y="439" type="qcurve"/>
      <point x="171" y="439" type="line"/>
      <point x="171" y="559"/>
      <point x="226" y="730"/>
      <point x="293" y="730" type="qcurve" smooth="yes"/>
      <point x="370" y="730"/>
      <point x="609" y="429"/>
      <point x="712" y="429" type="qcurve" smooth="yes"/>
      <point x="809" y="429"/>
      <point x="900" y="640"/>
      <point x="900" y="785" type="qcurve"/>
      <point x="835" y="785" type="line"/>
      <point x="835" y="665"/>
      <point x="780" y="494"/>
      <point x="713" y="494" type="qcurve" smooth="yes"/>
      <point x="636" y="494"/>
      <point x="397" y="795"/>
      <point x="294" y="795" type="qcurve" smooth="yes"/>
      <point x="197" y="795"/>
      <point x="106" y="584"/>
    </contour>
  </outline>
</glyph>
<glyph name="exclamdown" format="1">
  <advance width="395"/>
  <unicode hex="00A1"/>
  <outline>
    <contour>
      <point x="167" y="-280" type="line"/>
      <point x="229" y="-280" type="line"/>
      <point x="224" y="796" type="line"/>
      <point x="172" y="796" type="line"/>
    </contour>
    <contour>
      <point x="144" y="1119" type="qcurve" smooth="yes"/>
      <point x="144" y="1087"/>
      <point x="173" y="1041"/>
      <point x="198" y="1041" type="qcurve" smooth="yes"/>
      <point x="224" y="1041"/>
      <point x="251" y="1087"/>
      <point x="251" y="1119" type="qcurve" smooth="yes"/>
      <point x="251" y="1152"/>
      <point x="224" y="1198"/>
      <point x="198" y="1198" type="qcurve" smooth="yes"/>
      <point x="173" y="1198"/>
      <point x="144" y="1152"/>
    </contour>
  </outline>
</glyph>
<glyph name="cent" format="1">
  <advance width="726"/>
  <unicode hex="00A2"/>
  <outline>
    <contour>
      <point x="65" y="520" type="line" smooth="yes"/>
      <point x="65.0" y="265.0"/>
      <point x="244.0" y="-10.0"/>
      <point x="410" y="-10" type="qcurve" smooth="yes"/>
      <point x="555.0" y="-10.0"/>
      <point x="710.0" y="180.0"/>
      <point x="710" y="357" type="qcurve" smooth="yes"/>
      <point x="710" y="362" type="line"/>
      <point x="641" y="362" type="line"/>
      <point x="641" y="357" type="line" smooth="yes"/>
      <point x="641.0" y="213.0"/>
      <point x="521.0" y="59.0"/>
      <point x="410" y="59" type="qcurve" smooth="yes"/>
      <point x="278.0" y="59.0"/>
      <point x="136.0" y="298.0"/>
      <point x="136" y="520" type="qcurve" smooth="yes"/>
      <point x="136" y="552" type="line" smooth="yes"/>
      <point x="136.0" y="774.0"/>
      <point x="278.0" y="1013.0"/>
      <point x="410" y="1013" type="qcurve" smooth="yes"/>
      <point x="521.0" y="1013.0"/>
      <point x="641.0" y="859.0"/>
      <point x="641" y="715" type="qcurve" smooth="yes"/>
      <point x="641" y="710" type="line"/>
      <point x="710" y="710" type="line"/>
      <point x="710" y="715" type="line" smooth="yes"/>
      <point x="710.0" y="892.0"/>
      <point x="555.0" y="1082.0"/>
      <point x="410" y="1082" type="qcurve" smooth="yes"/>
      <point x="244.0" y="1082.0"/>
      <point x="65.0" y="807.0"/>
      <point x="65" y="552" type="qcurve" smooth="yes"/>
    </contour>
    <contour>
      <point x="371" y="-256" type="line"/>
      <point x="442" y="-256" type="line"/>
      <point x="442" y="33" type="line"/>
      <point x="441" y="38" type="line"/>
      <point x="441" y="541" type="line"/>
      <point x="372" y="541" type="line"/>
      <point x="372" y="39" type="line"/>
      <point x="371" y="32" type="line"/>
    </contour>
    <contour>
      <point x="372" y="541" type="line"/>
      <point x="441" y="541" type="line"/>
      <point x="441" y="1043" type="line"/>
      <point x="442" y="1050" type="line"/>
      <point x="442" y="1328" type="line"/>
      <point x="371" y="1328" type="line"/>
      <point x="371" y="1049" type="line"/>
      <point x="372" y="1044" type="line"/>
    </contour>
  </outline>
</glyph>
<glyph name="sterling" format="1">
  <advance width="828"/>
  <unicode hex="00A3"/>
  <outline>
    <contour>
      <point x="85" y="0" type="line"/>
      <point x="778" y="0" type="line"/>
      <point x="778" y="64" type="line"/>
      <point x="215" y="64" type="line"/>
      <point x="261" y="110"/>
      <point x="323" y="293"/>
      <point x="323" y="434" type="qcurve" smooth="yes"/>
      <point x="323" y="576"/>
      <point x="246" y="932"/>
      <point x="246" y="1065" type="qcurve" smooth="yes"/>
      <point x="246" y="1236"/>
      <point x="363" y="1410"/>
      <point x="471" y="1410" type="qcurve" smooth="yes"/>
      <point x="581" y="1410"/>
      <point x="701" y="1235"/>
      <point x="701" y="1068" type="qcurve" smooth="yes"/>
      <point x="701" y="1048" type="line"/>
      <point x="764" y="1048" type="line"/>
      <point x="764" y="1068" type="line" smooth="yes"/>
      <point x="764" y="1252"/>
      <point x="610" y="1476"/>
      <point x="471" y="1476" type="qcurve" smooth="yes"/>
      <point x="334" y="1476"/>
      <point x="184" y="1253"/>
      <point x="184" y="1065" type="qcurve" smooth="yes"/>
      <point x="184" y="915"/>
      <point x="262" y="556"/>
      <point x="262" y="410" type="qcurve" smooth="yes"/>
      <point x="262" y="276"/>
      <point x="166" y="72"/>
      <point x="85" y="61" type="qcurve"/>
    </contour>
    <contour>
      <point x="67" y="685" type="line"/>
      <point x="685" y="685" type="line"/>
      <point x="685" y="749" type="line"/>
      <point x="67" y="749" type="line"/>
    </contour>
  </outline>
</glyph>
<glyph name="currency" format="1">
  <advance width="1269"/>
  <unicode hex="00A4"/>
  <outline>
    <contour>
      <point x="193" y="610" type="qcurve" smooth="yes"/>
      <point x="193" y="355"/>
      <point x="443" y="0"/>
      <point x="634" y="0" type="qcurve" smooth="yes"/>
      <point x="826" y="0"/>
      <point x="1076" y="355"/>
      <point x="1076" y="610" type="qcurve" smooth="yes"/>
      <point x="1076" y="865"/>
      <point x="826" y="1220"/>
      <point x="634" y="1220" type="qcurve" smooth="yes"/>
      <point x="443" y="1220"/>
      <point x="193" y="865"/>
    </contour>
    <contour>
      <point x="256" y="610" type="qcurve" smooth="yes"/>
      <point x="256" y="840"/>
      <point x="468" y="1156"/>
      <point x="634" y="1156" type="qcurve" smooth="yes"/>
      <point x="801" y="1156"/>
      <point x="1014" y="840"/>
      <point x="1014" y="610" type="qcurve" smooth="yes"/>
      <point x="1014" y="380"/>
      <point x="801" y="64"/>
      <point x="634" y="64" type="qcurve" smooth="yes"/>
      <point x="468" y="64"/>
      <point x="256" y="380"/>
    </contour>
    <contour>
      <point x="140" y="1192" type="line"/>
      <point x="320" y="994" type="line"/>
      <point x="362" y="1046" type="line"/>
      <point x="182" y="1244" type="line"/>
    </contour>
    <contour>
      <point x="907" y="1046" type="line"/>
      <point x="950" y="994" type="line"/>
      <point x="1129" y="1192" type="line"/>
      <point x="1087" y="1244" type="line"/>
    </contour>
    <contour>
      <point x="907" y="174" type="line"/>
      <point x="1087" y="-24" type="line"/>
      <point x="1129" y="28" type="line"/>
      <point x="950" y="226" type="line"/>
    </contour>
    <contour>
      <point x="140" y="28" type="line"/>
      <point x="182" y="-24" type="line"/>
      <point x="362" y="174" type="line"/>
      <point x="320" y="226" type="line"/>
    </contour>
  </outline>
</glyph>
<glyph name="yen" format="1">
  <advance width="830"/>
  <unicode hex="00A5"/>
  <outline>
    <contour>
      <point x="18" y="302" type="line"/>
      <point x="811" y="302" type="line"/>
      <point x="811" y="370" type="line"/>
      <point x="18" y="370" type="line"/>
    </contour>
    <contour>
      <point x="18" y="594" type="line"/>
      <point x="811" y="594" type="line"/>
      <point x="811" y="661" type="line"/>
      <point x="18" y="661" type="line"/>
    </contour>
    <contour>
      <point x="383" y="0" type="line"/>
      <point x="446" y="0" type="line"/>
      <point x="446" y="597" type="line"/>
      <point x="850" y="1456" type="line"/>
      <point x="788" y="1456" type="line"/>
      <point x="465" y="777" type="line" smooth="yes"/>
      <point x="451" y="746"/>
      <point x="427" y="687"/>
      <point x="417" y="657" type="qcurve"/>
      <point x="411" y="657" type="line"/>
      <point x="402" y="687"/>
      <point x="378" y="746"/>
      <point x="363" y="777" type="qcurve" smooth="yes"/>
      <point x="46" y="1456" type="line"/>
      <point x="-21" y="1456" type="line"/>
      <point x="383" y="597" type="line"/>
    </contour>
  </outline>
</glyph>
<glyph name="brokenbar" format="1">
  <advance width="391"/>
  <unicode hex="00A6"/>
  <outline>
    <contour>
      <point x="165" y="-416" type="line"/>
      <point x="225" y="-416" type="line"/>
      <point x="225" y="420" type="line"/>
      <point x="165" y="420" type="line"/>
    </contour>
    <contour>
      <point x="165" y="620" type="line"/>
      <point x="225" y="620" type="line"/>
      <point x="225" y="1456" type="line"/>
      <point x="165" y="1456" type="line"/>
    </contour>
  </outline>
</glyph>
<glyph name="section" format="1">
  <advance width="890"/>
  <unicode hex="00A7"/>
  <outline>
    <contour>
      <point x="96" y="561" type="qcurve" smooth="yes"/>
      <point x="96" y="434"/>
      <point x="249" y="294"/>
      <point x="405" y="242" type="qcurve" smooth="yes"/>
      <point x="603" y="177"/>
      <point x="729" y="26"/>
      <point x="729" y="-91" type="qcurve" smooth="yes"/>
      <point x="729" y="-223"/>
      <point x="571" y="-383"/>
      <point x="434" y="-383" type="qcurve" smooth="yes"/>
      <point x="298" y="-383"/>
      <point x="133" y="-221"/>
      <point x="133" y="-59" type="qcurve" smooth="yes"/>
      <point x="133" y="-47" type="line"/>
      <point x="70" y="-47" type="line"/>
      <point x="70" y="-59" type="line" smooth="yes"/>
      <point x="70" y="-238"/>
      <point x="270" y="-446"/>
      <point x="434" y="-446" type="qcurve" smooth="yes"/>
      <point x="599" y="-446"/>
      <point x="791" y="-246"/>
      <point x="791" y="-91" type="qcurve" smooth="yes"/>
      <point x="791" y="66"/>
      <point x="641" y="243"/>
      <point x="471" y="297" type="qcurve" smooth="yes"/>
      <point x="291" y="355"/>
      <point x="157" y="471"/>
      <point x="157" y="560" type="qcurve" smooth="yes"/>
      <point x="157" y="670"/>
      <point x="287" y="791"/>
      <point x="426" y="791" type="qcurve"/>
      <point x="328" y="844" type="line"/>
      <point x="216" y="821"/>
      <point x="96" y="675"/>
    </contour>
    <contour>
      <point x="124" y="1144" type="qcurve" smooth="yes"/>
      <point x="124" y="1003"/>
      <point x="264" y="826"/>
      <point x="434" y="773" type="qcurve" smooth="yes"/>
      <point x="618" y="715"/>
      <point x="757" y="590"/>
      <point x="757" y="493" type="qcurve" smooth="yes"/>
      <point x="757" y="382"/>
      <point x="605" y="249"/>
      <point x="463" y="249" type="qcurve"/>
      <point x="596" y="197" type="line"/>
      <point x="696" y="228"/>
      <point x="819" y="386"/>
      <point x="819" y="492" type="qcurve" smooth="yes"/>
      <point x="819" y="627"/>
      <point x="654" y="779"/>
      <point x="500" y="828" type="qcurve" smooth="yes"/>
      <point x="305" y="891"/>
      <point x="185" y="1036"/>
      <point x="185" y="1144" type="qcurve" smooth="yes"/>
      <point x="185" y="1276"/>
      <point x="321" y="1423"/>
      <point x="453" y="1423" type="qcurve" smooth="yes"/>
      <point x="586" y="1423"/>
      <point x="732" y="1249"/>
      <point x="732" y="1104" type="qcurve" smooth="yes"/>
      <point x="732" y="1093" type="line"/>
      <point x="793" y="1093" type="line"/>
      <point x="793" y="1104" type="line" smooth="yes"/>
      <point x="793" y="1264"/>
      <point x="615" y="1486"/>
      <point x="453" y="1486" type="qcurve" smooth="yes"/>
      <point x="292" y="1486"/>
      <point x="124" y="1290"/>
    </contour>
  </outline>
</glyph>
<glyph name="dieresis" format="1">
  <advance width="869"/>
  <unicode hex="00A8"/>
  <outline>
    <contour>
      <point x="233" y="1255" type="qcurve" smooth="yes"/>
      <point x="233" y="1223"/>
      <point x="259" y="1178"/>
      <point x="283" y="1178" type="qcurve" smooth="yes"/>
      <point x="308" y="1178"/>
      <point x="335" y="1223"/>
      <point x="335" y="1255" type="qcurve" smooth="yes"/>
      <point x="335" y="1286"/>
      <point x="308" y="1330"/>
      <point x="283" y="1330" type="qcurve" smooth="yes"/>
      <point x="259" y="1330"/>
      <point x="233" y="1286"/>
    </contour>
    <contour>
      <point x="534" y="1255" type="qcurve" smooth="yes"/>
      <point x="534" y="1223"/>
      <point x="562" y="1178"/>
      <point x="586" y="1178" type="qcurve" smooth="yes"/>
      <point x="610" y="1178"/>
      <point x="636" y="1223"/>
      <point x="636" y="1255" type="qcurve" smooth="yes"/>
      <point x="636" y="1286"/>
      <point x="610" y="1330"/>
      <point x="586" y="1330" type="qcurve" smooth="yes"/>
      <point x="562" y="1330"/>
      <point x="534" y="1286"/>
    </contour>
  </outline>
</glyph>
<glyph name="copyright" format="1">
  <advance width="1392"/>
  <unicode hex="00A9"/>
  <outline>
    <contour>
      <point x="65" y="698" type="qcurve" smooth="yes"/>
      <point x="65" y="365"/>
      <point x="439" y="-80"/>
      <point x="696" y="-80" type="qcurve" smooth="yes"/>
      <point x="953" y="-80"/>
      <point x="1326" y="365"/>
      <point x="1326" y="698" type="qcurve" smooth="yes"/>
      <point x="1326" y="1031"/>
      <point x="953" y="1476"/>
      <point x="696" y="1476" type="qcurve" smooth="yes"/>
      <point x="439" y="1476"/>
      <point x="65" y="1031"/>
    </contour>
    <contour>
      <point x="125" y="698" type="qcurve" smooth="yes"/>
      <point x="125" y="996"/>
      <point x="452" y="1413"/>
      <point x="696" y="1413" type="qcurve" smooth="yes"/>
      <point x="940" y="1413"/>
      <point x="1267" y="996"/>
      <point x="1267" y="698" type="qcurve" smooth="yes"/>
      <point x="1267" y="400"/>
      <point x="940" y="-17"/>
      <point x="696" y="-17" type="qcurve" smooth="yes"/>
      <point x="452" y="-17"/>
      <point x="125" y="400"/>
    </contour>
    <contour>
      <point x="406" y="668" type="line" smooth="yes"/>
      <point x="406" y="489"/>
      <point x="572" y="266"/>
      <point x="697" y="266" type="qcurve" smooth="yes"/>
      <point x="814" y="266"/>
      <point x="968" y="440"/>
      <point x="968" y="568" type="qcurve" smooth="yes"/>
      <point x="968" y="578" type="line"/>
      <point x="910" y="578" type="line"/>
      <point x="910" y="568" type="line" smooth="yes"/>
      <point x="910" y="453"/>
      <point x="797" y="328"/>
      <point x="697" y="328" type="qcurve" smooth="yes"/>
      <point x="588" y="328"/>
      <point x="465" y="513"/>
      <point x="465" y="668" type="qcurve" smooth="yes"/>
      <point x="465" y="748" type="line" smooth="yes"/>
      <point x="465" y="903"/>
      <point x="588" y="1088"/>
      <point x="697" y="1088" type="qcurve" smooth="yes"/>
      <point x="797" y="1088"/>
      <point x="910" y="963"/>
      <point x="910" y="848" type="qcurve" smooth="yes"/>
      <point x="910" y="838" type="line"/>
      <point x="968" y="838" type="line"/>
      <point x="968" y="848" type="line" smooth="yes"/>
      <point x="968" y="976"/>
      <point x="814" y="1150"/>
      <point x="697" y="1150" type="qcurve" smooth="yes"/>
      <point x="572" y="1150"/>
      <point x="406" y="927"/>
      <point x="406" y="748" type="qcurve" smooth="yes"/>
    </contour>
  </outline>
</glyph>
<glyph name="ordfeminine" format="1">
  <advance width="618"/>
  <unicode hex="00AA"/>
  <outline>
    <contour>
      <point x="42" y="853" type="qcurve" smooth="yes"/>
      <point x="42" y="733"/>
      <point x="155" y="611"/>
      <point x="247" y="611" type="qcurve" smooth="yes"/>
      <point x="334" y="611"/>
      <point x="451" y="709"/>
      <point x="476" y="761" type="qcurve"/>
      <point x="479" y="724"/>
      <point x="495" y="649"/>
      <point x="507" y="627" type="qcurve"/>
      <point x="555" y="627" type="line"/>
      <point x="555" y="640" type="line"/>
      <point x="542" y="674"/>
      <point x="528" y="765"/>
      <point x="528" y="816" type="qcurve" smooth="yes"/>
      <point x="528" y="1192" type="line" smooth="yes"/>
      <point x="528" y="1334"/>
      <point x="415" y="1477"/>
      <point x="312" y="1477" type="qcurve" smooth="yes"/>
      <point x="204" y="1477"/>
      <point x="87" y="1335"/>
      <point x="87" y="1236" type="qcurve" smooth="yes"/>
      <point x="87" y="1232" type="line"/>
      <point x="138" y="1232" type="line"/>
      <point x="138" y="1236" type="line" smooth="yes"/>
      <point x="138" y="1310"/>
      <point x="217" y="1426"/>
      <point x="309" y="1426" type="qcurve" smooth="yes"/>
      <point x="400" y="1426"/>
      <point x="475" y="1296"/>
      <point x="475" y="1192" type="qcurve" smooth="yes"/>
      <point x="475" y="1105" type="line"/>
      <point x="294" y="1105" type="line" smooth="yes"/>
      <point x="184" y="1105"/>
      <point x="42" y="968"/>
    </contour>
    <contour>
      <point x="94" y="854" type="qcurve" smooth="yes"/>
      <point x="94" y="945"/>
      <point x="203" y="1054"/>
      <point x="309" y="1054" type="qcurve" smooth="yes"/>
      <point x="475" y="1054" type="line"/>
      <point x="475" y="892" type="line"/>
      <point x="475" y="808"/>
      <point x="341" y="663"/>
      <point x="259" y="663" type="qcurve" smooth="yes"/>
      <point x="174" y="663"/>
      <point x="94" y="763"/>
    </contour>
  </outline>
</glyph>
<glyph name="logicalnot" format="1">
  <advance width="1016"/>
  <unicode hex="00AC"/>
  <outline>
    <contour>
      <point x="139" y="663" type="line"/>
      <point x="819" y="663" type="line"/>
      <point x="819" y="427" type="line"/>
      <point x="877" y="427" type="line"/>
      <point x="877" y="734" type="line"/>
      <point x="139" y="734" type="line"/>
    </contour>
  </outline>
</glyph>
<glyph name="registered" format="1">
  <advance width="1392"/>
  <unicode hex="00AE"/>
  <outline>
    <contour>
      <point x="65" y="698" type="qcurve" smooth="yes"/>
      <point x="65" y="365"/>
      <point x="439" y="-80"/>
      <point x="696" y="-80" type="qcurve" smooth="yes"/>
      <point x="953" y="-80"/>
      <point x="1326" y="365"/>
      <point x="1326" y="698" type="qcurve" smooth="yes"/>
      <point x="1326" y="1031"/>
      <point x="953" y="1476"/>
      <point x="696" y="1476" type="qcurve" smooth="yes"/>
      <point x="439" y="1476"/>
      <point x="65" y="1031"/>
    </contour>
    <contour>
      <point x="125" y="698" type="qcurve" smooth="yes"/>
      <point x="125" y="996"/>
      <point x="452" y="1413"/>
      <point x="696" y="1413" type="qcurve" smooth="yes"/>
      <point x="940" y="1413"/>
      <point x="1267" y="996"/>
      <point x="1267" y="698" type="qcurve" smooth="yes"/>
      <point x="1267" y="400"/>
      <point x="940" y="-17"/>
      <point x="696" y="-17" type="qcurve" smooth="yes"/>
      <point x="452" y="-17"/>
      <point x="125" y="400"/>
    </contour>
    <contour>
      <point x="502" y="284" type="line"/>
      <point x="561" y="284" type="line"/>
      <point x="561" y="595" type="line"/>
      <point x="705" y="595" type="line" smooth="yes"/>
      <point x="797" y="595"/>
      <point x="917" y="744"/>
      <point x="917" y="869" type="qcurve" smooth="yes"/>
      <point x="917" y="993"/>
      <point x="797" y="1132"/>
      <point x="705" y="1132" type="qcurve" smooth="yes"/>
      <point x="502" y="1132" type="line"/>
    </contour>
    <contour>
      <point x="561" y="657" type="line"/>
      <point x="561" y="1070" type="line"/>
      <point x="705" y="1070" type="line" smooth="yes"/>
      <point x="780" y="1070"/>
      <point x="858" y="966"/>
      <point x="858" y="864" type="qcurve" smooth="yes"/>
      <point x="858" y="761"/>
      <point x="780" y="657"/>
      <point x="705" y="657" type="qcurve" smooth="yes"/>
    </contour>
    <contour>
      <point x="901" y="284" type="line"/>
      <point x="974" y="284" type="line"/>
      <point x="772" y="625" type="line"/>
      <point x="706" y="625" type="line"/>
    </contour>
  </outline>
</glyph>
<glyph name="degree" format="1">
  <advance width="580"/>
  <unicode hex="00B0"/>
  <outline>
    <contour>
      <point x="88" y="1160" type="qcurve" smooth="yes"/>
      <point x="88" y="1023"/>
      <point x="207" y="843"/>
      <point x="290" y="843" type="qcurve" smooth="yes"/>
      <point x="374" y="843"/>
      <point x="492" y="1023"/>
      <point x="492" y="1160" type="qcurve" smooth="yes"/>
      <point x="492" y="1296"/>
      <point x="374" y="1476"/>
      <point x="290" y="1476" type="qcurve" smooth="yes"/>
      <point x="207" y="1476"/>
      <point x="88" y="1296"/>
    </contour>
    <contour>
      <point x="144" y="1160" type="qcurve" smooth="yes"/>
      <point x="144" y="1268"/>
      <point x="227" y="1412"/>
      <point x="290" y="1412" type="qcurve" smooth="yes"/>
      <point x="354" y="1412"/>
      <point x="436" y="1268"/>
      <point x="436" y="1160" type="qcurve" smooth="yes"/>
      <point x="436" y="1050"/>
      <point x="354" y="907"/>
      <point x="290" y="907" type="qcurve" smooth="yes"/>
      <point x="227" y="907"/>
      <point x="144" y="1050"/>
    </contour>
  </outline>
</glyph>
<glyph name="plusminus" format="1">
  <advance width="1130"/>
  <unicode hex="00B1"/>
  <outline>
    <contour>
      <point x="206" y="649" type="line"/>
      <point x="924" y="649" type="line"/>
      <point x="924" y="719" type="line"/>
      <point x="206" y="719" type="line"/>
    </contour>
    <contour>
      <point x="530" y="308" type="line"/>
      <point x="600" y="308" type="line"/>
      <point x="600" y="1071" type="line"/>
      <point x="530" y="1071" type="line"/>
    </contour>
    <contour>
      <point x="206" y="78" type="line"/>
      <point x="924" y="78" type="line"/>
      <point x="924" y="148" type="line"/>
      <point x="206" y="148" type="line"/>
    </contour>
  </outline>
</glyph>
<glyph name="twosuperior" format="1">
  <advance width="615"/>
  <unicode hex="00B2"/>
  <outline>
    <contour>
      <point x="572" y="795" type="line"/>
      <point x="229" y="795" type="line"/>
      <point x="380" y="941" type="line" smooth="yes"/>
      <point x="455" y="1020"/>
      <point x="545" y="1151"/>
      <point x="545" y="1231" type="qcurve" smooth="yes"/>
      <point x="545" y="1339"/>
      <point x="414" y="1467"/>
      <point x="299" y="1467" type="qcurve" smooth="yes"/>
      <point x="179" y="1467"/>
      <point x="41" y="1313"/>
      <point x="41" y="1206" type="qcurve"/>
      <point x="177" y="1206" type="line"/>
      <point x="177" y="1263"/>
      <point x="238" y="1339"/>
      <point x="303" y="1339" type="qcurve" smooth="yes"/>
      <point x="353" y="1339"/>
      <point x="408" y="1277"/>
      <point x="408" y="1229" type="qcurve" smooth="yes"/>
      <point x="408" y="1196"/>
      <point x="363" y="1108"/>
      <point x="305" y="1046" type="qcurve" smooth="yes"/>
      <point x="57" y="775" type="line"/>
      <point x="57" y="667" type="line"/>
      <point x="572" y="667" type="line"/>
    </contour>
  </outline>
</glyph>
<glyph name="threesuperior" format="1">
  <advance width="615"/>
  <unicode hex="00B3"/>
  <outline>
    <contour>
      <point x="213" y="1126" type="line"/>
      <point x="213" y="1048" type="line"/>
      <point x="309" y="1048" type="line" smooth="yes"/>
      <point x="421" y="1048"/>
      <point x="546" y="1164"/>
      <point x="546" y="1243" type="qcurve" smooth="yes"/>
      <point x="546" y="1352"/>
      <point x="406" y="1467"/>
      <point x="294" y="1467" type="qcurve" smooth="yes"/>
      <point x="192" y="1467"/>
      <point x="48" y="1347"/>
      <point x="48" y="1246" type="qcurve"/>
      <point x="183" y="1246" type="line"/>
      <point x="183" y="1289"/>
      <point x="248" y="1339"/>
      <point x="297" y="1339" type="qcurve" smooth="yes"/>
      <point x="356" y="1339"/>
      <point x="411" y="1279"/>
      <point x="411" y="1235" type="qcurve" smooth="yes"/>
      <point x="411" y="1187"/>
      <point x="347" y="1126"/>
      <point x="285" y="1126" type="qcurve" smooth="yes"/>
    </contour>
    <contour>
      <point x="213" y="1011" type="line"/>
      <point x="285" y="1011" type="line" smooth="yes"/>
      <point x="348" y="1011"/>
      <point x="422" y="958"/>
      <point x="422" y="895" type="qcurve" smooth="yes"/>
      <point x="422" y="846"/>
      <point x="358" y="784"/>
      <point x="299" y="784" type="qcurve" smooth="yes"/>
      <point x="242" y="784"/>
      <point x="174" y="845"/>
      <point x="174" y="890" type="qcurve"/>
      <point x="39" y="890" type="line"/>
      <point x="39" y="768"/>
      <point x="198" y="656"/>
      <point x="295" y="656" type="qcurve" smooth="yes"/>
      <point x="407" y="656"/>
      <point x="558" y="777"/>
      <point x="558" y="887" type="qcurve" smooth="yes"/>
      <point x="558" y="983"/>
      <point x="437" y="1089"/>
      <point x="309" y="1089" type="qcurve" smooth="yes"/>
      <point x="213" y="1089" type="line"/>
    </contour>
  </outline>
</glyph>
<glyph name="mu.math" format="1">
  <advance width="678"/>
  <unicode hex="00B5"/>
  <outline>
    <contour>
      <point x="85" y="-416" type="line"/>
      <point x="131" y="-416" type="line"/>
      <point x="131" y="92" type="line"/>
      <point x="152" y="41"/>
      <point x="240" y="-17"/>
      <point x="304" y="-17" type="qcurve" smooth="yes"/>
      <point x="379" y="-17"/>
      <point x="497" y="60"/>
      <point x="537" y="126" type="qcurve"/>
      <point x="539" y="126" type="line"/>
      <point x="540" y="0" type="line"/>
      <point x="584" y="0" type="line"/>
      <point x="584" y="887" type="line"/>
      <point x="533" y="887" type="line"/>
      <point x="533" y="197" type="line"/>
      <point x="500" y="126"/>
      <point x="391" y="33"/>
      <point x="318" y="33" type="qcurve" smooth="yes"/>
      <point x="231" y="33"/>
      <point x="136" y="137"/>
      <point x="136" y="257" type="qcurve" smooth="yes"/>
      <point x="136" y="887" type="line"/>
      <point x="85" y="887" type="line"/>
    </contour>
  </outline>
</glyph>
<glyph name="paragraph" format="1">
  <advance width="1033"/>
  <unicode hex="00B6"/>
  <outline>
    <contour>
      <point x="80" y="986" type="qcurve" smooth="yes"/>
      <point x="80" y="786"/>
      <point x="300" y="513"/>
      <point x="465" y="516" type="qcurve" smooth="yes"/>
      <point x="507" y="516" type="line"/>
      <point x="507" y="-200" type="line"/>
      <point x="587" y="-200" type="line"/>
      <point x="587" y="1367" type="line"/>
      <point x="746" y="1367" type="line"/>
      <point x="746" y="-200" type="line"/>
      <point x="828" y="-200" type="line"/>
      <point x="828" y="1367" type="line"/>
      <point x="977" y="1367" type="line"/>
      <point x="977" y="1456" type="line"/>
      <point x="465" y="1456" type="line" smooth="yes"/>
      <point x="300" y="1456"/>
      <point x="80" y="1186"/>
    </contour>
  </outline>
</glyph>
<glyph name="periodcentered" format="1">
  <advance width="353"/>
  <unicode hex="00B7"/>
  <outline>
    <contour>
      <point x="121" y="730" type="qcurve" smooth="yes"/>
      <point x="121" y="697"/>
      <point x="149" y="652"/>
      <point x="176" y="652" type="qcurve" smooth="yes"/>
      <point x="203" y="652"/>
      <point x="231" y="697"/>
      <point x="231" y="730" type="qcurve" smooth="yes"/>
      <point x="231" y="763"/>
      <point x="203" y="808"/>
      <point x="176" y="808" type="qcurve" smooth="yes"/>
      <point x="149" y="808"/>
      <point x="121" y="763"/>
    </contour>
  </outline>
</glyph>
<glyph name="cedilla" format="1">
  <advance width="850"/>
  <unicode hex="00B8"/>
  <outline>
    <contour>
      <point x="403" y="0" type="line"/>
      <point x="352" y="-215" type="line"/>
      <point x="442" y="-215"/>
      <point x="520" y="-277"/>
      <point x="520" y="-331" type="qcurve" smooth="yes"/>
      <point x="520" y="-395"/>
      <point x="401" y="-470"/>
      <point x="271" y="-470" type="qcurve"/>
      <point x="274" y="-532" type="line"/>
      <point x="444" y="-532"/>
      <point x="575" y="-416"/>
      <point x="575" y="-331" type="qcurve" smooth="yes"/>
      <point x="575" y="-255"/>
      <point x="491" y="-168"/>
      <point x="414" y="-159" type="qcurve"/>
      <point x="456" y="0" type="line"/>
    </contour>
  </outline>
</glyph>
<glyph name="ordmasculine" format="1">
  <advance width="638"/>
  <unicode hex="00BA"/>
  <outline>
    <contour>
      <point x="36" y="1028" type="line" smooth="yes"/>
      <point x="36" y="840"/>
      <point x="190" y="603"/>
      <point x="319" y="603" type="qcurve" smooth="yes"/>
      <point x="448" y="603"/>
      <point x="602" y="840"/>
      <point x="602" y="1028" type="qcurve" smooth="yes"/>
      <point x="602" y="1053" type="line" smooth="yes"/>
      <point x="602" y="1240"/>
      <point x="448" y="1477"/>
      <point x="319" y="1477" type="qcurve" smooth="yes"/>
      <point x="190" y="1477"/>
      <point x="36" y="1240"/>
      <point x="36" y="1053" type="qcurve" smooth="yes"/>
    </contour>
    <contour>
      <point x="89" y="1053" type="line" smooth="yes"/>
      <point x="89" y="1208"/>
      <point x="205" y="1421"/>
      <point x="319" y="1421" type="qcurve" smooth="yes"/>
      <point x="433" y="1421"/>
      <point x="549" y="1208"/>
      <point x="549" y="1053" type="qcurve" smooth="yes"/>
      <point x="549" y="1028" type="line" smooth="yes"/>
      <point x="549" y="873"/>
      <point x="433" y="659"/>
      <point x="319" y="659" type="qcurve" smooth="yes"/>
      <point x="205" y="659"/>
      <point x="89" y="873"/>
      <point x="89" y="1028" type="qcurve" smooth="yes"/>
    </contour>
  </outline>
</glyph>
<glyph name="questiondown" format="1">
  <advance width="608.0"/>
  <unicode hex="00BF"/>
  <outline>
    <contour>
      <point x="46" y="33" type="qcurve" smooth="yes"/>
      <point x="46" y="-108"/>
      <point x="189" y="-300"/>
      <point x="315" y="-300" type="qcurve" smooth="yes"/>
      <point x="442" y="-300"/>
      <point x="588" y="-103"/>
      <point x="588" y="57" type="qcurve" smooth="yes"/>
      <point x="588" y="75" type="line"/>
      <point x="526" y="75" type="line"/>
      <point x="526" y="57" type="line" smooth="yes"/>
      <point x="526" y="-80"/>
      <point x="418" y="-234"/>
      <point x="315" y="-234" type="qcurve" smooth="yes"/>
      <point x="211" y="-234"/>
      <point x="109" y="-82"/>
      <point x="109" y="33" type="qcurve" smooth="yes"/>
      <point x="109" y="149"/>
      <point x="178" y="305"/>
      <point x="244" y="397" type="qcurve" smooth="yes"/>
      <point x="314" y="489"/>
      <point x="380" y="645"/>
      <point x="380" y="759" type="qcurve" smooth="yes"/>
      <point x="380" y="769" type="line"/>
      <point x="318" y="769" type="line"/>
      <point x="318" y="759" type="line" smooth="yes"/>
      <point x="318" y="680"/>
      <point x="271" y="535"/>
      <point x="197" y="435" type="qcurve" smooth="yes"/>
      <point x="129" y="342"/>
      <point x="46" y="170"/>
    </contour>
    <contour>
      <point x="292" y="1119" type="qcurve" smooth="yes"/>
      <point x="292" y="1087"/>
      <point x="320" y="1041"/>
      <point x="346" y="1041" type="qcurve" smooth="yes"/>
      <point x="371" y="1041"/>
      <point x="398" y="1087"/>
      <point x="398" y="1119" type="qcurve" smooth="yes"/>
      <point x="398" y="1152"/>
      <point x="371" y="1198"/>
      <point x="346" y="1198" type="qcurve" smooth="yes"/>
      <point x="320" y="1198"/>
      <point x="292" y="1152"/>
    </contour>
  </outline>
</glyph>
<glyph name="AE" format="1">
  <advance width="1410"/>
  <unicode hex="00C6"/>
  <outline>
    <contour>
      <point x="-67" y="0" type="line"/>
      <point x="-6" y="0" type="line"/>
      <point x="713" y="1401" type="line"/>
      <point x="722" y="1401" type="line"/>
      <point x="722" y="0" type="line"/>
      <point x="1368" y="0" type="line"/>
      <point x="1368" y="50" type="line"/>
      <point x="776" y="50" type="line"/>
      <point x="776" y="726" type="line"/>
      <point x="1277" y="726" type="line"/>
      <point x="1277" y="776" type="line"/>
      <point x="776" y="776" type="line"/>
      <point x="776" y="1406" type="line"/>
      <point x="1359" y="1406" type="line"/>
      <point x="1359" y="1456" type="line"/>
      <point x="684" y="1456" type="line"/>
    </contour>
    <contour>
      <point x="196" y="439" type="line"/>
      <point x="762" y="439" type="line"/>
      <point x="762" y="489" type="line"/>
      <point x="232" y="489" type="line"/>
    </contour>
  </outline>
</glyph>
<glyph name="Eth" format="1">
  <advance width="961"/>
  <unicode hex="00D0"/>
  <outline>
    <contour>
      <point x="131" y="0" type="line"/>
      <point x="422" y="0" type="line" smooth="yes"/>
      <point x="634" y="0"/>
      <point x="901" y="370"/>
      <point x="901" y="688" type="qcurve" smooth="yes"/>
      <point x="901" y="768" type="line" smooth="yes"/>
      <point x="901" y="1086"/>
      <point x="634" y="1456"/>
      <point x="422" y="1456" type="qcurve" smooth="yes"/>
      <point x="131" y="1456" type="line"/>
    </contour>
    <contour>
      <point x="185" y="50" type="line"/>
      <point x="185" y="1406" type="line"/>
      <point x="422" y="1406" type="line" smooth="yes"/>
      <point x="616" y="1406"/>
      <point x="846" y="1068"/>
      <point x="846" y="768" type="qcurve" smooth="yes"/>
      <point x="846" y="688" type="line" smooth="yes"/>
      <point x="846" y="388"/>
      <point x="616" y="50"/>
      <point x="422" y="50" type="qcurve" smooth="yes"/>
    </contour>
    <contour>
      <point x="13" y="754" type="line"/>
      <point x="13" y="704" type="line"/>
      <point x="511" y="704" type="line"/>
      <point x="511" y="754" type="line"/>
    </contour>
  </outline>
</glyph>
<glyph name="Thorn" format="1">
  <advance width="849"/>
  <unicode hex="00DE"/>
  <outline>
    <contour>
      <point x="131" y="0" type="line"/>
      <point x="185" y="0" type="line"/>
      <point x="185" y="312" type="line"/>
      <point x="468" y="312" type="line" smooth="yes"/>
      <point x="641" y="312"/>
      <point x="810" y="549"/>
      <point x="810" y="735" type="qcurve" smooth="yes"/>
      <point x="810" y="920"/>
      <point x="641" y="1155"/>
      <point x="468" y="1155" type="qcurve" smooth="yes"/>
      <point x="185" y="1155" type="line"/>
      <point x="185" y="1456" type="line"/>
      <point x="131" y="1456" type="line"/>
    </contour>
    <contour>
      <point x="185" y="368" type="line"/>
      <point x="185" y="1099" type="line"/>
      <point x="468" y="1099" type="line" smooth="yes"/>
      <point x="627" y="1099"/>
      <point x="755" y="891"/>
      <point x="755" y="735" type="qcurve" smooth="yes"/>
      <point x="755" y="579"/>
      <point x="627" y="368"/>
      <point x="468" y="368" type="qcurve" smooth="yes"/>
    </contour>
  </outline>
</glyph>
<glyph name="germandbls" format="1">
  <advance width="857"/>
  <unicode hex="00DF"/>
  <outline>
    <contour>
      <point x="108" y="0" type="line"/>
      <point x="162" y="0" type="line"/>
      <point x="162" y="1113" type="line" smooth="yes"/>
      <point x="162" y="1313"/>
      <point x="272" y="1506"/>
      <point x="368" y="1506" type="qcurve" smooth="yes"/>
      <point x="464" y="1506"/>
      <point x="556" y="1344"/>
      <point x="556" y="1229" type="qcurve" smooth="yes"/>
      <point x="556" y="1167"/>
      <point x="526" y="1070"/>
      <point x="502" y="1029" type="qcurve" smooth="yes"/>
      <point x="476" y="984"/>
      <point x="432" y="888"/>
      <point x="432" y="822" type="qcurve" smooth="yes"/>
      <point x="432" y="733"/>
      <point x="514" y="611"/>
      <point x="565" y="562" type="qcurve" smooth="yes"/>
      <point x="634" y="497"/>
      <point x="748" y="366"/>
      <point x="748" y="274" type="qcurve" smooth="yes"/>
      <point x="748" y="167"/>
      <point x="646" y="31"/>
      <point x="548" y="31" type="qcurve" smooth="yes"/>
      <point x="479" y="31"/>
      <point x="362" y="80"/>
      <point x="331" y="105" type="qcurve"/>
      <point x="304" y="60" type="line"/>
      <point x="339" y="31"/>
      <point x="473" y="-20"/>
      <point x="557" y="-20" type="qcurve" smooth="yes"/>
      <point x="660" y="-20"/>
      <point x="801" y="134"/>
      <point x="801" y="285" type="qcurve" smooth="yes"/>
      <point x="801" y="397"/>
      <point x="663" y="547"/>
      <point x="595" y="609" type="qcurve" smooth="yes"/>
      <point x="548" y="652"/>
      <point x="484" y="753"/>
      <point x="484" y="820" type="qcurve" smooth="yes"/>
      <point x="484" y="868"/>
      <point x="514" y="942"/>
      <point x="535" y="978" type="qcurve" smooth="yes"/>
      <point x="561" y="1025"/>
      <point x="608" y="1142"/>
      <point x="608" y="1236" type="qcurve" smooth="yes"/>
      <point x="608" y="1369"/>
      <point x="482" y="1556"/>
      <point x="368" y="1556" type="qcurve" smooth="yes"/>
      <point x="254" y="1556"/>
      <point x="108" y="1332"/>
      <point x="108" y="1113" type="qcurve" smooth="yes"/>
    </contour>
  </outline>
</glyph>
<glyph name="ae" format="1">
  <advance width="1084"/>
  <unicode hex="00E6"/>
  <outline>
    <contour>
      <point x="52" y="243" type="qcurve" smooth="yes"/>
      <point x="52" y="113"/>
      <point x="172" y="-17"/>
      <point x="269" y="-17" type="qcurve"/>
      <point x="373" y="-17"/>
      <point x="512" y="114"/>
      <point x="550" y="199" type="qcurve"/>
      <point x="585" y="95"/>
      <point x="722" y="-26"/>
      <point x="826" y="-26" type="qcurve"/>
      <point x="911" y="-26"/>
      <point x="1028" y="59"/>
      <point x="1061" y="111" type="qcurve"/>
      <point x="1024" y="145" type="line"/>
      <point x="989" y="88"/>
      <point x="893" y="23"/>
      <point x="824" y="23" type="qcurve"/>
      <point x="692" y="23"/>
      <point x="566" y="258"/>
      <point x="566" y="431" type="qcurve" smooth="yes"/>
      <point x="566" y="457" type="line" smooth="yes"/>
      <point x="566" y="630"/>
      <point x="686" y="863"/>
      <point x="801" y="863" type="qcurve"/>
      <point x="917" y="863"/>
      <point x="1014" y="653"/>
      <point x="1014" y="512" type="qcurve"/>
      <point x="1014" y="498" type="line"/>
      <point x="542" y="498" type="line"/>
      <point x="542" y="446" type="line"/>
      <point x="1065" y="446" type="line"/>
      <point x="1065" y="472" type="line" smooth="yes"/>
      <point x="1065" y="675"/>
      <point x="928" y="913"/>
      <point x="801" y="913" type="qcurve"/>
      <point x="715" y="913"/>
      <point x="592" y="799"/>
      <point x="556" y="704" type="qcurve"/>
      <point x="539" y="805"/>
      <point x="428" y="913"/>
      <point x="338" y="913" type="qcurve"/>
      <point x="224" y="913"/>
      <point x="101" y="761"/>
      <point x="101" y="655" type="qcurve" smooth="yes"/>
      <point x="101" y="651" type="line"/>
      <point x="149" y="651" type="line"/>
      <point x="149" y="655" type="line" smooth="yes"/>
      <point x="149" y="736"/>
      <point x="235" y="863"/>
      <point x="334" y="863" type="qcurve"/>
      <point x="435" y="863"/>
      <point x="516" y="722"/>
      <point x="516" y="607" type="qcurve" smooth="yes"/>
      <point x="516" y="512" type="line"/>
      <point x="326" y="512" type="line" smooth="yes"/>
      <point x="208" y="512"/>
      <point x="52" y="366"/>
    </contour>
    <contour>
      <point x="102" y="244" type="qcurve" smooth="yes"/>
      <point x="102" y="341"/>
      <point x="223" y="463"/>
      <point x="344" y="463" type="qcurve" smooth="yes"/>
      <point x="516" y="463" type="line"/>
      <point x="516" y="285" type="line"/>
      <point x="516" y="193"/>
      <point x="370" y="33"/>
      <point x="281" y="33" type="qcurve"/>
      <point x="189" y="33"/>
      <point x="102" y="143"/>
    </contour>
  </outline>
</glyph>
<glyph name="eth" format="1">
  <advance width="788"/>
  <unicode hex="00F0"/>
  <outline>
    <contour>
      <point x="46" y="445" type="qcurve" smooth="yes"/>
      <point x="46" y="233"/>
      <point x="211" y="-26"/>
      <point x="346" y="-26" type="qcurve" smooth="yes"/>
      <point x="481" y="-26"/>
      <point x="649" y="304"/>
      <point x="649" y="679" type="qcurve" smooth="yes"/>
      <point x="649" y="754" type="line" smooth="yes"/>
      <point x="649" y="1134"/>
      <point x="500" y="1477"/>
      <point x="330" y="1477" type="qcurve" smooth="yes"/>
      <point x="237" y="1477"/>
      <point x="91" y="1370"/>
      <point x="56" y="1310" type="qcurve"/>
      <point x="91" y="1275" type="line"/>
      <point x="129" y="1333"/>
      <point x="246" y="1426"/>
      <point x="330" y="1426" type="qcurve" smooth="yes"/>
      <point x="469" y="1426"/>
      <point x="599" y="1130"/>
      <point x="599" y="763" type="qcurve" smooth="yes"/>
      <point x="599" y="669" type="line" smooth="yes"/>
      <point x="599" y="295"/>
      <point x="460" y="24"/>
      <point x="346" y="24" type="qcurve" smooth="yes"/>
      <point x="231" y="24"/>
      <point x="97" y="244"/>
      <point x="97" y="445" type="qcurve" smooth="yes"/>
      <point x="97" y="645"/>
      <point x="230" y="863"/>
      <point x="346" y="863" type="qcurve" smooth="yes"/>
      <point x="449" y="863"/>
      <point x="603" y="638"/>
      <point x="603" y="445" type="qcurve"/>
      <point x="629" y="445" type="line"/>
      <point x="629" y="656"/>
      <point x="467" y="913"/>
      <point x="332" y="913" type="qcurve" smooth="yes"/>
      <point x="205" y="913"/>
      <point x="46" y="656"/>
    </contour>
    <contour>
      <point x="279" y="1083" type="line"/>
      <point x="305" y="1040" type="line"/>
      <point x="684" y="1329" type="line"/>
      <point x="658" y="1372" type="line"/>
    </contour>
  </outline>
</glyph>
<glyph name="divide" format="1">
  <advance width="976"/>
  <unicode hex="00F7"/>
  <outline>
    <contour>
      <point x="84" y="639" type="line"/>
      <point x="892" y="639" type="line"/>
      <point x="892" y="709" type="line"/>
      <point x="84" y="709" type="line"/>
    </contour>
    <contour>
      <point x="434" y="299" type="qcurve" smooth="yes"/>
      <point x="434" y="266"/>
      <point x="462" y="220"/>
      <point x="487" y="220" type="qcurve" smooth="yes"/>
      <point x="514" y="220"/>
      <point x="542" y="266"/>
      <point x="542" y="299" type="qcurve" smooth="yes"/>
      <point x="542" y="331"/>
      <point x="514" y="377"/>
      <point x="487" y="377" type="qcurve" smooth="yes"/>
      <point x="462" y="377"/>
      <point x="434" y="331"/>
    </contour>
    <contour>
      <point x="434" y="1049" type="qcurve" smooth="yes"/>
      <point x="434" y="1017"/>
      <point x="462" y="971"/>
      <point x="487" y="971" type="qcurve" smooth="yes"/>
      <point x="514" y="971"/>
      <point x="542" y="1017"/>
      <point x="542" y="1049" type="qcurve" smooth="yes"/>
      <point x="542" y="1082"/>
      <point x="514" y="1128"/>
      <point x="487" y="1128" type="qcurve" smooth="yes"/>
      <point x="462" y="1128"/>
      <point x="434" y="1082"/>
    </contour>
  </outline>
</glyph>
<glyph name="oslash" format="1">
  <advance width="693"/>
  <unicode hex="00F8"/>
  <outline>
    <contour>
      <point x="46" y="430" type="line" smooth="yes"/>
      <point x="46" y="230"/>
      <point x="210" y="-26"/>
      <point x="347" y="-26" type="qcurve" smooth="yes"/>
      <point x="484" y="-26"/>
      <point x="648" y="230"/>
      <point x="648" y="430" type="qcurve" smooth="yes"/>
      <point x="648" y="457" type="line" smooth="yes"/>
      <point x="648" y="658"/>
      <point x="484" y="913"/>
      <point x="347" y="913" type="qcurve" smooth="yes"/>
      <point x="210" y="913"/>
      <point x="46" y="658"/>
      <point x="46" y="457" type="qcurve" smooth="yes"/>
    </contour>
    <contour>
      <point x="97" y="457" type="line" smooth="yes"/>
      <point x="97" y="628"/>
      <point x="224" y="863"/>
      <point x="347" y="863" type="qcurve" smooth="yes"/>
      <point x="469" y="863"/>
      <point x="597" y="628"/>
      <point x="597" y="457" type="qcurve" smooth="yes"/>
      <point x="597" y="430" type="line" smooth="yes"/>
      <point x="597" y="259"/>
      <point x="469" y="24"/>
      <point x="347" y="24" type="qcurve" smooth="yes"/>
      <point x="224" y="24"/>
      <point x="97" y="259"/>
      <point x="97" y="430" type="qcurve" smooth="yes"/>
    </contour>
    <contour>
      <point x="47" y="-100" type="line"/>
      <point x="103" y="-100" type="line"/>
      <point x="181" y="56" type="line"/>
      <point x="181" y="56" type="line"/>
      <point x="371" y="434" type="line"/>
      <point x="321" y="434" type="line"/>
      <point x="163" y="124" type="line"/>
      <point x="162" y="124" type="line"/>
    </contour>
    <contour>
      <point x="321" y="434" type="line"/>
      <point x="371" y="434" type="line"/>
      <point x="532" y="762" type="line"/>
      <point x="533" y="762" type="line"/>
      <point x="648" y="986" type="line"/>
      <point x="592" y="986" type="line"/>
      <point x="513" y="830" type="line"/>
      <point x="515" y="830" type="line"/>
    </contour>
  </outline>
</glyph>
<glyph name="thorn" format="1">
  <advance width="702"/>
  <unicode hex="00FE"/>
  <outline>
    <contour>
      <point x="94" y="-416" type="line"/>
      <point x="144" y="-416" type="line"/>
      <point x="144" y="111" type="line"/>
      <point x="181" y="56"/>
      <point x="298" y="-17"/>
      <point x="380" y="-17" type="qcurve" smooth="yes"/>
      <point x="509" y="-17"/>
      <point x="656" y="236"/>
      <point x="656" y="431" type="qcurve" smooth="yes"/>
      <point x="656" y="458" type="line" smooth="yes"/>
      <point x="656" y="651"/>
      <point x="509" y="904"/>
      <point x="379" y="904" type="qcurve"/>
      <point x="299" y="904"/>
      <point x="173" y="820"/>
      <point x="144" y="768" type="qcurve"/>
      <point x="144" y="1306" type="line"/>
      <point x="94" y="1306" type="line"/>
    </contour>
    <contour>
      <point x="144" y="196" type="qcurve"/>
      <point x="144" y="691" type="line"/>
      <point x="170" y="755"/>
      <point x="285" y="855"/>
      <point x="367" y="855" type="qcurve" smooth="yes"/>
      <point x="490" y="855"/>
      <point x="605" y="625"/>
      <point x="605" y="458" type="qcurve" smooth="yes"/>
      <point x="605" y="431" type="line" smooth="yes"/>
      <point x="605" y="262"/>
      <point x="490" y="32"/>
      <point x="367" y="32" type="qcurve" smooth="yes"/>
      <point x="285" y="32"/>
      <point x="170" y="133"/>
    </contour>
  </outline>
</glyph>
<glyph name="OE" format="1">
  <advance width="1484"/>
  <unicode hex="0152"/>
  <outline>
    <contour>
      <point x="82" y="682" type="line" smooth="yes"/>
      <point x="82" y="346"/>
      <point x="338" y="-30"/>
      <point x="538" y="-30" type="qcurve" smooth="yes"/>
      <point x="622" y="-30"/>
      <point x="773" y="55"/>
      <point x="828" y="127" type="qcurve"/>
      <point x="828" y="215" type="line"/>
      <point x="782" y="132"/>
      <point x="636" y="21"/>
      <point x="536" y="21" type="qcurve" smooth="yes"/>
      <point x="357" y="21"/>
      <point x="137" y="373"/>
      <point x="137" y="682" type="qcurve" smooth="yes"/>
      <point x="137" y="774" type="line" smooth="yes"/>
      <point x="137" y="1083"/>
      <point x="357" y="1435"/>
      <point x="536" y="1435" type="qcurve" smooth="yes"/>
      <point x="636" y="1435"/>
      <point x="782" y="1324"/>
      <point x="828" y="1240" type="qcurve"/>
      <point x="828" y="1328" type="line"/>
      <point x="772" y="1401"/>
      <point x="622" y="1486"/>
      <point x="538" y="1486" type="qcurve" smooth="yes"/>
      <point x="338" y="1486"/>
      <point x="82" y="1110"/>
      <point x="82" y="774" type="qcurve" smooth="yes"/>
    </contour>
    <contour>
      <point x="795" y="0" type="line"/>
      <point x="1441" y="0" type="line"/>
      <point x="1441" y="50" type="line"/>
      <point x="849" y="50" type="line"/>
      <point x="849" y="732" type="line"/>
      <point x="1350" y="732" type="line"/>
      <point x="1350" y="782" type="line"/>
      <point x="849" y="782" type="line"/>
      <point x="849" y="1406" type="line"/>
      <point x="1432" y="1406" type="line"/>
      <point x="1432" y="1456" type="line"/>
      <point x="795" y="1456" type="line"/>
    </contour>
  </outline>
</glyph>
<glyph name="oe" format="1">
  <advance width="1168"/>
  <unicode hex="0153"/>
  <outline>
    <contour>
      <point x="46" y="431" type="line" smooth="yes"/>
      <point x="46" y="229"/>
      <point x="212" y="-26"/>
      <point x="349" y="-26" type="qcurve" smooth="yes"/>
      <point x="451" y="-26"/>
      <point x="592" y="122"/>
      <point x="623" y="246" type="qcurve"/>
      <point x="653" y="122"/>
      <point x="796" y="-26"/>
      <point x="909" y="-26" type="qcurve" smooth="yes"/>
      <point x="995" y="-26"/>
      <point x="1112" y="59"/>
      <point x="1145" y="111" type="qcurve"/>
      <point x="1108" y="145" type="line"/>
      <point x="1073" y="89"/>
      <point x="977" y="25"/>
      <point x="908" y="25" type="qcurve" smooth="yes"/>
      <point x="776" y="25"/>
      <point x="650" y="259"/>
      <point x="650" y="431" type="qcurve" smooth="yes"/>
      <point x="650" y="458" type="line" smooth="yes"/>
      <point x="650" y="628"/>
      <point x="770" y="861"/>
      <point x="885" y="861" type="qcurve" smooth="yes"/>
      <point x="1000" y="861"/>
      <point x="1097" y="652"/>
      <point x="1097" y="512" type="qcurve"/>
      <point x="1097" y="498" type="line"/>
      <point x="622" y="498" type="line"/>
      <point x="622" y="446" type="line"/>
      <point x="1149" y="446" type="line"/>
      <point x="1149" y="472" type="line" smooth="yes"/>
      <point x="1149" y="675"/>
      <point x="1012" y="913"/>
      <point x="885" y="913" type="qcurve" smooth="yes"/>
      <point x="789" y="913"/>
      <point x="653" y="765"/>
      <point x="623" y="641" type="qcurve"/>
      <point x="592" y="765"/>
      <point x="451" y="913"/>
      <point x="349" y="913" type="qcurve" smooth="yes"/>
      <point x="212" y="913"/>
      <point x="46" y="658"/>
      <point x="46" y="458" type="qcurve" smooth="yes"/>
    </contour>
    <contour>
      <point x="98" y="431" type="qcurve" smooth="yes"/>
      <point x="98" y="458" type="line" smooth="yes"/>
      <point x="98" y="628"/>
      <point x="225" y="863"/>
      <point x="349" y="863" type="qcurve" smooth="yes"/>
      <point x="472" y="863"/>
      <point x="599" y="628"/>
      <point x="599" y="458" type="qcurve" smooth="yes"/>
      <point x="599" y="431" type="line" smooth="yes"/>
      <point x="599" y="259"/>
      <point x="472" y="24"/>
      <point x="349" y="24" type="qcurve" smooth="yes"/>
      <point x="225" y="24"/>
      <point x="98" y="259"/>
    </contour>
  </outline>
</glyph>
<glyph name="ring" format="1">
  <advance width="872"/>
  <unicode hex="02DA"/>
  <outline>
    <contour>
      <point x="275" y="1360" type="qcurve" smooth="yes"/>
      <point x="275" y="1263"/>
      <point x="370" y="1136"/>
      <point x="436" y="1136" type="qcurve" smooth="yes"/>
      <point x="502" y="1136"/>
      <point x="597" y="1263"/>
      <point x="597" y="1360" type="qcurve" smooth="yes"/>
      <point x="597" y="1457"/>
      <point x="502" y="1584"/>
      <point x="436" y="1584" type="qcurve" smooth="yes"/>
      <point x="370" y="1584"/>
      <point x="275" y="1457"/>
    </contour>
    <contour>
      <point x="325" y="1360" type="qcurve" smooth="yes"/>
      <point x="325" y="1435"/>
      <point x="388" y="1530"/>
      <point x="436" y="1530" type="qcurve" smooth="yes"/>
      <point x="484" y="1530"/>
      <point x="546" y="1435"/>
      <point x="546" y="1360" type="qcurve" smooth="yes"/>
      <point x="546" y="1286"/>
      <point x="484" y="1191"/>
      <point x="436" y="1191" type="qcurve" smooth="yes"/>
      <point x="388" y="1191"/>
      <point x="325" y="1286"/>
    </contour>
  </outline>
</glyph>
<glyph name="tilde" format="1">
  <advance width="882"/>
  <unicode hex="02DC"/>
  <outline>
    <contour>
      <point x="178" y="1152" type="qcurve"/>
      <point x="229" y="1151" type="line"/>
      <point x="229" y="1230"/>
      <point x="269" y="1334"/>
      <point x="314" y="1334" type="qcurve" smooth="yes"/>
      <point x="362" y="1334"/>
      <point x="508" y="1163"/>
      <point x="570" y="1163" type="qcurve" smooth="yes"/>
      <point x="631" y="1163"/>
      <point x="706" y="1302"/>
      <point x="706" y="1407" type="qcurve"/>
      <point x="655" y="1407" type="line"/>
      <point x="655" y="1328"/>
      <point x="614" y="1224"/>
      <point x="570" y="1224" type="qcurve" smooth="yes"/>
      <point x="521" y="1224"/>
      <point x="376" y="1395"/>
      <point x="313" y="1395" type="qcurve" smooth="yes"/>
      <point x="252" y="1395"/>
      <point x="178" y="1256"/>
    </contour>
  </outline>
</glyph>
<glyph name="Germandbls" format="1">
  <advance width="974"/>
  <unicode hex="1E9E"/>
  <outline>
    <contour>
      <point x="136" y="0" type="line"/>
      <point x="190" y="0" type="line"/>
      <point x="190" y="1046" type="line" smooth="yes"/>
      <point x="190" y="1236"/>
      <point x="346" y="1430"/>
      <point x="482" y="1430" type="qcurve" smooth="yes"/>
      <point x="611" y="1430"/>
      <point x="746" y="1244"/>
      <point x="748" y="1095" type="qcurve"/>
      <point x="471" y="774" type="line"/>
      <point x="490" y="711" type="line"/>
      <point x="672" y="680"/>
      <point x="837" y="526"/>
      <point x="837" y="405" type="qcurve" smooth="yes"/>
      <point x="837" y="365" type="line" smooth="yes"/>
      <point x="837" y="207"/>
      <point x="659" y="36"/>
      <point x="518" y="36" type="qcurve" smooth="yes"/>
      <point x="481" y="36"/>
      <point x="395" y="48"/>
      <point x="371" y="53" type="qcurve"/>
      <point x="363" y="-4" type="line"/>
      <point x="393" y="-10"/>
      <point x="485" y="-20"/>
      <point x="527" y="-20" type="qcurve" smooth="yes"/>
      <point x="694" y="-20"/>
      <point x="891" y="196"/>
      <point x="891" y="365" type="qcurve" smooth="yes"/>
      <point x="891" y="405" type="line" smooth="yes"/>
      <point x="891" y="547"/>
      <point x="699" y="732"/>
      <point x="534" y="762" type="qcurve"/>
      <point x="534" y="767" type="line"/>
      <point x="802" y="1073" type="line"/>
      <point x="802" y="1092" type="line" smooth="yes"/>
      <point x="802" y="1263"/>
      <point x="632" y="1486"/>
      <point x="482" y="1486" type="qcurve" smooth="yes"/>
      <point x="330" y="1486"/>
      <point x="136" y="1263"/>
      <point x="136" y="1046" type="qcurve" smooth="yes"/>
    </contour>
  </outline>
</glyph>
<glyph name="endash" format="1">
  <advance width="1089"/>
  <unicode hex="2013"/>
  <outline>
    <contour>
      <point x="91" y="604" type="line"/>
      <point x="997" y="604" type="line"/>
      <point x="997" y="673" type="line"/>
      <point x="91" y="673" type="line"/>
    </contour>
  </outline>
</glyph>
<glyph name="quoteleft" format="1">
  <advance width="269"/>
  <unicode hex="2018"/>
  <outline>
    <contour>
      <point x="88" y="1194" type="line"/>
      <point x="163" y="1194" type="line"/>
      <point x="163" y="1268" type="line" smooth="yes"/>
      <point x="163" y="1329"/>
      <point x="188" y="1418"/>
      <point x="211" y="1461" type="qcurve"/>
      <point x="161" y="1494" type="line"/>
      <point x="127" y="1449"/>
      <point x="88" y="1340"/>
      <point x="88" y="1268" type="qcurve" smooth="yes"/>
    </contour>
  </outline>
</glyph>
<glyph name="quoteright" format="1">
  <advance width="269"/>
  <unicode hex="2019"/>
  <outline>
    <contour>
      <point x="58" y="1189" type="qcurve"/>
      <point x="108" y="1156" type="line"/>
      <point x="142" y="1200"/>
      <point x="181" y="1310"/>
      <point x="181" y="1382" type="qcurve" smooth="yes"/>
      <point x="181" y="1456" type="line"/>
      <point x="105" y="1456" type="line"/>
      <point x="105" y="1382" type="line" smooth="yes"/>
      <point x="105" y="1321"/>
      <point x="81" y="1231"/>
    </contour>
  </outline>
</glyph>
<glyph name="quotedblleft" format="1">
  <advance width="516"/>
  <unicode hex="201C"/>
  <outline>
    <contour>
      <point x="88" y="1194" type="line"/>
      <point x="163" y="1194" type="line"/>
      <point x="163" y="1268" type="line" smooth="yes"/>
      <point x="163" y="1329"/>
      <point x="188" y="1418"/>
      <point x="211" y="1461" type="qcurve"/>
      <point x="161" y="1494" type="line"/>
      <point x="127" y="1449"/>
      <point x="88" y="1340"/>
      <point x="88" y="1268" type="qcurve" smooth="yes"/>
    </contour>
    <contour>
      <point x="335" y="1194" type="line"/>
      <point x="411" y="1194" type="line"/>
      <point x="411" y="1268" type="line" smooth="yes"/>
      <point x="411" y="1329"/>
      <point x="435" y="1418"/>
      <point x="458" y="1461" type="qcurve"/>
      <point x="408" y="1494" type="line"/>
      <point x="375" y="1449"/>
      <point x="335" y="1340"/>
      <point x="335" y="1268" type="qcurve" smooth="yes"/>
    </contour>
  </outline>
</glyph>
<glyph name="quotedblbase" format="1">
  <advance width="516"/>
  <unicode hex="201E"/>
  <outline>
    <contour>
      <point x="58" y="-125" type="qcurve"/>
      <point x="108" y="-158" type="line"/>
      <point x="142" y="-113"/>
      <point x="181" y="-4"/>
      <point x="181" y="68" type="qcurve" smooth="yes"/>
      <point x="181" y="142" type="line"/>
      <point x="105" y="142" type="line"/>
      <point x="105" y="68" type="line" smooth="yes"/>
      <point x="105" y="7"/>
      <point x="81" y="-82"/>
    </contour>
    <contour>
      <point x="307" y="-125" type="qcurve"/>
      <point x="355" y="-158" type="line"/>
      <point x="390" y="-113"/>
      <point x="428" y="-4"/>
      <point x="428" y="68" type="qcurve" smooth="yes"/>
      <point x="428" y="142" type="line"/>
      <point x="353" y="142" type="line"/>
      <point x="353" y="68" type="line" smooth="yes"/>
      <point x="353" y="7"/>
      <point x="329" y="-82"/>
    </contour>
  </outline>
</glyph>
<glyph name="dagger" format="1">
  <advance width="879"/>
  <unicode hex="2020"/>
  <outline>
    <contour>
      <point x="421" y="-220" type="line"/>
      <point x="458" y="-220" type="line"/>
      <point x="471" y="527" type="line"/>
      <point x="461" y="1023" type="line"/>
      <point x="475" y="1516" type="line"/>
      <point x="404" y="1516" type="line"/>
      <point x="419" y="1023" type="line"/>
      <point x="408" y="527" type="line"/>
    </contour>
    <contour>
      <point x="22" y="993" type="line"/>
      <point x="439" y="1000" type="line"/>
      <point x="857" y="993" type="line"/>
      <point x="857" y="1064" type="line"/>
      <point x="439" y="1057" type="line"/>
      <point x="22" y="1064" type="line"/>
    </contour>
  </outline>
</glyph>
<glyph name="bullet" format="1">
  <advance width="453"/>
  <unicode hex="2022"/>
  <outline>
    <contour>
      <point x="125" y="741" type="line" smooth="yes"/>
      <point x="125" y="686"/>
      <point x="183" y="614"/>
      <point x="227" y="614" type="qcurve" smooth="yes"/>
      <point x="272" y="614"/>
      <point x="327" y="686"/>
      <point x="327" y="741" type="qcurve" smooth="yes"/>
      <point x="327" y="767" type="line" smooth="yes"/>
      <point x="327" y="822"/>
      <point x="272" y="894"/>
      <point x="227" y="894" type="qcurve" smooth="yes"/>
      <point x="183" y="894"/>
      <point x="125" y="822"/>
      <point x="125" y="767" type="qcurve" smooth="yes"/>
    </contour>
  </outline>
</glyph>
<glyph name="ellipsis" format="1">
  <advance width="1120"/>
  <unicode hex="2026"/>
  <outline>
    <contour>
      <point x="121" y="56" type="qcurve" smooth="yes"/>
      <point x="121" y="23"/>
      <point x="149" y="-22"/>
      <point x="176" y="-22" type="qcurve" smooth="yes"/>
      <point x="203" y="-22"/>
      <point x="231" y="23"/>
      <point x="231" y="56" type="qcurve" smooth="yes"/>
      <point x="231" y="89"/>
      <point x="203" y="134"/>
      <point x="176" y="134" type="qcurve" smooth="yes"/>
      <point x="149" y="134"/>
      <point x="121" y="89"/>
    </contour>
    <contour>
      <point x="506" y="56" type="qcurve" smooth="yes"/>
      <point x="506" y="23"/>
      <point x="533" y="-22"/>
      <point x="560" y="-22" type="qcurve" smooth="yes"/>
      <point x="586" y="-22"/>
      <point x="615" y="23"/>
      <point x="615" y="56" type="qcurve" smooth="yes"/>
      <point x="615" y="89"/>
      <point x="586" y="134"/>
      <point x="560" y="134" type="qcurve" smooth="yes"/>
      <point x="533" y="134"/>
      <point x="506" y="89"/>
    </contour>
    <contour>
      <point x="889" y="56" type="qcurve" smooth="yes"/>
      <point x="889" y="23"/>
      <point x="917" y="-22"/>
      <point x="942" y="-22" type="qcurve" smooth="yes"/>
      <point x="969" y="-22"/>
      <point x="998" y="23"/>
      <point x="998" y="56" type="qcurve" smooth="yes"/>
      <point x="998" y="89"/>
      <point x="969" y="134"/>
      <point x="942" y="134" type="qcurve" smooth="yes"/>
      <point x="917" y="134"/>
      <point x="889" y="89"/>
    </contour>
  </outline>
</glyph>
<glyph name="perthousand" format="1">
  <advance width="1744"/>
  <unicode hex="2030"/>
  <outline>
    <contour>
      <point x="45" y="1022" type="line" smooth="yes"/>
      <point x="45" y="860"/>
      <point x="146" y="660"/>
      <point x="252" y="660" type="qcurve" smooth="yes"/>
      <point x="359" y="660"/>
      <point x="460" y="860"/>
      <point x="460" y="1022" type="qcurve" smooth="yes"/>
      <point x="460" y="1114" type="line" smooth="yes"/>
      <point x="460" y="1276"/>
      <point x="359" y="1476"/>
      <point x="252" y="1476" type="qcurve" smooth="yes"/>
      <point x="146" y="1476"/>
      <point x="45" y="1276"/>
      <point x="45" y="1114" type="qcurve" smooth="yes"/>
    </contour>
    <contour>
      <point x="104" y="1023" type="qcurve" smooth="yes"/>
      <point x="104" y="1113" type="line" smooth="yes"/>
      <point x="104" y="1244"/>
      <point x="169" y="1411"/>
      <point x="252" y="1411" type="qcurve" smooth="yes"/>
      <point x="335" y="1411"/>
      <point x="401" y="1244"/>
      <point x="401" y="1113" type="qcurve" smooth="yes"/>
      <point x="401" y="1023" type="line" smooth="yes"/>
      <point x="401" y="892"/>
      <point x="335" y="725"/>
      <point x="252" y="725" type="qcurve" smooth="yes"/>
      <point x="169" y="725"/>
      <point x="104" y="892"/>
    </contour>
    <contour>
      <point x="184" y="31" type="line"/>
      <point x="233" y="-7" type="line"/>
      <point x="1034" y="1422" type="line"/>
      <point x="986" y="1463" type="line"/>
    </contour>
    <contour>
      <point x="759" y="343" type="line" smooth="yes"/>
      <point x="759" y="181"/>
      <point x="860" y="-19"/>
      <point x="966" y="-19" type="qcurve" smooth="yes"/>
      <point x="1072" y="-19"/>
      <point x="1173" y="181"/>
      <point x="1173" y="343" type="qcurve" smooth="yes"/>
      <point x="1173" y="434" type="line" smooth="yes"/>
      <point x="1173" y="597"/>
      <point x="1072" y="797"/>
      <point x="966" y="797" type="qcurve" smooth="yes"/>
      <point x="860" y="797"/>
      <point x="759" y="597"/>
      <point x="759" y="434" type="qcurve" smooth="yes"/>
    </contour>
    <contour>
      <point x="818" y="344" type="qcurve" smooth="yes"/>
      <point x="818" y="434" type="line" smooth="yes"/>
      <point x="818" y="564"/>
      <point x="883" y="731"/>
      <point x="966" y="731" type="qcurve" smooth="yes"/>
      <point x="1050" y="731"/>
      <point x="1114" y="564"/>
      <point x="1114" y="434" type="qcurve" smooth="yes"/>
      <point x="1114" y="344" type="line" smooth="yes"/>
      <point x="1114" y="213"/>
      <point x="1050" y="46"/>
      <point x="966" y="46" type="qcurve" smooth="yes"/>
      <point x="883" y="46"/>
      <point x="818" y="213"/>
    </contour>
    <contour>
      <point x="1281" y="343" type="line" smooth="yes"/>
      <point x="1281" y="181"/>
      <point x="1382" y="-19"/>
      <point x="1490" y="-19" type="qcurve" smooth="yes"/>
      <point x="1595" y="-19"/>
      <point x="1696" y="181"/>
      <point x="1696" y="343" type="qcurve" smooth="yes"/>
      <point x="1696" y="434" type="line" smooth="yes"/>
      <point x="1696" y="597"/>
      <point x="1595" y="797"/>
      <point x="1490" y="797" type="qcurve" smooth="yes"/>
      <point x="1382" y="797"/>
      <point x="1281" y="597"/>
      <point x="1281" y="434" type="qcurve" smooth="yes"/>
    </contour>
    <contour>
      <point x="1341" y="344" type="qcurve" smooth="yes"/>
      <point x="1341" y="434" type="line" smooth="yes"/>
      <point x="1341" y="564"/>
      <point x="1405" y="731"/>
      <point x="1490" y="731" type="qcurve" smooth="yes"/>
      <point x="1573" y="731"/>
      <point x="1638" y="564"/>
      <point x="1638" y="434" type="qcurve" smooth="yes"/>
      <point x="1638" y="344" type="line" smooth="yes"/>
      <point x="1638" y="213"/>
      <point x="1573" y="46"/>
      <point x="1490" y="46" type="qcurve" smooth="yes"/>
      <point x="1405" y="46"/>
      <point x="1341" y="213"/>
    </contour>
  </outline>
</glyph>
<glyph name="guilsinglleft" format="1">
  <advance width="448"/>
  <unicode hex="2039"/>
  <outline>
    <contour>
      <point x="337" y="207" type="line"/>
      <point x="404" y="207" type="line"/>
      <point x="124" y="602" type="line"/>
      <point x="405" y="997" type="line"/>
      <point x="337" y="997" type="line"/>
      <point x="46" y="612" type="line"/>
      <point x="46" y="592" type="line"/>
    </contour>
  </outline>
</glyph>
<glyph name="guilsinglright" format="1">
  <advance width="447"/>
  <unicode hex="203A"/>
  <outline>
    <contour>
      <point x="110" y="207" type="line"/>
      <point x="400" y="592" type="line"/>
      <point x="400" y="612" type="line"/>
      <point x="110" y="997" type="line"/>
      <point x="43" y="997" type="line"/>
      <point x="323" y="602" type="line"/>
      <point x="43" y="207" type="line"/>
    </contour>
  </outline>
</glyph>
<glyph name="four.superior" format="1">
  <advance width="615"/>
  <unicode hex="2074"/>
  <outline>
    <contour>
      <point x="586" y="967" type="line"/>
      <point x="167" y="967" type="line"/>
      <point x="345" y="1227" type="line"/>
      <point x="463" y="1456" type="line"/>
      <point x="356" y="1456" type="line"/>
      <point x="31" y="939" type="line"/>
      <point x="37" y="837" type="line"/>
      <point x="586" y="837" type="line"/>
    </contour>
    <contour>
      <point x="494" y="1456" type="line"/>
      <point x="358" y="1456" type="line"/>
      <point x="358" y="667" type="line"/>
      <point x="494" y="667" type="line"/>
    </contour>
  </outline>
</glyph>
<glyph name="one.inferior" format="1">
  <advance width="711"/>
  <unicode hex="2081"/>
  <outline>
    <contour>
      <point x="475" y="422" type="line"/>
      <point x="457" y="422" type="line"/>
      <point x="103" y="306" type="line"/>
      <point x="103" y="177" type="line"/>
      <point x="319" y="234" type="line"/>
      <point x="319" y="-367" type="line"/>
      <point x="475" y="-367" type="line"/>
    </contour>
  </outline>
</glyph>
<glyph name="two.inferior" format="1">
  <advance width="615"/>
  <unicode hex="2082"/>
  <outline>
    <contour>
      <point x="572" y="-239" type="line"/>
      <point x="229" y="-239" type="line"/>
      <point x="380" y="-93" type="line" smooth="yes"/>
      <point x="455" y="-14"/>
      <point x="545" y="117"/>
      <point x="545" y="197" type="qcurve" smooth="yes"/>
      <point x="545" y="305"/>
      <point x="414" y="433"/>
      <point x="299" y="433" type="qcurve" smooth="yes"/>
      <point x="179" y="433"/>
      <point x="41" y="279"/>
      <point x="41" y="172" type="qcurve"/>
      <point x="177" y="172" type="line"/>
      <point x="177" y="229"/>
      <point x="238" y="305"/>
      <point x="303" y="305" type="qcurve" smooth="yes"/>
      <point x="353" y="305"/>
      <point x="408" y="243"/>
      <point x="408" y="195" type="qcurve" smooth="yes"/>
      <point x="408" y="162"/>
      <point x="363" y="74"/>
      <point x="305" y="12" type="qcurve" smooth="yes"/>
      <point x="57" y="-259" type="line"/>
      <point x="57" y="-367" type="line"/>
      <point x="572" y="-367" type="line"/>
    </contour>
  </outline>
</glyph>
<glyph name="three.inferior" format="1">
  <advance width="615"/>
  <unicode hex="2083"/>
  <outline>
    <contour>
      <point x="213" y="92" type="line"/>
      <point x="213" y="14" type="line"/>
      <point x="309" y="14" type="line" smooth="yes"/>
      <point x="421" y="14"/>
      <point x="546" y="130"/>
      <point x="546" y="209" type="qcurve" smooth="yes"/>
      <point x="546" y="318"/>
      <point x="406" y="433"/>
      <point x="294" y="433" type="qcurve" smooth="yes"/>
      <point x="192" y="433"/>
      <point x="48" y="313"/>
      <point x="48" y="212" type="qcurve"/>
      <point x="183" y="212" type="line"/>
      <point x="183" y="255"/>
      <point x="248" y="305"/>
      <point x="297" y="305" type="qcurve" smooth="yes"/>
      <point x="356" y="305"/>
      <point x="411" y="245"/>
      <point x="411" y="201" type="qcurve" smooth="yes"/>
      <point x="411" y="153"/>
      <point x="347" y="92"/>
      <point x="285" y="92" type="qcurve" smooth="yes"/>
    </contour>
    <contour>
      <point x="213" y="-23" type="line"/>
      <point x="285" y="-23" type="line" smooth="yes"/>
      <point x="348" y="-23"/>
      <point x="422" y="-76"/>
      <point x="422" y="-139" type="qcurve" smooth="yes"/>
      <point x="422" y="-188"/>
      <point x="358" y="-250"/>
      <point x="299" y="-250" type="qcurve" smooth="yes"/>
      <point x="242" y="-250"/>
      <point x="174" y="-189"/>
      <point x="174" y="-144" type="qcurve"/>
      <point x="39" y="-144" type="line"/>
      <point x="39" y="-266"/>
      <point x="198" y="-378"/>
      <point x="295" y="-378" type="qcurve" smooth="yes"/>
      <point x="407" y="-378"/>
      <point x="558" y="-257"/>
      <point x="558" y="-147" type="qcurve" smooth="yes"/>
      <point x="558" y="-51"/>
      <point x="437" y="55"/>
      <point x="309" y="55" type="qcurve" smooth="yes"/>
      <point x="213" y="55" type="line"/>
    </contour>
  </outline>
</glyph>
<glyph name="four.inferior" format="1">
  <advance width="615"/>
  <unicode hex="2084"/>
  <outline>
    <contour>
      <point x="586" y="-67" type="line"/>
      <point x="167" y="-67" type="line"/>
      <point x="345" y="193" type="line"/>
      <point x="463" y="422" type="line"/>
      <point x="356" y="422" type="line"/>
      <point x="31" y="-95" type="line"/>
      <point x="37" y="-197" type="line"/>
      <point x="586" y="-197" type="line"/>
    </contour>
    <contour>
      <point x="494" y="422" type="line"/>
      <point x="358" y="422" type="line"/>
      <point x="358" y="-367" type="line"/>
      <point x="494" y="-367" type="line"/>
    </contour>
  </outline>
</glyph>
<glyph name="won" format="1">
  <advance width="1098"/>
  <unicode hex="20A9"/>
  <outline>
    <contour>
      <point x="280" y="-10" type="line"/>
      <point x="345" y="-10" type="line"/>
      <point x="514" y="563" type="line" smooth="yes"/>
      <point x="525" y="597"/>
      <point x="540" y="658"/>
      <point x="547" y="691" type="qcurve"/>
      <point x="551" y="691" type="line"/>
      <point x="559" y="658"/>
      <point x="574" y="597"/>
      <point x="584" y="563" type="qcurve" smooth="yes"/>
      <point x="754" y="-10" type="line"/>
      <point x="818" y="-10" type="line"/>
      <point x="1027" y="1456" type="line"/>
      <point x="967" y="1456" type="line"/>
      <point x="795" y="225" type="line" smooth="yes"/>
      <point x="791" y="191"/>
      <point x="783" y="130"/>
      <point x="780" y="97" type="qcurve"/>
      <point x="777" y="97" type="line"/>
      <point x="771" y="130"/>
      <point x="753" y="190"/>
      <point x="743" y="225" type="qcurve" smooth="yes"/>
      <point x="585" y="756" type="line"/>
      <point x="519" y="756" type="line"/>
      <point x="362" y="225" type="line" smooth="yes"/>
      <point x="351" y="190"/>
      <point x="333" y="130"/>
      <point x="327" y="97" type="qcurve"/>
      <point x="323" y="97" type="line"/>
      <point x="321" y="130"/>
      <point x="314" y="191"/>
      <point x="308" y="225" type="qcurve" smooth="yes"/>
      <point x="137" y="1456" type="line"/>
      <point x="72" y="1456" type="line"/>
    </contour>
    <contour>
      <point x="11" y="892" type="line"/>
      <point x="1088" y="892" type="line"/>
      <point x="1088" y="960" type="line"/>
      <point x="11" y="960" type="line"/>
    </contour>
    <contour>
      <point x="2" y="1204" type="line"/>
      <point x="1097" y="1204" type="line"/>
      <point x="1097" y="1272" type="line"/>
      <point x="2" y="1272" type="line"/>
    </contour>
  </outline>
</glyph>
<glyph name="Euro" format="1">
  <advance width="809"/>
  <unicode hex="20AC"/>
  <outline>
    <contour>
      <point x="138" y="642" type="line" smooth="yes"/>
      <point x="138" y="316"/>
      <point x="328" y="-30"/>
      <point x="497" y="-30" type="qcurve" smooth="yes"/>
      <point x="646" y="-30"/>
      <point x="798" y="217"/>
      <point x="798" y="393" type="qcurve" smooth="yes"/>
      <point x="798" y="403" type="line"/>
      <point x="738" y="403" type="line"/>
      <point x="738" y="393" type="line" smooth="yes"/>
      <point x="738" y="242"/>
      <point x="629" y="35"/>
      <point x="497" y="35" type="qcurve" smooth="yes"/>
      <point x="356" y="35"/>
      <point x="199" y="324"/>
      <point x="199" y="642" type="qcurve" smooth="yes"/>
      <point x="199" y="814" type="line" smooth="yes"/>
      <point x="199" y="1132"/>
      <point x="356" y="1421"/>
      <point x="497" y="1421" type="qcurve" smooth="yes"/>
      <point x="629" y="1421"/>
      <point x="738" y="1214"/>
      <point x="738" y="1063" type="qcurve" smooth="yes"/>
      <point x="738" y="1053" type="line"/>
      <point x="798" y="1053" type="line"/>
      <point x="798" y="1063" type="line" smooth="yes"/>
      <point x="798" y="1239"/>
      <point x="646" y="1486"/>
      <point x="497" y="1486" type="qcurve" smooth="yes"/>
      <point x="328" y="1486"/>
      <point x="138" y="1140"/>
      <point x="138" y="814" type="qcurve" smooth="yes"/>
    </contour>
    <contour>
      <point x="10" y="575" type="line"/>
      <point x="661" y="575" type="line"/>
      <point x="661" y="640" type="line"/>
      <point x="10" y="640" type="line"/>
    </contour>
    <contour>
      <point x="10" y="816" type="line"/>
      <point x="661" y="816" type="line"/>
      <point x="661" y="881" type="line"/>
      <point x="10" y="881" type="line"/>
    </contour>
  </outline>
</glyph>
<glyph name="indianrupee" format="1">
  <advance width="890"/>
  <unicode hex="20B9"/>
  <outline>
    <contour>
      <point x="90" y="598" type="line"/>
      <point x="622" y="0" type="line"/>
      <point x="710" y="0" type="line"/>
      <point x="179" y="598" type="line"/>
      <point x="309" y="598" type="line" smooth="yes"/>
      <point x="496" y="598"/>
      <point x="685" y="838"/>
      <point x="685" y="1032" type="qcurve" smooth="yes"/>
      <point x="685" y="1154"/>
      <point x="609" y="1338"/>
      <point x="541" y="1386" type="qcurve"/>
      <point x="841" y="1386" type="line"/>
      <point x="856" y="1456" type="line"/>
      <point x="71" y="1456" type="line"/>
      <point x="54" y="1386" type="line"/>
      <point x="319" y="1386" type="line" smooth="yes"/>
      <point x="488" y="1386"/>
      <point x="623" y="1182"/>
      <point x="623" y="1030" type="qcurve" smooth="yes"/>
      <point x="623" y="880"/>
      <point x="488" y="669"/>
      <point x="319" y="669" type="qcurve" smooth="yes"/>
      <point x="107" y="669" type="line"/>
    </contour>
    <contour>
      <point x="83" y="990" type="line"/>
      <point x="832" y="990" type="line"/>
      <point x="849" y="1060" type="line"/>
      <point x="98" y="1060" type="line"/>
    </contour>
  </outline>
</glyph>
<glyph name="numero" format="1">
  <advance width="1855"/>
  <unicode hex="2116"/>
  <outline>
    <contour>
      <point x="140" y="0" type="line"/>
      <point x="192" y="0" type="line"/>
      <point x="192" y="1198" type="line" smooth="yes"/>
      <point x="192" y="1232"/>
      <point x="190" y="1309"/>
      <point x="186" y="1355" type="qcurve"/>
      <point x="198" y="1355" type="line"/>
      <point x="213" y="1326"/>
      <point x="248" y="1256"/>
      <point x="267" y="1218" type="qcurve" smooth="yes"/>
      <point x="865" y="0" type="line"/>
      <point x="929" y="0" type="line"/>
      <point x="929" y="1456" type="line"/>
      <point x="877" y="1456" type="line"/>
      <point x="877" y="258" type="line" smooth="yes"/>
      <point x="877" y="229"/>
      <point x="880" y="130"/>
      <point x="883" y="101" type="qcurve"/>
      <point x="869" y="101" type="line"/>
      <point x="857" y="125"/>
      <point x="818" y="205"/>
      <point x="802" y="238" type="qcurve" smooth="yes"/>
      <point x="205" y="1456" type="line"/>
      <point x="140" y="1456" type="line"/>
    </contour>
    <contour>
      <point x="1113" y="198" type="line"/>
      <point x="1113" y="248" type="line"/>
      <point x="1737" y="248" type="line"/>
      <point x="1737" y="198" type="line"/>
    </contour>
    <contour>
      <point x="1104" y="964" type="qcurve" smooth="yes"/>
      <point x="1104" y="984" type="line" smooth="yes"/>
      <point x="1104" y="1195"/>
      <point x="1273" y="1476"/>
      <point x="1424" y="1476" type="qcurve" smooth="yes"/>
      <point x="1577" y="1476"/>
      <point x="1746" y="1195"/>
      <point x="1746" y="984" type="qcurve" smooth="yes"/>
      <point x="1746" y="964" type="line" smooth="yes"/>
      <point x="1746" y="753"/>
      <point x="1577" y="472"/>
      <point x="1424" y="472" type="qcurve" smooth="yes"/>
      <point x="1273" y="472"/>
      <point x="1104" y="753"/>
    </contour>
    <contour>
      <point x="1156" y="964" type="line" smooth="yes"/>
      <point x="1156" y="772"/>
      <point x="1292" y="524"/>
      <point x="1424" y="524" type="qcurve" smooth="yes"/>
      <point x="1558" y="524"/>
      <point x="1694" y="772"/>
      <point x="1694" y="964" type="qcurve" smooth="yes"/>
      <point x="1694" y="984" type="line" smooth="yes"/>
      <point x="1694" y="1176"/>
      <point x="1558" y="1424"/>
      <point x="1424" y="1424" type="qcurve" smooth="yes"/>
      <point x="1292" y="1424"/>
      <point x="1156" y="1176"/>
      <point x="1156" y="984" type="qcurve" smooth="yes"/>
    </contour>
  </outline>
</glyph>
<glyph name="trademark" format="1">
  <advance width="1305"/>
  <unicode hex="2122"/>
  <outline>
    <contour>
      <point x="222" y="820" type="line"/>
      <point x="279" y="820" type="line"/>
      <point x="279" y="1397" type="line"/>
      <point x="470" y="1397" type="line"/>
      <point x="470" y="1456" type="line"/>
      <point x="32" y="1456" type="line"/>
      <point x="32" y="1397" type="line"/>
      <point x="222" y="1397" type="line"/>
    </contour>
    <contour>
      <point x="532" y="820" type="line"/>
      <point x="585" y="820" type="line"/>
      <point x="585" y="1396" type="line"/>
      <point x="786" y="820" type="line"/>
      <point x="853" y="820" type="line"/>
      <point x="1055" y="1396" type="line"/>
      <point x="1055" y="820" type="line"/>
      <point x="1110" y="820" type="line"/>
      <point x="1110" y="1456" type="line"/>
      <point x="1028" y="1456" type="line"/>
      <point x="822" y="867" type="line"/>
      <point x="615" y="1456" type="line"/>
      <point x="532" y="1456" type="line"/>
    </contour>
  </outline>
</glyph>
<glyph name="minus" format="1">
  <advance width="1016"/>
  <unicode hex="2212"/>
  <outline>
    <contour>
      <point x="138" y="637" type="line"/>
      <point x="878" y="637" type="line"/>
      <point x="878" y="711" type="line"/>
      <point x="138" y="711" type="line"/>
    </contour>
  </outline>
</glyph>
<glyph name="divisionslash" format="1">
  <advance width="549"/>
  <unicode hex="2215"/>
  <outline>
    <contour>
      <point x="-59" y="-125" type="line"/>
      <point x="7" y="-125" type="line"/>
      <point x="563" y="1456" type="line"/>
      <point x="498" y="1456" type="line"/>
    </contour>
  </outline>
</glyph>
<glyph name="fi" format="1">
  <advance width="798"/>
  <unicode hex="FB01"/>
  <outline>
    <contour>
      <point x="167" y="0" type="line"/>
      <point x="219" y="0" type="line"/>
      <point x="219" y="848" type="line"/>
      <point x="219" y="861" type="line"/>
      <point x="219" y="1155" type="line" smooth="yes"/>
      <point x="219" y="1287"/>
      <point x="325" y="1420"/>
      <point x="433" y="1420" type="qcurve" smooth="yes"/>
      <point x="485" y="1420"/>
      <point x="580" y="1391"/>
      <point x="621" y="1370" type="qcurve"/>
      <point x="636" y="1423" type="line"/>
      <point x="589" y="1447"/>
      <point x="486" y="1477"/>
      <point x="434" y="1477" type="qcurve" smooth="yes"/>
      <point x="308" y="1477"/>
      <point x="167" y="1312"/>
      <point x="167" y="1155" type="qcurve" smooth="yes"/>
    </contour>
    <contour>
      <point x="4" y="837" type="line"/>
      <point x="469" y="837" type="line"/>
      <point x="469" y="889" type="line"/>
      <point x="204" y="889" type="line"/>
      <point x="188" y="889" type="line"/>
      <point x="4" y="889" type="line"/>
    </contour>
    <contour>
      <point x="621" y="0" type="line"/>
      <point x="672" y="0" type="line"/>
      <point x="672" y="889" type="line"/>
      <point x="621" y="889" type="line"/>
    </contour>
  </outline>
</glyph>
<glyph name="fl" format="1">
  <advance width="810"/>
  <unicode hex="FB02"/>
  <outline>
    <contour>
      <point x="161" y="0" type="line"/>
      <point x="228" y="0" type="line"/>
      <point x="228" y="861" type="line"/>
      <point x="228" y="875" type="line"/>
      <point x="228" y="1116" type="line" smooth="yes"/>
      <point x="228" y="1258"/>
      <point x="333" y="1413"/>
      <point x="425" y="1413" type="qcurve" smooth="yes"/>
      <point x="491" y="1413"/>
      <point x="607" y="1377"/>
      <point x="651" y="1355" type="qcurve"/>
      <point x="673" y="1417" type="line"/>
      <point x="620" y="1442"/>
      <point x="492" y="1477"/>
      <point x="425" y="1477" type="qcurve" smooth="yes"/>
      <point x="302" y="1477"/>
      <point x="161" y="1292"/>
      <point x="161" y="1116" type="qcurve" smooth="yes"/>
    </contour>
    <contour>
      <point x="5" y="831" type="line"/>
      <point x="457" y="831" type="line"/>
      <point x="457" y="894" type="line"/>
      <point x="200" y="894" type="line"/>
      <point x="187" y="894" type="line"/>
      <point x="5" y="894" type="line"/>
    </contour>
    <contour>
      <point x="607" y="0" type="line"/>
      <point x="674" y="0" type="line"/>
      <point x="674" y="1417" type="line"/>
      <point x="607" y="1417" type="line"/>
    </contour>
  </outline>
</glyph>
<glyph name="f_f_i" format="1">
  <advance width="1250"/>
  <unicode hex="FB03"/>
  <outline>
    <contour>
      <point x="167" y="0" type="line"/>
      <point x="219" y="0" type="line"/>
      <point x="219" y="848" type="line"/>
      <point x="219" y="861" type="line"/>
      <point x="219" y="1114" type="line" smooth="yes"/>
      <point x="219" y="1267"/>
      <point x="328" y="1420"/>
      <point x="437" y="1420" type="qcurve" smooth="yes"/>
      <point x="486" y="1420"/>
      <point x="575" y="1395"/>
      <point x="615" y="1375" type="qcurve"/>
      <point x="630" y="1428" type="line"/>
      <point x="585" y="1450"/>
      <point x="488" y="1477"/>
      <point x="438" y="1477" type="qcurve" smooth="yes"/>
      <point x="309" y="1477"/>
      <point x="167" y="1291"/>
      <point x="167" y="1114" type="qcurve" smooth="yes"/>
    </contour>
    <contour>
      <point x="4" y="837" type="line"/>
      <point x="475" y="837" type="line"/>
      <point x="475" y="889" type="line"/>
      <point x="204" y="889" type="line"/>
      <point x="188" y="889" type="line"/>
      <point x="4" y="889" type="line"/>
    </contour>
    <contour>
      <point x="621" y="0" type="line"/>
      <point x="672" y="0" type="line"/>
      <point x="672" y="848" type="line"/>
      <point x="672" y="861" type="line"/>
      <point x="672" y="1114" type="line" smooth="yes"/>
      <point x="672" y="1267"/>
      <point x="778" y="1420"/>
      <point x="887" y="1420" type="qcurve" smooth="yes"/>
      <point x="938" y="1420"/>
      <point x="1032" y="1392"/>
      <point x="1073" y="1370" type="qcurve"/>
      <point x="1089" y="1423" type="line"/>
      <point x="1042" y="1447"/>
      <point x="939" y="1477"/>
      <point x="887" y="1477" type="qcurve" smooth="yes"/>
      <point x="761" y="1477"/>
      <point x="621" y="1291"/>
      <point x="621" y="1114" type="qcurve" smooth="yes"/>
    </contour>
    <contour>
      <point x="459" y="837" type="line"/>
      <point x="925" y="837" type="line"/>
      <point x="925" y="889" type="line"/>
      <point x="661" y="889" type="line"/>
      <point x="643" y="889" type="line"/>
      <point x="459" y="889" type="line"/>
    </contour>
    <contour>
      <point x="1074" y="0" type="line"/>
      <point x="1126" y="0" type="line"/>
      <point x="1126" y="889" type="line"/>
      <point x="1074" y="889" type="line"/>
    </contour>
  </outline>
</glyph>
<glyph name="f_f_l" format="1">
  <advance width="1282"/>
  <unicode hex="FB04"/>
  <outline>
    <contour>
      <point x="167" y="0" type="line"/>
      <point x="219" y="0" type="line"/>
      <point x="219" y="848" type="line"/>
      <point x="219" y="861" type="line"/>
      <point x="219" y="1113" type="line" smooth="yes"/>
      <point x="219" y="1268"/>
      <point x="327" y="1425"/>
      <point x="437" y="1425" type="qcurve" smooth="yes"/>
      <point x="486" y="1425"/>
      <point x="576" y="1398"/>
      <point x="615" y="1379" type="qcurve"/>
      <point x="630" y="1426" type="line"/>
      <point x="585" y="1448"/>
      <point x="488" y="1476"/>
      <point x="438" y="1476" type="qcurve" smooth="yes"/>
      <point x="311" y="1476"/>
      <point x="167" y="1290"/>
      <point x="167" y="1113" type="qcurve" smooth="yes"/>
    </contour>
    <contour>
      <point x="4" y="840" type="line"/>
      <point x="472" y="840" type="line"/>
      <point x="472" y="887" type="line"/>
      <point x="204" y="887" type="line"/>
      <point x="188" y="887" type="line"/>
      <point x="4" y="887" type="line"/>
    </contour>
    <contour>
      <point x="621" y="0" type="line"/>
      <point x="672" y="0" type="line"/>
      <point x="672" y="848" type="line"/>
      <point x="672" y="861" type="line"/>
      <point x="672" y="1113" type="line" smooth="yes"/>
      <point x="672" y="1268"/>
      <point x="778" y="1425"/>
      <point x="887" y="1425" type="qcurve" smooth="yes"/>
      <point x="955" y="1425"/>
      <point x="1081" y="1394"/>
      <point x="1128" y="1368" type="qcurve"/>
      <point x="1144" y="1416" type="line"/>
      <point x="1088" y="1444"/>
      <point x="954" y="1477"/>
      <point x="887" y="1477" type="qcurve" smooth="yes"/>
      <point x="762" y="1477"/>
      <point x="621" y="1290"/>
      <point x="621" y="1113" type="qcurve" smooth="yes"/>
    </contour>
    <contour>
      <point x="456" y="840" type="line"/>
      <point x="923" y="840" type="line"/>
      <point x="923" y="887" type="line"/>
      <point x="661" y="887" type="line"/>
      <point x="643" y="887" type="line"/>
      <point x="456" y="887" type="line"/>
    </contour>
    <contour>
      <point x="1103" y="0" type="line"/>
      <point x="1154" y="0" type="line"/>
      <point x="1154" y="1416" type="line"/>
      <point x="1103" y="1416" type="line"/>
    </contour>
  </outline>
</glyph>
<glyph name="bitcoin" format="1">
  <advance width="885"/>
  <outline>
    <contour>
      <point x="131" y="0" type="line"/>
      <point x="479" y="0" type="line" smooth="yes"/>
      <point x="634" y="0"/>
      <point x="814" y="208"/>
      <point x="814" y="398" type="qcurve" smooth="yes"/>
      <point x="814" y="547"/>
      <point x="700" y="733"/>
      <point x="608" y="763" type="qcurve"/>
      <point x="608" y="767" type="line"/>
      <point x="682" y="795"/>
      <point x="780" y="962"/>
      <point x="780" y="1089" type="qcurve" smooth="yes"/>
      <point x="780" y="1278"/>
      <point x="607" y="1456"/>
      <point x="453" y="1456" type="qcurve" smooth="yes"/>
      <point x="131" y="1456" type="line"/>
    </contour>
    <contour>
      <point x="194" y="66" type="line"/>
      <point x="194" y="725" type="line"/>
      <point x="479" y="725" type="line" smooth="yes"/>
      <point x="620" y="725"/>
      <point x="751" y="546"/>
      <point x="751" y="396" type="qcurve" smooth="yes"/>
      <point x="751" y="245"/>
      <point x="620" y="66"/>
      <point x="479" y="66" type="qcurve" smooth="yes"/>
    </contour>
    <contour>
      <point x="194" y="791" type="line"/>
      <point x="194" y="1390" type="line"/>
      <point x="453" y="1390" type="line" smooth="yes"/>
      <point x="592" y="1390"/>
      <point x="716" y="1236"/>
      <point x="716" y="1091" type="qcurve" smooth="yes"/>
      <point x="716" y="950"/>
      <point x="592" y="791"/>
      <point x="453" y="791" type="qcurve" smooth="yes"/>
    </contour>
    <contour>
      <point x="13" y="412" type="line"/>
      <point x="165" y="412" type="line"/>
      <point x="168" y="412" type="line"/>
      <point x="458" y="412" type="line"/>
      <point x="458" y="477" type="line"/>
      <point x="168" y="477" type="line"/>
      <point x="165" y="478" type="line"/>
      <point x="13" y="478" type="line"/>
    </contour>
  </outline>
</glyph>
<glyph name="eight.pnum" format="1">
  <advance width="1035"/>
  <outline>
    <contour>
      <point x="190" y="379" type="qcurve" smooth="yes"/>
      <point x="190" y="182"/>
      <point x="360" y="-30"/>
      <point x="518" y="-30" type="qcurve" smooth="yes"/>
      <point x="676" y="-30"/>
      <point x="846" y="182"/>
      <point x="846" y="379" type="qcurve" smooth="yes"/>
      <point x="846" y="512"/>
      <point x="735" y="701"/>
      <point x="640" y="743" type="qcurve"/>
      <point x="640" y="747" type="line"/>
      <point x="714" y="789"/>
      <point x="806" y="972"/>
      <point x="806" y="1094" type="qcurve" smooth="yes"/>
      <point x="806" y="1283"/>
      <point x="657" y="1486"/>
      <point x="518" y="1486" type="qcurve" smooth="yes"/>
      <point x="379" y="1486"/>
      <point x="230" y="1283"/>
      <point x="230" y="1094" type="qcurve" smooth="yes"/>
      <point x="230" y="972"/>
      <point x="321" y="789"/>
      <point x="396" y="747" type="qcurve"/>
      <point x="396" y="743" type="line"/>
      <point x="301" y="701"/>
      <point x="190" y="511"/>
    </contour>
    <contour>
      <point x="262" y="381" type="qcurve" smooth="yes"/>
      <point x="262" y="525"/>
      <point x="403" y="705"/>
      <point x="518" y="705" type="qcurve" smooth="yes"/>
      <point x="632" y="705"/>
      <point x="773" y="525"/>
      <point x="773" y="381" type="qcurve" smooth="yes"/>
      <point x="773" y="217"/>
      <point x="641" y="40"/>
      <point x="518" y="40" type="qcurve" smooth="yes"/>
      <point x="395" y="40"/>
      <point x="262" y="217"/>
    </contour>
    <contour>
      <point x="300" y="1092" type="qcurve" smooth="yes"/>
      <point x="300" y="1248"/>
      <point x="413" y="1416"/>
      <point x="518" y="1416" type="qcurve" smooth="yes"/>
      <point x="623" y="1416"/>
      <point x="736" y="1248"/>
      <point x="736" y="1092" type="qcurve" smooth="yes"/>
      <point x="736" y="958"/>
      <point x="614" y="785"/>
      <point x="518" y="785" type="qcurve" smooth="yes"/>
      <point x="421" y="785"/>
      <point x="300" y="958"/>
    </contour>
  </outline>
</glyph>
<glyph name="five.pnum" format="1">
  <advance width="839"/>
  <outline>
    <contour>
      <point x="119" y="360" type="line" smooth="yes"/>
      <point x="119" y="192"/>
      <point x="297" y="-30"/>
      <point x="441" y="-30" type="qcurve" smooth="yes"/>
      <point x="585" y="-30"/>
      <point x="775" y="235"/>
      <point x="775" y="465" type="qcurve" smooth="yes"/>
      <point x="775" y="676"/>
      <point x="585" y="910"/>
      <point x="450" y="910" type="qcurve" smooth="yes"/>
      <point x="378" y="910"/>
      <point x="258" y="836"/>
      <point x="219" y="782" type="qcurve"/>
      <point x="273" y="1404" type="line"/>
      <point x="717" y="1404" type="line"/>
      <point x="717" y="1456" type="line"/>
      <point x="227" y="1456" type="line"/>
      <point x="163" y="725" type="line"/>
      <point x="210" y="708" type="line"/>
      <point x="255" y="774"/>
      <point x="369" y="860"/>
      <point x="441" y="860" type="qcurve" smooth="yes"/>
      <point x="564" y="860"/>
      <point x="721" y="657"/>
      <point x="721" y="465" type="qcurve" smooth="yes"/>
      <point x="721" y="254"/>
      <point x="564" y="20"/>
      <point x="441" y="20" type="qcurve" smooth="yes"/>
      <point x="319" y="20"/>
      <point x="171" y="203"/>
      <point x="171" y="360" type="qcurve" smooth="yes"/>
      <point x="171" y="370" type="line"/>
      <point x="119" y="370" type="line"/>
    </contour>
  </outline>
</glyph>
<glyph name="four.pnum" format="1">
  <advance width="898"/>
  <outline>
    <contour>
      <point x="643" y="0" type="line"/>
      <point x="695" y="0" type="line"/>
      <point x="695" y="1456" type="line"/>
      <point x="636" y="1456" type="line"/>
      <point x="54" y="423" type="line"/>
      <point x="54" y="369" type="line"/>
      <point x="879" y="369" type="line"/>
      <point x="879" y="419" type="line"/>
      <point x="685" y="419" type="line"/>
      <point x="659" y="419" type="line"/>
      <point x="113" y="419" type="line"/>
      <point x="637" y="1367" type="line"/>
      <point x="643" y="1367" type="line"/>
      <point x="643" y="407" type="line"/>
      <point x="643" y="392" type="line"/>
    </contour>
  </outline>
</glyph>
<glyph name="nine.pnum" format="1">
  <advance width="855"/>
  <outline>
    <contour>
      <point x="70" y="1003" type="qcurve" smooth="yes"/>
      <point x="70" y="803"/>
      <point x="242" y="557"/>
      <point x="387" y="557" type="qcurve" smooth="yes"/>
      <point x="537" y="557"/>
      <point x="738" y="809"/>
      <point x="738" y="1003" type="qcurve"/>
      <point x="711" y="1003" type="line"/>
      <point x="711" y="835"/>
      <point x="522" y="607"/>
      <point x="400" y="607" type="qcurve" smooth="yes"/>
      <point x="268" y="607"/>
      <point x="124" y="813"/>
      <point x="124" y="1003" type="qcurve" smooth="yes"/>
      <point x="124" y="1209"/>
      <point x="268" y="1436"/>
      <point x="400" y="1436" type="qcurve" smooth="yes"/>
      <point x="532" y="1436"/>
      <point x="706" y="1172"/>
      <point x="706" y="852" type="qcurve" smooth="yes"/>
      <point x="706" y="802" type="line" smooth="yes"/>
      <point x="706" y="430"/>
      <point x="447" y="20"/>
      <point x="227" y="20" type="qcurve" smooth="yes"/>
      <point x="209" y="20" type="line"/>
      <point x="209" y="-30" type="line"/>
      <point x="227" y="-30" type="line" smooth="yes"/>
      <point x="477" y="-30"/>
      <point x="760" y="427"/>
      <point x="760" y="812" type="qcurve" smooth="yes"/>
      <point x="760" y="842" type="line" smooth="yes"/>
      <point x="760" y="1182"/>
      <point x="547" y="1486"/>
      <point x="400" y="1486" type="qcurve" smooth="yes"/>
      <point x="254" y="1486"/>
      <point x="70" y="1219"/>
    </contour>
  </outline>
</glyph>
<glyph name="one.pnum" format="1">
  <advance width="831"/>
  <outline>
    <contour>
      <point x="471" y="0" type="line"/>
      <point x="525" y="0" type="line"/>
      <point x="525" y="1476" type="line"/>
      <point x="511" y="1476" type="line"/>
      <point x="127" y="1314" type="line"/>
      <point x="127" y="1260" type="line"/>
      <point x="471" y="1408" type="line"/>
    </contour>
  </outline>
</glyph>
<glyph name="seven.pnum" format="1">
  <advance width="778"/>
  <outline>
    <contour>
      <point x="176" y="0" type="line"/>
      <point x="235" y="0" type="line"/>
      <point x="738" y="1415" type="line"/>
      <point x="738" y="1456" type="line"/>
      <point x="37" y="1456" type="line"/>
      <point x="37" y="1406" type="line"/>
      <point x="679" y="1406" type="line"/>
    </contour>
  </outline>
</glyph>
<glyph name="six.pnum" format="1">
  <advance width="856"/>
  <outline>
    <contour>
      <point x="96" y="614" type="line" smooth="yes"/>
      <point x="96" y="274"/>
      <point x="307" y="-30"/>
      <point x="455" y="-30" type="qcurve" smooth="yes"/>
      <point x="601" y="-30"/>
      <point x="787" y="243"/>
      <point x="787" y="463" type="qcurve" smooth="yes"/>
      <point x="787" y="667"/>
      <point x="613" y="919"/>
      <point x="468" y="919" type="qcurve" smooth="yes"/>
      <point x="318" y="919"/>
      <point x="117" y="662"/>
      <point x="117" y="463" type="qcurve"/>
      <point x="144" y="463" type="line"/>
      <point x="144" y="634"/>
      <point x="332" y="869"/>
      <point x="455" y="869" type="qcurve" smooth="yes"/>
      <point x="587" y="869"/>
      <point x="732" y="657"/>
      <point x="732" y="463" type="qcurve" smooth="yes"/>
      <point x="732" y="252"/>
      <point x="587" y="21"/>
      <point x="455" y="21" type="qcurve" smooth="yes"/>
      <point x="323" y="21"/>
      <point x="150" y="285"/>
      <point x="150" y="604" type="qcurve" smooth="yes"/>
      <point x="150" y="654" type="line" smooth="yes"/>
      <point x="150" y="1026"/>
      <point x="409" y="1436"/>
      <point x="628" y="1436" type="qcurve" smooth="yes"/>
      <point x="647" y="1436" type="line"/>
      <point x="647" y="1486" type="line"/>
      <point x="628" y="1486" type="line" smooth="yes"/>
      <point x="378" y="1486"/>
      <point x="96" y="1029"/>
      <point x="96" y="644" type="qcurve" smooth="yes"/>
    </contour>
  </outline>
</glyph>
<glyph name="three.pnum" format="1">
  <advance width="799"/>
  <outline>
    <contour>
      <point x="66" y="375" type="line" smooth="yes"/>
      <point x="66" y="197"/>
      <point x="251" y="-30"/>
      <point x="394" y="-30" type="qcurve" smooth="yes"/>
      <point x="540" y="-30"/>
      <point x="724" y="199"/>
      <point x="724" y="397" type="qcurve" smooth="yes"/>
      <point x="724" y="538"/>
      <point x="594" y="729"/>
      <point x="490" y="758" type="qcurve"/>
      <point x="490" y="762" type="line"/>
      <point x="590" y="814"/>
      <point x="678" y="993"/>
      <point x="678" y="1103" type="qcurve" smooth="yes"/>
      <point x="678" y="1271"/>
      <point x="522" y="1486"/>
      <point x="394" y="1486" type="qcurve" smooth="yes"/>
      <point x="268" y="1486"/>
      <point x="102" y="1272"/>
      <point x="102" y="1105" type="qcurve" smooth="yes"/>
      <point x="102" y="1095" type="line"/>
      <point x="156" y="1095" type="line"/>
      <point x="156" y="1105" type="line" smooth="yes"/>
      <point x="156" y="1263"/>
      <point x="292" y="1436"/>
      <point x="394" y="1436" type="qcurve" smooth="yes"/>
      <point x="498" y="1436"/>
      <point x="623" y="1262"/>
      <point x="623" y="1103" type="qcurve" smooth="yes"/>
      <point x="623" y="959"/>
      <point x="482" y="784"/>
      <point x="350" y="784" type="qcurve" smooth="yes"/>
      <point x="262" y="784" type="line"/>
      <point x="262" y="735" type="line"/>
      <point x="360" y="735" type="line" smooth="yes"/>
      <point x="494" y="735"/>
      <point x="668" y="560"/>
      <point x="668" y="395" type="qcurve" smooth="yes"/>
      <point x="668" y="206"/>
      <point x="519" y="20"/>
      <point x="394" y="20" type="qcurve" smooth="yes"/>
      <point x="270" y="20"/>
      <point x="119" y="207"/>
      <point x="119" y="375" type="qcurve" smooth="yes"/>
      <point x="119" y="385" type="line"/>
      <point x="66" y="385" type="line"/>
    </contour>
  </outline>
</glyph>
<glyph name="two.pnum" format="1">
  <advance width="793"/>
  <outline>
    <contour>
      <point x="77" y="0" type="line"/>
      <point x="730" y="0" type="line"/>
      <point x="730" y="50" type="line"/>
      <point x="146" y="50" type="line"/>
      <point x="496" y="580" type="line" smooth="yes"/>
      <point x="585" y="713"/>
      <point x="702" y="950"/>
      <point x="702" y="1091" type="qcurve" smooth="yes"/>
      <point x="702" y="1248"/>
      <point x="543" y="1486"/>
      <point x="406" y="1486" type="qcurve" smooth="yes"/>
      <point x="265" y="1486"/>
      <point x="83" y="1227"/>
      <point x="83" y="1035" type="qcurve" smooth="yes"/>
      <point x="83" y="1025" type="line"/>
      <point x="137" y="1025" type="line"/>
      <point x="137" y="1035" type="line" smooth="yes"/>
      <point x="137" y="1217"/>
      <point x="290" y="1436"/>
      <point x="406" y="1436" type="qcurve" smooth="yes"/>
      <point x="520" y="1436"/>
      <point x="648" y="1227"/>
      <point x="648" y="1081" type="qcurve" smooth="yes"/>
      <point x="648" y="967"/>
      <point x="546" y="748"/>
      <point x="463" y="624" type="qcurve" smooth="yes"/>
      <point x="77" y="45" type="line"/>
    </contour>
  </outline>
</glyph>
<glyph name="zero.pnum" format="1">
  <advance width="818"/>
  <outline>
    <contour>
      <point x="94" y="481" type="line" smooth="yes"/>
      <point x="94" y="246"/>
      <point x="258" y="-30"/>
      <point x="408" y="-30" type="qcurve" smooth="yes"/>
      <point x="559" y="-30"/>
      <point x="724" y="246"/>
      <point x="724" y="481" type="qcurve" smooth="yes"/>
      <point x="724" y="975" type="line" smooth="yes"/>
      <point x="724" y="1210"/>
      <point x="559" y="1486"/>
      <point x="408" y="1486" type="qcurve" smooth="yes"/>
      <point x="258" y="1486"/>
      <point x="94" y="1210"/>
      <point x="94" y="975" type="qcurve" smooth="yes"/>
    </contour>
    <contour>
      <point x="148" y="471" type="qcurve" smooth="yes"/>
      <point x="148" y="985" type="line" smooth="yes"/>
      <point x="148" y="1181"/>
      <point x="277" y="1436"/>
      <point x="408" y="1436" type="qcurve" smooth="yes"/>
      <point x="540" y="1436"/>
      <point x="670" y="1181"/>
      <point x="670" y="985" type="qcurve" smooth="yes"/>
      <point x="670" y="471" type="line" smooth="yes"/>
      <point x="670" y="273"/>
      <point x="540" y="20"/>
      <point x="408" y="20" type="qcurve" smooth="yes"/>
      <point x="277" y="20"/>
      <point x="148" y="273"/>
    </contour>
  </outline>
</glyph>
